<?xml version="1.0" encoding="UTF-8" standalone="no"?>
<!DOCTYPE svg PUBLIC "-//W3C//DTD SVG 1.1//EN" "http://www.w3.org/Graphics/SVG/1.1/DTD/svg11.dtd">
<svg xmlns="http://www.w3.org/2000/svg" version="1.1" viewBox="0.00 0.00 1024.00 1024.00">
<g stroke-width="2.00" fill="none" stroke-linecap="butt">
<path stroke="#748a93" vector-effect="non-scaling-stroke" d="
  M 564.97 160.67
  Q 576.43 165.70 589.61 174.25
  Q 591.88 175.73 594.45 176.23
  C 599.09 177.14 604.19 172.82 605.13 168.53
  Q 606.57 161.96 601.07 158.16
  Q 579.30 143.11 556.26 136.63
  C 512.16 124.24 464.28 130.88 425.91 156.00
  Q 422.87 157.99 420.57 159.99
  C 412.91 166.62 422.40 180.64 431.48 175.10
  Q 442.94 168.12 450.80 164.20
  C 485.87 146.73 528.88 144.83 564.97 160.67"
/>
<path stroke="#748a93" vector-effect="non-scaling-stroke" d="
  M 437.03 281.09
  A 2.78 2.77 -60.3 0 1 437.51 282.86
  Q 437.12 287.75 437.29 292.71
  C 437.82 308.03 445.47 322.51 456.16 333.74
  C 472.65 351.06 495.68 358.68 519.40 356.39
  C 547.62 353.67 571.93 336.29 582.23 309.61
  Q 586.87 297.61 585.80 284.02
  C 585.67 282.25 585.99 280.39 587.14 278.93
  Q 601.59 260.62 616.19 241.64
  C 617.84 239.50 620.91 236.25 618.90 233.25
  C 607.86 216.70 593.81 202.87 576.58 193.28
  Q 541.89 173.98 501.78 177.06
  C 474.33 179.16 446.15 189.95 425.51 208.70
  Q 413.02 220.05 403.99 233.33
  C 401.94 236.34 404.69 239.92 406.58 242.26
  Q 418.72 257.32 431.01 272.94
  Q 434.13 276.91 437.03 281.09"
/>
<path stroke="#748a93" vector-effect="non-scaling-stroke" d="
  M 375.21 231.48
  A 11.77 11.77 0.0 0 0 363.44 219.71
  A 11.77 11.77 0.0 0 0 351.67 231.48
  A 11.77 11.77 0.0 0 0 363.44 243.25
  A 11.77 11.77 0.0 0 0 375.21 231.48"
/>
<path stroke="#748a93" vector-effect="non-scaling-stroke" d="
  M 653.2556 241.6516
  A 11.87 11.62 121.4 0 0 669.3583 237.5741
  A 11.87 11.62 121.4 0 0 665.6244 221.3884
  A 11.87 11.62 121.4 0 0 649.5217 225.4659
  A 11.87 11.62 121.4 0 0 653.2556 241.6516"
/>
<path stroke="#748a93" vector-effect="non-scaling-stroke" d="
  M 696.0174 255.0335
  A 11.84 11.56 91.9 0 0 707.9636 243.5833
  A 11.84 11.56 91.9 0 0 696.8026 231.3665
  A 11.84 11.56 91.9 0 0 684.8564 242.8167
  A 11.84 11.56 91.9 0 0 696.0174 255.0335"
/>
<path stroke="#748a93" vector-effect="non-scaling-stroke" d="
  M 321.9003 253.9712
  A 11.86 11.50 115.2 0 0 337.3555 248.1365
  A 11.86 11.50 115.2 0 0 331.9997 232.5088
  A 11.86 11.50 115.2 0 0 316.5445 238.3435
  A 11.86 11.50 115.2 0 0 321.9003 253.9712"
/>
<path stroke="#748a93" vector-effect="non-scaling-stroke" d="
  M 205.8926 259.2202
  A 12.16 11.83 121.3 0 0 222.3182 254.9759
  A 12.16 11.83 121.3 0 0 218.5274 238.4398
  A 12.16 11.83 121.3 0 0 202.1018 242.6841
  A 12.16 11.83 121.3 0 0 205.8926 259.2202"
/>
<path stroke="#748a93" vector-effect="non-scaling-stroke" d="
  M 805.7860 259.6539
  A 12.17 11.92 117.1 0 0 821.9413 254.2501
  A 12.17 11.92 117.1 0 0 816.8740 237.9861
  A 12.17 11.92 117.1 0 0 800.7187 243.3899
  A 12.17 11.92 117.1 0 0 805.7860 259.6539"
/>
<path stroke="#748a93" vector-effect="non-scaling-stroke" d="
  M 289.5551 273.6306
  A 11.89 11.62 103.1 0 0 303.5676 264.6837
  A 11.89 11.62 103.1 0 0 294.9449 250.4694
  A 11.89 11.62 103.1 0 0 280.9324 259.4163
  A 11.89 11.62 103.1 0 0 289.5551 273.6306"
/>
<path stroke="#748a93" vector-effect="non-scaling-stroke" d="
  M 725.0969 272.2347
  A 11.90 11.64 121.7 0 0 741.2534 268.2265
  A 11.90 11.64 121.7 0 0 737.6031 251.9853
  A 11.90 11.64 121.7 0 0 721.4466 255.9935
  A 11.90 11.64 121.7 0 0 725.0969 272.2347"
/>
<path stroke="#748a93" vector-effect="non-scaling-stroke" d="
  M 432.94 362.82
  Q 424.58 356.39 417.41 349.17
  C 401.82 333.46 392.64 314.88 386.35 293.39
  C 382.16 279.05 371.96 268.75 356.46 268.07
  C 350.05 267.78 343.80 269.99 338.22 273.21
  Q 297.82 296.50 259.07 318.42
  C 244.60 326.61 233.94 339.41 230.74 355.57
  Q 229.56 361.58 229.59 374.92
  Q 229.81 468.58 229.61 556.34
  Q 229.60 560.67 229.45 565.14
  Q 229.43 565.73 228.93 566.03
  C 227.55 566.86 225.92 567.37 224.51 568.17
  Q 199.21 582.50 172.33 597.34
  Q 163.31 602.32 160.03 605.58
  C 152.99 612.60 149.35 622.80 148.93 632.78
  C 148.66 639.25 148.74 645.98 150.02 652.29
  Q 152.63 665.11 161.37 674.08
  Q 164.60 677.40 175.18 683.36
  C 271.75 737.74 363.74 790.80 458.35 845.21
  Q 472.00 853.06 486.42 861.26
  C 501.35 869.75 522.22 869.44 537.57 861.68
  Q 541.95 859.46 546.05 857.08
  Q 580.98 836.76 612.93 818.43
  Q 656.25 793.58 696.49 770.53
  C 745.66 742.37 798.58 711.40 850.72 682.17
  Q 858.52 677.80 862.07 674.11
  C 874.29 661.42 876.27 643.23 873.62 626.00
  Q 871.79 614.08 863.81 605.61
  Q 860.48 602.07 848.13 595.38
  Q 820.99 580.67 794.94 566.29
  A 1.29 1.29 0.0 0 1 794.27 565.21
  Q 794.15 562.48 794.14 559.98
  Q 793.92 465.42 794.05 371.81
  C 794.07 356.98 791.58 343.59 781.54 332.21
  Q 774.58 324.31 766.41 319.35
  Q 753.51 311.49 737.36 302.43
  Q 707.81 285.86 682.80 271.92
  C 672.33 266.09 658.11 266.77 648.64 274.31
  C 642.04 279.57 638.55 286.48 636.04 294.70
  C 634.08 301.12 632.13 307.62 629.53 313.81
  C 621.57 332.75 606.92 350.46 590.18 362.84
  A 0.45 0.44 -17.8 0 1 589.47 362.48
  Q 589.55 356.05 589.38 350.92
  C 588.92 337.34 569.37 338.47 568.86 351.36
  Q 568.65 356.77 568.47 362.48
  Q 568.45 363.25 567.79 363.63
  Q 536.48 381.57 501.33 377.87
  Q 485.17 376.16 469.30 369.82
  Q 462.15 366.96 456.80 363.70
  C 455.54 362.94 454.07 361.70 454.02 360.11
  C 453.81 353.60 455.27 345.07 447.44 342.11
  C 441.36 339.80 433.98 343.15 433.56 350.02
  Q 433.17 356.54 433.23 362.67
  A 0.18 0.18 0.0 0 1 432.94 362.82"
/>
<path stroke="#748a93" vector-effect="non-scaling-stroke" d="
  M 761.2460 290.8731
  A 12.01 11.55 114.1 0 0 776.6932 284.6262
  A 12.01 11.55 114.1 0 0 771.0540 268.9469
  A 12.01 11.55 114.1 0 0 755.6068 275.1938
  A 12.01 11.55 114.1 0 0 761.2460 290.8731"
/>
<path stroke="#748a93" vector-effect="non-scaling-stroke" d="
  M 253.6391 290.8997
  A 11.86 11.54 110.9 0 0 268.6507 283.9368
  A 11.86 11.54 110.9 0 0 262.1009 268.7403
  A 11.86 11.54 110.9 0 0 247.0893 275.7032
  A 11.86 11.54 110.9 0 0 253.6391 290.8997"
/>
<path stroke="#748a93" vector-effect="non-scaling-stroke" d="
  M 223.4334 310.8229
  A 11.65 11.49 92.0 0 0 235.3230 299.5810
  A 11.65 11.49 92.0 0 0 224.2466 287.5371
  A 11.65 11.49 92.0 0 0 212.3570 298.7790
  A 11.65 11.49 92.0 0 0 223.4334 310.8229"
/>
<path stroke="#748a93" vector-effect="non-scaling-stroke" d="
  M 795.2292 309.9316
  A 11.72 11.46 113.7 0 0 810.4335 303.8063
  A 11.72 11.46 113.7 0 0 804.6508 288.4684
  A 11.72 11.46 113.7 0 0 789.4465 294.5937
  A 11.72 11.46 113.7 0 0 795.2292 309.9316"
/>
<path stroke="#748a93" vector-effect="non-scaling-stroke" d="
  M 215.47 330.86
  A 11.49 11.49 0.0 0 0 203.98 319.37
  A 11.49 11.49 0.0 0 0 192.49 330.86
  A 11.49 11.49 0.0 0 0 203.98 342.35
  A 11.49 11.49 0.0 0 0 215.47 330.86"
/>
<path stroke="#748a93" vector-effect="non-scaling-stroke" d="
  M 828.8205 323.7218
  A 11.66 11.40 -37.5 0 0 812.6301 321.7758
  A 11.66 11.40 -37.5 0 0 810.3195 337.9182
  A 11.66 11.40 -37.5 0 0 826.5099 339.8642
  A 11.66 11.40 -37.5 0 0 828.8205 323.7218"
/>
<path stroke="#748a93" vector-effect="non-scaling-stroke" d="
  M 209.31 372.45
  A 11.61 11.61 0.0 0 0 197.70 360.84
  A 11.61 11.61 0.0 0 0 186.09 372.45
  A 11.61 11.61 0.0 0 0 197.70 384.06
  A 11.61 11.61 0.0 0 0 209.31 372.45"
/>
<path stroke="#748a93" vector-effect="non-scaling-stroke" d="
  M 837.35 372.48
  A 11.58 11.58 0.0 0 0 825.77 360.90
  A 11.58 11.58 0.0 0 0 814.19 372.48
  A 11.58 11.58 0.0 0 0 825.77 384.06
  A 11.58 11.58 0.0 0 0 837.35 372.48"
/>
<path stroke="#748a93" vector-effect="non-scaling-stroke" d="
  M 198.0587 426.0329
  A 11.71 11.49 88.0 0 0 209.1330 413.9290
  A 11.71 11.49 88.0 0 0 197.2413 402.6271
  A 11.71 11.49 88.0 0 0 186.1670 414.7310
  A 11.71 11.49 88.0 0 0 198.0587 426.0329"
/>
<path stroke="#748a93" vector-effect="non-scaling-stroke" d="
  M 837.47 414.28
  A 11.62 11.62 0.0 0 0 825.85 402.66
  A 11.62 11.62 0.0 0 0 814.23 414.28
  A 11.62 11.62 0.0 0 0 825.85 425.90
  A 11.62 11.62 0.0 0 0 837.47 414.28"
/>
<path stroke="#748a93" vector-effect="non-scaling-stroke" d="
  M 192.4702 466.5022
  A 11.71 11.43 116.8 0 0 207.9523 461.2035
  A 11.71 11.43 116.8 0 0 203.0298 445.5978
  A 11.71 11.43 116.8 0 0 187.5477 450.8965
  A 11.71 11.43 116.8 0 0 192.4702 466.5022"
/>
<path stroke="#748a93" vector-effect="non-scaling-stroke" d="
  M 837.35 456.09
  A 11.57 11.57 0.0 0 0 825.78 444.52
  A 11.57 11.57 0.0 0 0 814.21 456.09
  A 11.57 11.57 0.0 0 0 825.78 467.66
  A 11.57 11.57 0.0 0 0 837.35 456.09"
/>
<path stroke="#748a93" vector-effect="non-scaling-stroke" d="
  M 195.5619 510.0261
  A 11.68 11.42 99.9 0 0 208.8199 500.4834
  A 11.68 11.42 99.9 0 0 199.5781 487.0139
  A 11.68 11.42 99.9 0 0 186.3201 496.5566
  A 11.68 11.42 99.9 0 0 195.5619 510.0261"
/>
<path stroke="#748a93" vector-effect="non-scaling-stroke" d="
  M 823.4462 509.9880
  A 11.66 11.50 102.4 0 0 837.1817 501.0695
  A 11.66 11.50 102.4 0 0 828.4538 487.2120
  A 11.66 11.50 102.4 0 0 814.7183 496.1305
  A 11.66 11.50 102.4 0 0 823.4462 509.9880"
/>
<path stroke="#748a93" vector-effect="non-scaling-stroke" d="
  M 209.16 540.50
  A 11.45 11.45 0.0 0 0 197.71 529.05
  A 11.45 11.45 0.0 0 0 186.26 540.50
  A 11.45 11.45 0.0 0 0 197.71 551.95
  A 11.45 11.45 0.0 0 0 209.16 540.50"
/>
<path stroke="#748a93" vector-effect="non-scaling-stroke" d="
  M 837.24 540.47
  A 11.47 11.47 0.0 0 0 825.77 529.00
  A 11.47 11.47 0.0 0 0 814.30 540.47
  A 11.47 11.47 0.0 0 0 825.77 551.94
  A 11.47 11.47 0.0 0 0 837.24 540.47"
/>
<path stroke="#748a93" vector-effect="non-scaling-stroke" d="
  M 595.12 235.73
  C 563.22 195.92 507.98 186.01 462.94 207.54
  C 449.17 214.12 437.56 223.63 427.97 235.48
  A 1.13 1.13 0.0 0 0 427.96 236.89
  Q 436.57 247.97 446.42 259.07
  A 0.33 0.33 0.0 0 0 446.94 259.04
  Q 450.60 253.78 454.90 248.37
  C 472.20 226.65 501.59 218.85 528.57 224.25
  C 548.53 228.25 566.10 242.11 576.59 259.57
  A 0.22 0.22 0.0 0 0 576.95 259.60
  Q 586.25 248.53 595.13 236.52
  A 0.65 0.65 0.0 0 0 595.12 235.73"
/>
<path stroke="#748a93" vector-effect="non-scaling-stroke" d="
  M 563.9741 291.1684
  A 52.48 47.78 1.8 0 0 513.0208 241.7636
  A 52.48 47.78 1.8 0 0 459.0659 287.8716
  A 52.48 47.78 1.8 0 0 510.0192 337.2764
  A 52.48 47.78 1.8 0 0 563.9741 291.1684"
/>
<path stroke="#748a93" vector-effect="non-scaling-stroke" d="
  M 539.4991 290.0901
  A 27.93 26.75 -1.6 0 0 510.8331 264.1304
  A 27.93 26.75 -1.6 0 0 483.6609 291.6499
  A 27.93 26.75 -1.6 0 0 512.3269 317.6096
  A 27.93 26.75 -1.6 0 0 539.4991 290.0901"
/>
<path stroke="#748a93" vector-effect="non-scaling-stroke" d="
  M 519.3598 290.7145
  A 7.95 7.53 -0.4 0 0 511.3574 283.2402
  A 7.95 7.53 -0.4 0 0 503.4602 290.8255
  A 7.95 7.53 -0.4 0 0 511.4626 298.2998
  A 7.95 7.53 -0.4 0 0 519.3598 290.7145"
/>
<path stroke="#748a93" vector-effect="non-scaling-stroke" d="
  M 667.74 326.55
  C 668.98 329.74 671.59 334.05 675.28 334.79
  C 688.67 337.46 691.24 318.30 679.80 314.56
  Q 668.97 311.01 661.40 318.75
  Q 658.89 321.31 658.69 324.60
  A 0.86 0.85 3.3 0 0 659.50 325.50
  L 666.85 325.90
  A 1.02 1.01 -8.4 0 1 667.74 326.55"
/>
<path stroke="#748a93" vector-effect="non-scaling-stroke" d="
  M 346.90 313.80
  C 340.91 314.21 335.99 317.93 335.54 324.07
  Q 335.16 329.26 339.41 332.88
  C 344.65 337.34 352.18 334.78 354.28 328.44
  Q 354.81 326.85 355.26 325.25"
/>
<path stroke="#36617f" vector-effect="non-scaling-stroke" d="
  M 355.26 325.25
  Q 359.63 326.12 363.68 325.41
  A 0.69 0.68 73.9 0 0 364.19 324.48
  Q 359.49 312.55 346.90 313.80"
/>
<path stroke="#a9c5d2" vector-effect="non-scaling-stroke" d="
  M 355.26 325.25
  Q 354.25 317.19 346.90 313.80"
/>
<path stroke="#36617f" vector-effect="non-scaling-stroke" d="
  M 333.71 416.10
  L 334.86 417.09
  Q 335.28 417.45 334.81 417.73
  Q 333.92 418.26 333.02 418.13
  Q 331.76 417.95 331.61 418.72"
/>
<path stroke="#748a93" vector-effect="non-scaling-stroke" d="
  M 331.61 418.72
  Q 328.75 433.56 330.27 448.55
  A 1.24 1.23 78.8 0 1 329.39 449.87
  Q 324.55 451.31 321.57 454.69
  C 317.18 459.67 317.25 468.16 320.28 473.49
  Q 324.81 481.45 334.74 481.34"
/>
<path stroke="#204c6d" vector-effect="non-scaling-stroke" d="
  M 334.74 481.34
  Q 335.61 481.57 335.81 482.16
  Q 335.89 482.40 335.65 483.30
  Q 335.47 483.99 335.58 484.70
  Q 336.86 493.07 338.78 501.24
  A 0.97 0.97 0.0 0 0 340.16 501.89
  L 349.94 497.02
  Q 350.90 496.55 350.57 495.53
  Q 347.32 485.69 346.01 475.48"
/>
<path stroke="#748a93" vector-effect="non-scaling-stroke" d="
  M 346.01 475.48
  L 348.73 471.81"
/>
<path stroke="#36617f" vector-effect="non-scaling-stroke" d="
  M 348.73 471.81
  Q 357.90 469.43 367.50 468.61
  Q 368.04 468.57 368.09 468.02
  L 369.34 455.64
  Q 369.44 454.68 368.49 454.82
  L 347.88 457.73"
/>
<path stroke="#748a93" vector-effect="non-scaling-stroke" d="
  M 347.88 457.73
  L 345.33 453.80"
/>
<path stroke="#36617f" vector-effect="non-scaling-stroke" d="
  M 345.33 453.80
  Q 344.73 451.04 344.62 448.50
  C 344.27 440.64 344.38 433.14 345.50 425.15
  Q 346.19 420.25 346.96 415.23"
/>
<path stroke="#748a93" vector-effect="non-scaling-stroke" d="
  M 346.96 415.23
  Q 360.15 405.18 350.72 389.47"
/>
<path stroke="#36617f" vector-effect="non-scaling-stroke" d="
  M 350.72 389.47
  Q 356.49 379.43 358.15 376.65
  Q 363.44 367.82 371.01 360.06"
/>
<path stroke="#748a93" vector-effect="non-scaling-stroke" d="
  M 371.01 360.06
  L 371.81 360.05"
/>
<path stroke="#36617f" vector-effect="non-scaling-stroke" d="
  M 371.81 360.05
  L 392.45 383.27"
/>
<path stroke="#748a93" vector-effect="non-scaling-stroke" d="
  M 392.45 383.27
  Q 376.85 401.45 370.78 424.75
  Q 369.59 429.32 369.69 432.65
  Q 369.71 433.19 370.09 433.59
  Q 371.55 435.11 373.47 435.67
  Q 377.69 436.90 378.69 432.25
  Q 380.72 422.75 384.26 414.82
  C 389.20 403.77 397.50 393.07 406.53 383.56
  A 1.04 1.02 47.0 0 0 406.57 382.19
  L 400.29 374.68"
/>
<path stroke="#36617f" vector-effect="non-scaling-stroke" d="
  M 400.29 374.68
  Q 389.74 363.47 380.44 350.83"
/>
<path stroke="#748a93" vector-effect="non-scaling-stroke" d="
  M 380.44 350.83
  Q 382.50 347.21 385.77 345.45
  A 0.50 0.49 -31.0 0 0 385.95 344.74
  L 379.72 335.26
  A 0.71 0.71 0.0 0 0 378.71 335.08
  C 361.50 347.56 349.09 365.00 339.82 383.83
  Q 339.54 384.39 338.93 384.47
  Q 326.93 386.02 324.00 396.00
  C 321.53 404.45 325.62 412.55 333.71 416.10"
/>
<path stroke="#a9c5d2" vector-effect="non-scaling-stroke" d="
  M 380.44 350.83
  Q 375.29 354.51 371.81 360.05"
/>
<path stroke="#a9c5d2" vector-effect="non-scaling-stroke" d="
  M 371.01 360.06
  L 364.51 354.37
  A 0.52 0.52 0.0 0 0 363.76 354.45
  Q 358.31 361.55 352.90 368.44
  C 349.02 373.40 346.12 379.26 343.11 384.85
  A 0.53 0.52 -62.7 0 0 343.33 385.56
  L 350.72 389.47"
/>
<path stroke="#a9c5d2" vector-effect="non-scaling-stroke" d="
  M 346.96 415.23
  Q 340.07 417.70 333.71 416.10"
/>
<path stroke="#a9c5d2" vector-effect="non-scaling-stroke" d="
  M 400.29 374.68
  L 392.45 383.27"
/>
<path stroke="#a9c5d2" vector-effect="non-scaling-stroke" d="
  M 345.33 453.80
  Q 340.20 449.72 334.05 449.37
  A 1.41 1.41 0.0 0 1 332.72 447.96
  Q 332.67 434.47 334.03 421.50
  Q 334.30 418.97 331.61 418.72"
/>
<path stroke="#a9c5d2" vector-effect="non-scaling-stroke" d="
  M 347.88 457.73
  Q 348.92 461.63 348.76 467.00
  Q 348.68 469.52 348.73 471.81"
/>
<path stroke="#93b0c0" vector-effect="non-scaling-stroke" d="
  M 346.01 475.48
  Q 341.90 480.46 334.74 481.34"
/>
<path stroke="#36617f" vector-effect="non-scaling-stroke" d="
  M 642.48 350.46
  L 622.28 374.53"
/>
<path stroke="#748a93" vector-effect="non-scaling-stroke" d="
  M 622.28 374.53
  L 615.60 382.10
  Q 615.21 382.54 615.61 382.97
  C 627.30 395.77 637.28 408.00 642.12 424.57
  Q 643.45 429.12 645.08 433.79
  Q 646.18 436.93 649.33 435.85
  L 650.83 435.34
  Q 654.06 434.23 653.45 430.87
  Q 649.67 410.40 636.89 392.35
  Q 632.24 385.80 630.13 383.11"
/>
<path stroke="#36617f" vector-effect="non-scaling-stroke" d="
  M 630.13 383.11
  L 651.65 359.83"
/>
<path stroke="#748a93" vector-effect="non-scaling-stroke" d="
  M 651.65 359.83
  Q 652.19 359.92 652.98 360.47"
/>
<path stroke="#36617f" vector-effect="non-scaling-stroke" d="
  M 652.98 360.47
  Q 657.09 365.90 661.45 371.55
  Q 665.26 376.49 670.33 385.97
  Q 670.74 386.72 671.43 387.37
  Q 672.11 388.02 672.69 388.67"
/>
<path stroke="#748a93" vector-effect="non-scaling-stroke" d="
  M 672.69 388.67
  Q 666.76 395.71 668.32 403.75
  Q 669.62 410.51 675.56 415.09"
/>
<path stroke="#36617f" vector-effect="non-scaling-stroke" d="
  M 675.56 415.09
  Q 678.94 431.59 678.41 447.50
  Q 678.31 450.70 677.74 454.11"
/>
<path stroke="#748a93" vector-effect="non-scaling-stroke" d="
  M 677.74 454.11
  L 675.06 457.94"
/>
<path stroke="#36617f" vector-effect="non-scaling-stroke" d="
  M 675.06 457.94
  L 654.22 454.79
  Q 653.73 454.71 653.78 455.20
  L 655.26 467.99
  Q 655.32 468.46 655.79 468.50
  Q 665.24 469.18 674.75 471.75"
/>
<path stroke="#748a93" vector-effect="non-scaling-stroke" d="
  M 674.75 471.75
  L 677.96 476.54"
/>
<path stroke="#204c6d" vector-effect="non-scaling-stroke" d="
  M 677.96 476.54
  L 673.00 495.31
  A 1.21 1.21 0.0 0 0 673.60 496.69
  L 682.54 501.42
  A 1.27 1.27 0.0 0 0 684.33 500.73
  Q 687.76 491.23 688.18 481.22"
/>
<path stroke="#748a93" vector-effect="non-scaling-stroke" d="
  M 688.18 481.22
  Q 695.31 481.65 700.07 477.06
  Q 705.57 471.74 704.70 463.25
  Q 703.62 452.87 692.29 449.54"
/>
<path stroke="#36617f" vector-effect="non-scaling-stroke" d="
  M 692.29 449.54
  Q 693.48 432.55 689.84 415.92"
/>
<path stroke="#748a93" vector-effect="non-scaling-stroke" d="
  M 689.84 415.92
  Q 697.73 412.23 699.20 404.25
  C 701.03 394.29 693.99 385.39 684.07 384.49"
/>
<path stroke="#36617f" vector-effect="non-scaling-stroke" d="
  M 684.07 384.49
  Q 675.80 365.99 661.88 351.53"
/>
<path stroke="#748a93" vector-effect="non-scaling-stroke" d="
  M 661.88 351.53
  Q 653.64 342.46 644.49 335.76
  A 1.05 1.04 -54.8 0 0 643.01 336.02
  L 637.65 344.13
  A 1.61 1.60 38.2 0 0 637.90 346.20
  L 642.48 350.46"
/>
<path stroke="#a9c5d2" vector-effect="non-scaling-stroke" d="
  M 661.88 351.53
  L 652.98 360.47"
/>
<path stroke="#a9c5d2" vector-effect="non-scaling-stroke" d="
  M 651.65 359.83
  L 642.48 350.46"
/>
<path stroke="#a9c5d2" vector-effect="non-scaling-stroke" d="
  M 684.07 384.49
  Q 677.43 384.98 672.69 388.67"
/>
<path stroke="#a9c5d2" vector-effect="non-scaling-stroke" d="
  M 630.13 383.11
  L 622.28 374.53"
/>
<path stroke="#a9c5d2" vector-effect="non-scaling-stroke" d="
  M 689.84 415.92
  Q 682.99 417.96 675.56 415.09"
/>
<path stroke="#a9c5d2" vector-effect="non-scaling-stroke" d="
  M 692.29 449.54
  Q 690.46 449.83 687.50 449.79
  Q 682.64 449.72 677.74 454.11"
/>
<path stroke="#93b0c0" vector-effect="non-scaling-stroke" d="
  M 688.18 481.22
  Q 682.52 480.52 677.96 476.54"
/>
<path stroke="#a9c5d2" vector-effect="non-scaling-stroke" d="
  M 674.75 471.75
  Q 672.72 464.54 675.06 457.94"
/>
<path stroke="#36617f" vector-effect="non-scaling-stroke" d="
  M 265.36 387.87
  Q 268.02 398.30 278.40 404.17
  C 287.51 409.32 297.33 408.38 306.55 404.00
  A 0.79 0.78 77.6 0 0 307.00 403.29
  L 307.02 392.74
  A 0.51 0.50 -9.3 0 0 306.34 392.26
  Q 305.98 392.39 305.68 392.63
  Q 305.22 393.01 304.64 393.15
  C 296.40 395.25 289.15 393.87 284.55 386.13
  C 281.86 381.59 282.39 375.03 285.56 371.08
  Q 292.41 362.54 303.83 366.31"
/>
<path stroke="#204c6d" vector-effect="non-scaling-stroke" d="
  M 303.83 366.31
  Q 306.29 371.94 302.56 371.06"
/>
<path stroke="#748a93" vector-effect="non-scaling-stroke" d="
  M 302.56 371.06
  C 293.74 368.41 286.26 378.04 293.26 385.51
  Q 295.17 387.55 297.26 387.77
  Q 304.53 388.55 308.47 381.54"
/>
<path stroke="#204c6d" vector-effect="non-scaling-stroke" d="
  M 308.47 381.54
  Q 313.51 378.50 314.36 370.50
  Q 315.12 363.42 310.94 358.22"
/>
<path stroke="#36617f" vector-effect="non-scaling-stroke" d="
  M 310.94 358.22
  L 309.53 356.46"
/>
<path stroke="#748a93" vector-effect="non-scaling-stroke" d="
  M 309.53 356.46
  C 296.09 342.98 276.57 346.44 267.40 362.39
  Q 260.50 374.38 265.36 387.87"
/>
<path stroke="#a9c5d2" vector-effect="non-scaling-stroke" d="
  M 309.53 356.46
  L 309.42 356.86
  Q 309.25 357.47 308.79 357.03
  C 305.79 354.12 302.85 352.57 298.56 351.98
  Q 283.80 349.97 274.68 359.58
  Q 270.27 364.22 267.83 372.69
  Q 265.79 379.77 265.36 387.87"
/>
<path stroke="#5587ab" vector-effect="non-scaling-stroke" d="
  M 310.94 358.22
  Q 309.76 361.47 308.13 364.15
  Q 306.49 366.83 303.83 366.31"
/>
<path stroke="#93b0c0" vector-effect="non-scaling-stroke" d="
  M 308.47 381.54
  Q 309.03 374.26 302.56 371.06"
/>
<path stroke="#204c6d" vector-effect="non-scaling-stroke" d="
  M 710.59 361.81
  Q 705.24 374.78 715.79 382.51"
/>
<path stroke="#748a93" vector-effect="non-scaling-stroke" d="
  M 715.79 382.51
  Q 718.58 386.79 722.75 387.84
  Q 728.60 389.31 731.99 383.53
  C 736.26 376.24 729.31 369.84 722.00 370.56
  Q 719.49 370.80 717.55 373.17"
/>
<path stroke="#204c6d" vector-effect="non-scaling-stroke" d="
  M 717.55 373.17
  Q 717.17 371.75 718.20 370.21
  Q 718.94 369.10 719.12 368.33
  Q 719.35 367.34 719.57 366.22"
/>
<path stroke="#36617f" vector-effect="non-scaling-stroke" d="
  M 719.57 366.22
  C 727.40 362.93 736.44 366.34 739.70 374.23
  C 742.31 380.56 740.16 386.51 735.20 390.88
  Q 731.87 393.82 728.09 394.12
  Q 721.54 394.62 716.92 392.29
  Q 716.24 391.94 716.22 392.71
  L 715.96 402.95
  A 1.14 1.14 0.0 0 0 716.61 404.01
  Q 735.04 412.79 750.76 400.54
  Q 754.28 397.81 755.98 394.75
  Q 765.81 377.10 755.43 360.31"
/>
<path stroke="#748a93" vector-effect="non-scaling-stroke" d="
  M 755.43 360.31
  C 747.89 350.85 736.72 345.54 724.86 349.63
  Q 717.97 352.00 713.53 357.74
  Q 712.03 359.67 710.59 361.81"
/>
<path stroke="#a9c5d2" vector-effect="non-scaling-stroke" d="
  M 755.43 360.31
  Q 755.00 360.20 755.08 360.76
  Q 755.19 361.63 754.59 361.00
  C 745.18 351.19 730.37 348.38 719.37 356.74
  C 717.44 358.21 716.04 360.36 714.64 362.40
  Q 713.89 363.49 712.77 363.36"
/>
<path stroke="#93b0c0" vector-effect="non-scaling-stroke" d="
  M 712.77 363.36
  L 710.59 361.81"
/>
<path stroke="#5587ab" vector-effect="non-scaling-stroke" d="
  M 719.57 366.22
  Q 713.96 366.47 712.77 363.36"
/>
<path stroke="#93b0c0" vector-effect="non-scaling-stroke" d="
  M 717.55 373.17
  Q 714.95 376.32 715.79 382.51"
/>
<path stroke="#36617f" vector-effect="non-scaling-stroke" d="
  M 515.28 621.03
  L 514.97 601.72
  A 1.25 1.25 0.0 0 1 515.50 600.68
  Q 517.33 599.38 519.12 598.38
  Q 553.41 579.15 588.96 559.90
  Q 597.36 555.35 605.86 550.47
  Q 606.52 550.09 606.59 549.35
  L 606.61 549.05
  A 0.41 0.41 0.0 0 0 606.02 548.65
  C 578.49 562.63 551.77 577.59 524.70 592.23
  C 521.57 593.92 518.35 595.11 515.66 597.44
  Q 515.05 597.97 515.04 597.17
  L 514.79 576.60"
/>
<path stroke="#748a93" vector-effect="non-scaling-stroke" d="
  M 514.79 576.60
  Q 515.32 575.84 515.22 575.29"
/>
<path stroke="#36617f" vector-effect="non-scaling-stroke" d="
  M 515.22 575.29
  L 515.46 575.45
  Q 515.64 575.57 515.82 575.47
  L 595.65 531.44
  A 0.46 0.45 -30.2 0 0 595.82 530.82
  L 585.53 512.90
  A 0.88 0.88 0.0 0 0 584.35 512.57
  L 515.75 550.38
  A 0.40 0.40 0.0 0 1 515.16 550.03
  L 514.99 529.06"
/>
<path stroke="#748a93" vector-effect="non-scaling-stroke" d="
  M 514.99 529.06
  Q 515.28 528.52 515.28 528.20"
/>
<path stroke="#36617f" vector-effect="non-scaling-stroke" d="
  M 515.28 528.20
  L 574.99 495.21
  A 1.86 1.85 60.3 0 0 575.69 492.65
  L 564.14 472.89
  A 1.26 1.26 0.0 0 0 562.45 472.42
  L 515.98 497.56
  A 0.63 0.63 0.0 0 1 515.05 497.01
  L 515.06 477.44"
/>
<path stroke="#748a93" vector-effect="non-scaling-stroke" d="
  M 515.06 477.44
  Q 515.28 476.85 515.25 476.56"
/>
<path stroke="#36617f" vector-effect="non-scaling-stroke" d="
  M 515.25 476.56
  L 553.04 455.60
  A 1.31 1.31 0.0 0 0 553.54 453.79
  L 544.20 437.97
  Q 543.33 436.48 541.80 437.29
  Q 529.54 443.79 517.06 450.61
  Q 516.39 450.98 515.59 451.04
  A 0.30 0.29 88.2 0 1 515.28 450.74
  L 515.21 430.23"
/>
<path stroke="#748a93" vector-effect="non-scaling-stroke" d="
  M 515.21 430.23
  Q 515.44 429.50 515.25 429.28"
/>
<path stroke="#36617f" vector-effect="non-scaling-stroke" d="
  M 515.25 429.28
  Q 515.53 429.43 515.71 429.31
  Q 517.29 428.29 519.42 427.30
  Q 525.22 424.60 536.25 417.71
  A 0.78 0.77 60.1 0 0 536.52 416.69
  L 526.73 398.72
  Q 526.46 398.22 525.90 398.28
  L 514.91 399.44"
/>
<path stroke="#748a93" vector-effect="non-scaling-stroke" d="
  M 514.91 399.44
  L 497.70 397.69
  A 1.05 1.04 -71.9 0 0 496.69 398.21
  L 486.93 415.20
  A 1.30 1.29 -59.6 0 0 487.38 416.95
  L 494.65 421.28"
/>
<path stroke="#36617f" vector-effect="non-scaling-stroke" d="
  M 494.65 421.28
  Q 494.08 430.06 494.28 438.25
  Q 494.33 440.32 494.70 443.03"
/>
<path stroke="#748a93" vector-effect="non-scaling-stroke" d="
  M 494.70 443.03
  L 480.32 435.67
  A 0.99 0.99 0.0 0 0 479.01 436.05
  L 468.91 453.61
  A 1.27 1.27 0.0 0 0 469.42 455.37
  L 494.66 468.72"
/>
<path stroke="#36617f" vector-effect="non-scaling-stroke" d="
  M 494.66 468.72
  L 494.28 489.95"
/>
<path stroke="#748a93" vector-effect="non-scaling-stroke" d="
  M 494.28 489.95
  L 459.60 472.09
  A 0.55 0.53 -61.4 0 0 458.89 472.31
  L 447.35 492.70
  A 0.82 0.81 29.0 0 0 447.68 493.82
  L 494.73 519.44"
/>
<path stroke="#36617f" vector-effect="non-scaling-stroke" d="
  M 494.73 519.44
  Q 494.11 525.60 494.12 535.50
  Q 494.13 538.90 494.75 541.19"
/>
<path stroke="#748a93" vector-effect="non-scaling-stroke" d="
  M 494.75 541.19
  L 437.97 511.75
  A 0.69 0.68 28.1 0 0 437.06 512.02
  L 427.12 529.73
  A 1.39 1.38 28.7 0 0 427.68 531.63
  L 494.23 567.23"
/>
<path stroke="#36617f" vector-effect="non-scaling-stroke" d="
  M 494.23 567.23
  L 494.52 587.80"
/>
<path stroke="#748a93" vector-effect="non-scaling-stroke" d="
  M 494.52 587.80
  L 416.88 547.84
  Q 415.81 547.29 415.64 548.48
  Q 415.59 548.80 415.68 549.11
  Q 416.04 550.34 417.16 550.93
  Q 454.21 570.59 490.51 590.44
  Q 492.01 591.26 494.34 593.07"
/>
<path stroke="#36617f" vector-effect="non-scaling-stroke" d="
  M 494.34 593.07
  L 494.33 614.11"
/>
<path stroke="#748a93" vector-effect="non-scaling-stroke" d="
  M 494.33 614.11
  L 387.54 558.48
  Q 387.09 558.25 387.29 557.78
  Q 388.24 555.45 389.17 553.72
  Q 430.65 476.49 471.12 399.86
  Q 472.62 397.00 473.94 393.99
  A 0.58 0.58 0.0 0 0 473.60 393.21
  Q 463.54 389.59 453.28 384.26
  A 0.62 0.62 0.0 0 0 452.43 384.55
  Q 450.45 388.89 448.00 393.26
  Q 440.70 406.26 433.97 418.71
  Q 408.01 466.73 380.49 517.54
  Q 375.96 525.90 370.66 535.52
  Q 364.78 546.22 363.92 550.75
  C 361.55 563.41 367.60 574.44 378.79 580.44
  C 419.89 602.48 459.09 622.43 498.88 644.09
  Q 507.02 648.53 517.31 647.21
  C 521.73 646.65 526.63 644.47 530.62 642.28
  Q 588.56 610.67 646.72 579.23
  C 651.81 576.47 655.84 571.26 657.90 565.81
  C 661.59 556.09 659.09 547.74 654.19 539.02
  Q 646.41 525.16 639.41 512.25
  Q 604.79 448.37 569.95 385.26
  Q 569.59 384.62 568.93 384.94
  Q 560.74 388.97 552.02 392.62
  Q 550.66 393.19 549.27 393.54
  Q 548.50 393.74 548.83 394.46
  Q 550.61 398.41 553.35 403.56
  Q 597.63 487.02 634.50 554.23
  Q 635.43 555.92 636.01 557.66
  Q 636.18 558.14 635.73 558.38
  Q 564.17 596.02 526.25 617.25
  Q 519.99 620.75 515.28 621.03"
/>
<path stroke="#a9c5d2" vector-effect="non-scaling-stroke" d="
  M 494.33 614.11
  Q 501.28 618.33 507.25 619.98
  Q 509.84 620.70 515.28 621.03"
/>
<path stroke="#a9c5d2" vector-effect="non-scaling-stroke" d="
  M 494.75 541.19
  L 514.60 551.01
  Q 515.05 551.24 515.06 551.73
  L 515.22 575.29"
/>
<path stroke="#a9c5d2" vector-effect="non-scaling-stroke" d="
  M 514.79 576.60
  Q 514.42 576.68 514.24 577.19
  A 0.30 0.29 -65.8 0 1 513.83 577.35
  L 494.23 567.23"
/>
<path stroke="#a9c5d2" vector-effect="non-scaling-stroke" d="
  M 494.52 587.80
  Q 503.22 592.57 512.01 597.02
  Q 513.96 598.00 514.32 599.02
  Q 514.83 600.46 514.27 602.11
  A 0.71 0.70 22.8 0 1 513.28 602.51
  L 494.34 593.07"
/>
<path stroke="#a9c5d2" vector-effect="non-scaling-stroke" d="
  M 514.99 529.06
  Q 514.20 529.63 513.32 529.13
  Q 504.84 524.24 494.73 519.44"
/>
<path stroke="#a9c5d2" vector-effect="non-scaling-stroke" d="
  M 515.28 528.20
  L 514.91 499.68
  A 0.79 0.78 87.6 0 0 514.07 498.90
  Q 513.02 498.98 511.79 498.42
  Q 502.56 494.27 494.28 489.95"
/>
<path stroke="#a9c5d2" vector-effect="non-scaling-stroke" d="
  M 515.06 477.44
  Q 512.86 477.82 510.55 476.64
  Q 502.92 472.79 494.66 468.72"
/>
<path stroke="#a9c5d2" vector-effect="non-scaling-stroke" d="
  M 515.25 476.56
  L 514.88 452.75
  Q 514.87 452.23 514.35 452.14
  Q 512.28 451.78 510.94 451.10
  Q 502.54 446.89 494.70 443.03"
/>
<path stroke="#a9c5d2" vector-effect="non-scaling-stroke" d="
  M 514.91 399.44
  L 515.25 429.28"
/>
<path stroke="#a9c5d2" vector-effect="non-scaling-stroke" d="
  M 515.21 430.23
  Q 514.49 430.96 513.54 430.50
  Q 504.32 426.02 494.65 421.28"
/>
<path stroke="#748a93" vector-effect="non-scaling-stroke" d="
  M 294.1310 468.5574
  A 8.84 8.59 43.7 0 0 293.6747 456.2397
  A 8.84 8.59 43.7 0 0 281.3490 456.3426
  A 8.84 8.59 43.7 0 0 281.8053 468.6603
  A 8.84 8.59 43.7 0 0 294.1310 468.5574"
/>
<path stroke="#748a93" vector-effect="non-scaling-stroke" d="
  M 743.77 462.46
  A 8.72 8.72 0.0 0 0 735.05 453.74
  A 8.72 8.72 0.0 0 0 726.33 462.46
  A 8.72 8.72 0.0 0 0 735.05 471.18
  A 8.72 8.72 0.0 0 0 743.77 462.46"
/>
<path stroke="#36617f" vector-effect="non-scaling-stroke" d="
  M 262.83 528.10
  Q 279.89 518.51 298.53 508.65
  Q 300.14 507.80 298.86 506.58
  Q 298.65 506.37 297.50 506.37
  Q 279.31 506.41 259.76 506.24
  Q 257.23 506.22 255.36 507.80
  C 252.49 510.24 253.53 522.76 253.91 525.48
  C 254.63 530.62 259.59 529.92 262.83 528.10"
/>
<path stroke="#36617f" vector-effect="non-scaling-stroke" d="
  M 725.05 506.25
  Q 724.24 506.25 723.50 506.59
  A 0.80 0.79 51.4 0 0 723.35 507.95
  Q 725.97 509.90 728.40 511.11
  Q 744.36 519.08 759.91 527.90
  C 763.29 529.82 769.15 530.64 769.56 525.09
  Q 769.98 519.50 769.42 512.73
  C 769.04 508.16 765.96 506.14 761.57 506.17
  Q 742.57 506.31 725.05 506.25"
/>
<path stroke="#36617f" vector-effect="non-scaling-stroke" d="
  M 261.64 676.61
  C 262.35 677.41 263.13 678.26 264.07 678.82
  Q 313.59 708.19 336.68 721.09
  Q 386.45 748.88 435.50 777.67"
/>
<path stroke="#748a93" vector-effect="non-scaling-stroke" d="
  M 435.50 777.67
  Q 459.66 791.87 483.98 805.66
  Q 497.97 813.59 501.75 814.73
  Q 512.21 817.85 523.61 813.94"
/>
<path stroke="#36617f" vector-effect="non-scaling-stroke" d="
  M 523.61 813.94
  Q 534.58 809.51 544.76 803.36
  Q 555.65 796.78 555.76 796.72
  Q 569.65 788.75 582.03 781.75
  C 597.08 773.24 612.01 764.34 626.91 755.78
  C 680.00 725.28 733.16 694.63 785.95 663.46
  Q 809.25 649.71 827.00 640.01
  Q 834.81 635.74 832.01 627.82"
/>
<path stroke="#748a93" vector-effect="non-scaling-stroke" d="
  M 832.01 627.82
  C 827.64 620.45 818.92 616.83 810.89 617.92
  Q 806.56 618.51 799.92 622.17
  Q 750.21 649.65 709.04 672.11
  C 706.95 673.25 705.07 674.81 704.20 677.12
  Q 702.58 681.42 700.52 685.10
  C 697.24 690.95 689.00 694.43 682.71 695.24
  Q 676.10 696.10 669.31 692.20
  Q 662.11 688.08 655.34 684.05
  A 2.97 2.97 0.0 0 0 652.49 683.95
  C 648.09 686.15 641.20 690.51 636.51 689.39
  Q 629.12 687.63 629.70 679.82
  Q 630.05 675.00 634.62 672.92
  Q 641.75 669.67 648.98 665.83
  Q 653.81 663.27 657.84 665.15
  Q 663.90 667.97 671.58 673.42
  C 676.29 676.77 683.15 679.27 685.80 671.92
  C 687.69 666.65 687.71 662.57 693.23 659.54
  Q 745.79 630.61 798.78 601.44
  Q 799.40 601.10 798.78 600.75
  Q 738.07 566.55 676.76 532.42
  C 675.38 531.65 674.14 530.66 672.89 529.72
  Q 671.14 528.41 672.25 530.29
  Q 675.00 534.88 677.09 539.74
  C 684.10 555.99 681.31 573.46 670.22 586.99
  Q 666.88 591.07 662.11 593.86
  C 655.00 598.01 647.52 601.50 640.26 605.42
  Q 593.09 630.84 546.25 656.27
  C 540.94 659.15 532.79 663.64 526.59 665.53
  Q 514.99 669.06 502.98 666.76
  C 497.16 665.64 491.54 662.83 486.41 660.08
  Q 447.31 639.10 376.97 602.54
  Q 372.35 600.14 367.15 597.53
  C 358.20 593.05 352.28 588.50 347.42 579.69
  C 338.00 562.62 340.97 545.86 350.80 529.94
  Q 351.61 528.63 350.30 529.44
  Q 346.07 532.05 342.11 534.25
  Q 284.88 566.04 223.38 601.46
  A 0.21 0.21 0.0 0 0 223.39 601.83
  Q 276.70 630.30 328.46 658.36
  C 332.02 660.29 334.08 661.96 335.13 665.65
  Q 336.16 669.33 337.34 672.61
  C 339.12 677.58 344.64 676.94 348.15 674.59
  Q 354.39 670.41 361.08 666.30
  C 365.42 663.63 369.29 663.33 373.83 665.70
  Q 381.28 669.57 388.28 672.54
  Q 393.19 674.62 393.79 679.63
  C 394.73 687.49 385.77 691.27 379.64 688.38
  Q 374.71 686.07 369.78 683.57
  A 3.57 3.55 41.8 0 0 366.24 683.76
  C 357.15 689.68 344.89 698.61 333.81 693.91
  Q 326.59 690.85 322.90 685.64
  C 320.25 681.87 319.60 675.05 315.63 672.61
  Q 311.64 670.17 307.49 667.98
  Q 264.72 645.40 218.90 620.32
  Q 211.23 616.12 202.47 618.72
  C 196.79 620.42 191.31 624.36 190.38 630.39
  Q 189.34 637.14 196.39 641.09
  Q 232.02 661.07 261.64 676.61"
/>
<path stroke="#a9c5d2" vector-effect="non-scaling-stroke" d="
  M 832.01 627.82
  Q 831.43 629.72 830.54 630.30
  Q 826.63 632.82 819.80 636.33
  Q 814.65 638.98 808.72 641.65
  Q 802.50 644.45 796.79 647.25
  C 767.77 661.45 740.61 675.26 708.89 691.93
  Q 699.97 696.62 692.08 700.76
  Q 666.36 714.28 637.54 729.03
  Q 615.09 740.52 587.02 755.98
  Q 564.21 768.55 532.56 785.43
  A 2.25 2.25 0.0 0 0 531.40 787.07
  Q 530.04 796.02 527.72 804.99
  Q 526.85 808.37 523.61 813.94"
/>
<path stroke="#a9c5d2" vector-effect="non-scaling-stroke" d="
  M 435.50 777.67
  L 460.47 767.82
  Q 461.77 767.31 460.52 766.68
  Q 431.58 751.98 402.20 736.67
  Q 378.23 724.18 360.78 716.75
  Q 341.62 708.60 323.19 701.09
  C 308.88 695.25 294.41 689.91 280.18 684.28
  Q 278.16 683.48 270.99 680.28
  Q 266.41 678.24 261.64 676.61"
/>
<path stroke="#36617f" vector-effect="non-scaling-stroke" d="
  M 836.0129 659.2437
  A 4.31 4.31 0.0 0 0 830.1118 657.7175
  L 803.2117 673.5629
  A 4.31 4.31 0.0 0 0 801.6856 679.4640
  L 801.7871 679.6363
  A 4.31 4.31 0.0 0 0 807.6882 681.1625
  L 834.5883 665.3171
  A 4.31 4.31 0.0 0 0 836.1144 659.4160
  L 836.0129 659.2437"
/>
<path stroke="#204c6d" vector-effect="non-scaling-stroke" d="
  M 265.1142 704.3076
  A 3.67 3.67 0.0 0 0 263.7446 699.3014
  L 245.2601 688.7580
  A 3.67 3.67 0.0 0 0 240.2539 690.1276
  L 240.0458 690.4924
  A 3.67 3.67 0.0 0 0 241.4154 695.4986
  L 259.8999 706.0420
  A 3.67 3.67 0.0 0 0 264.9061 704.6724
  L 265.1142 704.3076"
/>
<path stroke="#204c6d" vector-effect="non-scaling-stroke" d="
  M 338.9476 750.1800
  A 6.17 6.17 0.0 0 0 336.6011 741.7757
  L 292.6745 717.0244
  A 6.17 6.17 0.0 0 0 284.2702 719.3709
  L 284.1524 719.5800
  A 6.17 6.17 0.0 0 0 286.4989 727.9843
  L 330.4255 752.7356
  A 6.17 6.17 0.0 0 0 338.8298 750.3891
  L 338.9476 750.1800"
/>
<path stroke="#204c6d" vector-effect="non-scaling-stroke" d="
  M 739.3527 719.9576
  A 6.19 6.19 0.0 0 0 730.9050 717.6624
  L 687.2737 742.6502
  A 6.19 6.19 0.0 0 0 684.9785 751.0980
  L 685.1873 751.4624
  A 6.19 6.19 0.0 0 0 693.6350 753.7576
  L 737.2663 728.7698
  A 6.19 6.19 0.0 0 0 739.5615 720.3220
  L 739.3527 719.9576"
/>
<path stroke="#748a93" vector-effect="non-scaling-stroke" d="
  M 337.5559 571.9568
  A 8.75 8.75 0.0 0 0 325.6850 568.4630
  L 294.2532 585.6002
  A 8.75 8.75 0.0 0 0 290.7594 597.4711
  L 291.1041 598.1032
  A 8.75 8.75 0.0 0 0 302.9750 601.5970
  L 334.4068 584.4598
  A 8.75 8.75 0.0 0 0 337.9006 572.5889
  L 337.5559 571.9568"
/>
<path stroke="#748a93" vector-effect="non-scaling-stroke" d="
  M 731.8694 597.6333
  A 8.82 8.82 0.0 0 0 728.3060 585.6798
  L 696.6914 568.5858
  A 8.82 8.82 0.0 0 0 684.7379 572.1493
  L 684.4906 572.6067
  A 8.82 8.82 0.0 0 0 688.0540 584.5602
  L 719.6686 601.6542
  A 8.82 8.82 0.0 0 0 731.6221 598.0907
  L 731.8694 597.6333"
/>
<path stroke="#748a93" vector-effect="non-scaling-stroke" d="
  M 695.06 616.90
  A 10.45 10.45 0.0 0 0 684.61 606.45
  A 10.45 10.45 0.0 0 0 674.16 616.90
  A 10.45 10.45 0.0 0 0 684.61 627.35
  A 10.45 10.45 0.0 0 0 695.06 616.90"
/>
<path stroke="#748a93" vector-effect="non-scaling-stroke" d="
  M 348.02 616.94
  A 10.36 10.36 0.0 0 0 337.66 606.58
  A 10.36 10.36 0.0 0 0 327.30 616.94
  A 10.36 10.36 0.0 0 0 337.66 627.30
  A 10.36 10.36 0.0 0 0 348.02 616.94"
/>
<path stroke="#748a93" vector-effect="non-scaling-stroke" d="
  M 377.2888 626.3179
  A 10.52 10.23 -40.0 0 0 362.6543 625.2434
  A 10.52 10.23 -40.0 0 0 361.1712 639.8421
  A 10.52 10.23 -40.0 0 0 375.8057 640.9166
  A 10.52 10.23 -40.0 0 0 377.2888 626.3179"
/>
<path stroke="#748a93" vector-effect="non-scaling-stroke" d="
  M 664.46 633.08
  A 10.45 10.45 0.0 0 0 654.01 622.63
  A 10.45 10.45 0.0 0 0 643.56 633.08
  A 10.45 10.45 0.0 0 0 654.01 643.53
  A 10.45 10.45 0.0 0 0 664.46 633.08"
/>
<path stroke="#748a93" vector-effect="non-scaling-stroke" d="
  M 410.35 649.41
  A 10.35 10.35 0.0 0 0 400.00 639.06
  A 10.35 10.35 0.0 0 0 389.65 649.41
  A 10.35 10.35 0.0 0 0 400.00 659.76
  A 10.35 10.35 0.0 0 0 410.35 649.41"
/>
<path stroke="#748a93" vector-effect="non-scaling-stroke" d="
  M 634.21 649.34
  A 10.40 10.40 0.0 0 0 623.81 638.94
  A 10.40 10.40 0.0 0 0 613.41 649.34
  A 10.40 10.40 0.0 0 0 623.81 659.74
  A 10.40 10.40 0.0 0 0 634.21 649.34"
/>
<path stroke="#748a93" vector-effect="non-scaling-stroke" d="
  M 423.8727 673.3394
  A 10.62 10.18 134.0 0 0 438.5729 672.7716
  A 10.62 10.18 134.0 0 0 438.6273 658.0606
  A 10.62 10.18 134.0 0 0 423.9271 658.6284
  A 10.62 10.18 134.0 0 0 423.8727 673.3394"
/>
<path stroke="#748a93" vector-effect="non-scaling-stroke" d="
  M 603.61 665.69
  A 10.36 10.36 0.0 0 0 593.25 655.33
  A 10.36 10.36 0.0 0 0 582.89 665.69
  A 10.36 10.36 0.0 0 0 593.25 676.05
  A 10.36 10.36 0.0 0 0 603.61 665.69"
/>
<path stroke="#748a93" vector-effect="non-scaling-stroke" d="
  M 473.02 681.75
  A 10.33 10.33 0.0 0 0 462.69 671.42
  A 10.33 10.33 0.0 0 0 452.36 681.75
  A 10.33 10.33 0.0 0 0 462.69 692.08
  A 10.33 10.33 0.0 0 0 473.02 681.75"
/>
<path stroke="#748a93" vector-effect="non-scaling-stroke" d="
  M 571.82 681.92
  A 10.38 10.38 0.0 0 0 561.44 671.54
  A 10.38 10.38 0.0 0 0 551.06 681.92
  A 10.38 10.38 0.0 0 0 561.44 692.30
  A 10.38 10.38 0.0 0 0 571.82 681.92"
/>
<path stroke="#748a93" vector-effect="non-scaling-stroke" d="
  M 504.85 714.88
  Q 511.42 718.61 517.83 715.19
  Q 526.78 710.40 535.87 705.41
  Q 540.41 702.92 540.71 698.17
  C 541.10 691.92 534.38 686.13 528.31 689.01
  Q 521.56 692.22 514.57 696.34
  A 4.95 4.93 42.9 0 1 509.85 696.51
  Q 503.65 693.45 497.61 690.08
  Q 491.64 686.74 486.74 690.03
  C 482.97 692.55 482.30 698.36 484.28 702.04
  Q 485.62 704.54 489.02 706.30
  Q 497.10 710.47 504.85 714.88"
/>
<path stroke="#748a93" vector-effect="non-scaling-stroke" d="
  M 488.62 742.60
  Q 496.16 746.78 503.22 750.44
  C 512.21 755.09 519.68 751.84 528.09 747.13
  Q 549.49 735.14 572.22 722.53
  Q 583.29 716.39 594.51 710.00
  C 598.95 707.47 604.40 704.95 604.17 698.89
  C 603.98 693.64 599.74 689.79 594.49 690.07
  C 592.28 690.19 589.87 691.55 587.98 692.67
  Q 576.49 699.55 567.03 704.81
  Q 542.91 718.25 519.46 731.33
  Q 512.35 735.30 505.22 731.17
  Q 485.58 719.82 448.37 699.49
  Q 440.62 695.26 434.02 691.42
  C 428.27 688.07 420.89 690.09 419.62 697.14
  C 418.74 702.07 420.85 704.97 424.75 707.14
  Q 457.76 725.46 488.62 742.60"
/>
<path stroke="#748a93" vector-effect="non-scaling-stroke" d="
  M 442.62 753.59
  C 463.46 764.89 484.10 776.48 505.05 787.95
  Q 512.85 792.21 521.43 787.57
  Q 584.89 753.24 635.23 724.60
  Q 640.27 721.74 643.29 719.31
  C 647.24 716.14 647.60 709.92 644.04 706.33
  C 638.40 700.64 630.56 705.88 624.96 709.19
  Q 608.38 718.98 587.20 730.67
  Q 553.63 749.20 523.23 766.16
  C 520.81 767.51 514.77 770.74 512.10 769.89
  Q 508.43 768.71 504.96 766.81
  Q 459.00 741.62 413.81 716.86
  Q 408.47 713.93 402.41 710.37
  Q 396.16 706.69 390.82 704.52
  C 384.92 702.12 377.41 705.05 377.79 712.18
  C 378.07 717.58 380.94 719.33 385.00 721.64
  Q 413.39 737.74 442.62 753.59"
/>
</g>
<g fill="#e7eee6">
<path d="
  M 0.00 0.00
  L 1024.00 0.00
  L 1024.00 1024.00
  L 0.00 1024.00
  L 0.00 0.00
  Z
  M 564.97 160.67
  Q 576.43 165.70 589.61 174.25
  Q 591.88 175.73 594.45 176.23
  C 599.09 177.14 604.19 172.82 605.13 168.53
  Q 606.57 161.96 601.07 158.16
  Q 579.30 143.11 556.26 136.63
  C 512.16 124.24 464.28 130.88 425.91 156.00
  Q 422.87 157.99 420.57 159.99
  C 412.91 166.62 422.40 180.64 431.48 175.10
  Q 442.94 168.12 450.80 164.20
  C 485.87 146.73 528.88 144.83 564.97 160.67
  Z
  M 437.03 281.09
  A 2.78 2.77 -60.3 0 1 437.51 282.86
  Q 437.12 287.75 437.29 292.71
  C 437.82 308.03 445.47 322.51 456.16 333.74
  C 472.65 351.06 495.68 358.68 519.40 356.39
  C 547.62 353.67 571.93 336.29 582.23 309.61
  Q 586.87 297.61 585.80 284.02
  C 585.67 282.25 585.99 280.39 587.14 278.93
  Q 601.59 260.62 616.19 241.64
  C 617.84 239.50 620.91 236.25 618.90 233.25
  C 607.86 216.70 593.81 202.87 576.58 193.28
  Q 541.89 173.98 501.78 177.06
  C 474.33 179.16 446.15 189.95 425.51 208.70
  Q 413.02 220.05 403.99 233.33
  C 401.94 236.34 404.69 239.92 406.58 242.26
  Q 418.72 257.32 431.01 272.94
  Q 434.13 276.91 437.03 281.09
  Z
  M 375.21 231.48
  A 11.77 11.77 0.0 0 0 363.44 219.71
  A 11.77 11.77 0.0 0 0 351.67 231.48
  A 11.77 11.77 0.0 0 0 363.44 243.25
  A 11.77 11.77 0.0 0 0 375.21 231.48
  Z
  M 653.2556 241.6516
  A 11.87 11.62 121.4 0 0 669.3583 237.5741
  A 11.87 11.62 121.4 0 0 665.6244 221.3884
  A 11.87 11.62 121.4 0 0 649.5217 225.4659
  A 11.87 11.62 121.4 0 0 653.2556 241.6516
  Z
  M 696.0174 255.0335
  A 11.84 11.56 91.9 0 0 707.9636 243.5833
  A 11.84 11.56 91.9 0 0 696.8026 231.3665
  A 11.84 11.56 91.9 0 0 684.8564 242.8167
  A 11.84 11.56 91.9 0 0 696.0174 255.0335
  Z
  M 321.9003 253.9712
  A 11.86 11.50 115.2 0 0 337.3555 248.1365
  A 11.86 11.50 115.2 0 0 331.9997 232.5088
  A 11.86 11.50 115.2 0 0 316.5445 238.3435
  A 11.86 11.50 115.2 0 0 321.9003 253.9712
  Z
  M 205.8926 259.2202
  A 12.16 11.83 121.3 0 0 222.3182 254.9759
  A 12.16 11.83 121.3 0 0 218.5274 238.4398
  A 12.16 11.83 121.3 0 0 202.1018 242.6841
  A 12.16 11.83 121.3 0 0 205.8926 259.2202
  Z
  M 805.7860 259.6539
  A 12.17 11.92 117.1 0 0 821.9413 254.2501
  A 12.17 11.92 117.1 0 0 816.8740 237.9861
  A 12.17 11.92 117.1 0 0 800.7187 243.3899
  A 12.17 11.92 117.1 0 0 805.7860 259.6539
  Z
  M 289.5551 273.6306
  A 11.89 11.62 103.1 0 0 303.5676 264.6837
  A 11.89 11.62 103.1 0 0 294.9449 250.4694
  A 11.89 11.62 103.1 0 0 280.9324 259.4163
  A 11.89 11.62 103.1 0 0 289.5551 273.6306
  Z
  M 725.0969 272.2347
  A 11.90 11.64 121.7 0 0 741.2534 268.2265
  A 11.90 11.64 121.7 0 0 737.6031 251.9853
  A 11.90 11.64 121.7 0 0 721.4466 255.9935
  A 11.90 11.64 121.7 0 0 725.0969 272.2347
  Z
  M 432.94 362.82
  Q 424.58 356.39 417.41 349.17
  C 401.82 333.46 392.64 314.88 386.35 293.39
  C 382.16 279.05 371.96 268.75 356.46 268.07
  C 350.05 267.78 343.80 269.99 338.22 273.21
  Q 297.82 296.50 259.07 318.42
  C 244.60 326.61 233.94 339.41 230.74 355.57
  Q 229.56 361.58 229.59 374.92
  Q 229.81 468.58 229.61 556.34
  Q 229.60 560.67 229.45 565.14
  Q 229.43 565.73 228.93 566.03
  C 227.55 566.86 225.92 567.37 224.51 568.17
  Q 199.21 582.50 172.33 597.34
  Q 163.31 602.32 160.03 605.58
  C 152.99 612.60 149.35 622.80 148.93 632.78
  C 148.66 639.25 148.74 645.98 150.02 652.29
  Q 152.63 665.11 161.37 674.08
  Q 164.60 677.40 175.18 683.36
  C 271.75 737.74 363.74 790.80 458.35 845.21
  Q 472.00 853.06 486.42 861.26
  C 501.35 869.75 522.22 869.44 537.57 861.68
  Q 541.95 859.46 546.05 857.08
  Q 580.98 836.76 612.93 818.43
  Q 656.25 793.58 696.49 770.53
  C 745.66 742.37 798.58 711.40 850.72 682.17
  Q 858.52 677.80 862.07 674.11
  C 874.29 661.42 876.27 643.23 873.62 626.00
  Q 871.79 614.08 863.81 605.61
  Q 860.48 602.07 848.13 595.38
  Q 820.99 580.67 794.94 566.29
  A 1.29 1.29 0.0 0 1 794.27 565.21
  Q 794.15 562.48 794.14 559.98
  Q 793.92 465.42 794.05 371.81
  C 794.07 356.98 791.58 343.59 781.54 332.21
  Q 774.58 324.31 766.41 319.35
  Q 753.51 311.49 737.36 302.43
  Q 707.81 285.86 682.80 271.92
  C 672.33 266.09 658.11 266.77 648.64 274.31
  C 642.04 279.57 638.55 286.48 636.04 294.70
  C 634.08 301.12 632.13 307.62 629.53 313.81
  C 621.57 332.75 606.92 350.46 590.18 362.84
  A 0.45 0.44 -17.8 0 1 589.47 362.48
  Q 589.55 356.05 589.38 350.92
  C 588.92 337.34 569.37 338.47 568.86 351.36
  Q 568.65 356.77 568.47 362.48
  Q 568.45 363.25 567.79 363.63
  Q 536.48 381.57 501.33 377.87
  Q 485.17 376.16 469.30 369.82
  Q 462.15 366.96 456.80 363.70
  C 455.54 362.94 454.07 361.70 454.02 360.11
  C 453.81 353.60 455.27 345.07 447.44 342.11
  C 441.36 339.80 433.98 343.15 433.56 350.02
  Q 433.17 356.54 433.23 362.67
  A 0.18 0.18 0.0 0 1 432.94 362.82
  Z
  M 761.2460 290.8731
  A 12.01 11.55 114.1 0 0 776.6932 284.6262
  A 12.01 11.55 114.1 0 0 771.0540 268.9469
  A 12.01 11.55 114.1 0 0 755.6068 275.1938
  A 12.01 11.55 114.1 0 0 761.2460 290.8731
  Z
  M 253.6391 290.8997
  A 11.86 11.54 110.9 0 0 268.6507 283.9368
  A 11.86 11.54 110.9 0 0 262.1009 268.7403
  A 11.86 11.54 110.9 0 0 247.0893 275.7032
  A 11.86 11.54 110.9 0 0 253.6391 290.8997
  Z
  M 223.4334 310.8229
  A 11.65 11.49 92.0 0 0 235.3230 299.5810
  A 11.65 11.49 92.0 0 0 224.2466 287.5371
  A 11.65 11.49 92.0 0 0 212.3570 298.7790
  A 11.65 11.49 92.0 0 0 223.4334 310.8229
  Z
  M 795.2292 309.9316
  A 11.72 11.46 113.7 0 0 810.4335 303.8063
  A 11.72 11.46 113.7 0 0 804.6508 288.4684
  A 11.72 11.46 113.7 0 0 789.4465 294.5937
  A 11.72 11.46 113.7 0 0 795.2292 309.9316
  Z
  M 215.47 330.86
  A 11.49 11.49 0.0 0 0 203.98 319.37
  A 11.49 11.49 0.0 0 0 192.49 330.86
  A 11.49 11.49 0.0 0 0 203.98 342.35
  A 11.49 11.49 0.0 0 0 215.47 330.86
  Z
  M 828.8205 323.7218
  A 11.66 11.40 -37.5 0 0 812.6301 321.7758
  A 11.66 11.40 -37.5 0 0 810.3195 337.9182
  A 11.66 11.40 -37.5 0 0 826.5099 339.8642
  A 11.66 11.40 -37.5 0 0 828.8205 323.7218
  Z
  M 209.31 372.45
  A 11.61 11.61 0.0 0 0 197.70 360.84
  A 11.61 11.61 0.0 0 0 186.09 372.45
  A 11.61 11.61 0.0 0 0 197.70 384.06
  A 11.61 11.61 0.0 0 0 209.31 372.45
  Z
  M 837.35 372.48
  A 11.58 11.58 0.0 0 0 825.77 360.90
  A 11.58 11.58 0.0 0 0 814.19 372.48
  A 11.58 11.58 0.0 0 0 825.77 384.06
  A 11.58 11.58 0.0 0 0 837.35 372.48
  Z
  M 198.0587 426.0329
  A 11.71 11.49 88.0 0 0 209.1330 413.9290
  A 11.71 11.49 88.0 0 0 197.2413 402.6271
  A 11.71 11.49 88.0 0 0 186.1670 414.7310
  A 11.71 11.49 88.0 0 0 198.0587 426.0329
  Z
  M 837.47 414.28
  A 11.62 11.62 0.0 0 0 825.85 402.66
  A 11.62 11.62 0.0 0 0 814.23 414.28
  A 11.62 11.62 0.0 0 0 825.85 425.90
  A 11.62 11.62 0.0 0 0 837.47 414.28
  Z
  M 192.4702 466.5022
  A 11.71 11.43 116.8 0 0 207.9523 461.2035
  A 11.71 11.43 116.8 0 0 203.0298 445.5978
  A 11.71 11.43 116.8 0 0 187.5477 450.8965
  A 11.71 11.43 116.8 0 0 192.4702 466.5022
  Z
  M 837.35 456.09
  A 11.57 11.57 0.0 0 0 825.78 444.52
  A 11.57 11.57 0.0 0 0 814.21 456.09
  A 11.57 11.57 0.0 0 0 825.78 467.66
  A 11.57 11.57 0.0 0 0 837.35 456.09
  Z
  M 195.5619 510.0261
  A 11.68 11.42 99.9 0 0 208.8199 500.4834
  A 11.68 11.42 99.9 0 0 199.5781 487.0139
  A 11.68 11.42 99.9 0 0 186.3201 496.5566
  A 11.68 11.42 99.9 0 0 195.5619 510.0261
  Z
  M 823.4462 509.9880
  A 11.66 11.50 102.4 0 0 837.1817 501.0695
  A 11.66 11.50 102.4 0 0 828.4538 487.2120
  A 11.66 11.50 102.4 0 0 814.7183 496.1305
  A 11.66 11.50 102.4 0 0 823.4462 509.9880
  Z
  M 209.16 540.50
  A 11.45 11.45 0.0 0 0 197.71 529.05
  A 11.45 11.45 0.0 0 0 186.26 540.50
  A 11.45 11.45 0.0 0 0 197.71 551.95
  A 11.45 11.45 0.0 0 0 209.16 540.50
  Z
  M 837.24 540.47
  A 11.47 11.47 0.0 0 0 825.77 529.00
  A 11.47 11.47 0.0 0 0 814.30 540.47
  A 11.47 11.47 0.0 0 0 825.77 551.94
  A 11.47 11.47 0.0 0 0 837.24 540.47
  Z"
/>
<path d="
  M 462.94 207.54
  C 507.98 186.01 563.22 195.92 595.12 235.73
  A 0.65 0.65 0.0 0 1 595.13 236.52
  Q 586.25 248.53 576.95 259.60
  A 0.22 0.22 0.0 0 1 576.59 259.57
  C 566.10 242.11 548.53 228.25 528.57 224.25
  C 501.59 218.85 472.20 226.65 454.90 248.37
  Q 450.60 253.78 446.94 259.04
  A 0.33 0.33 0.0 0 1 446.42 259.07
  Q 436.57 247.97 427.96 236.89
  A 1.13 1.13 0.0 0 1 427.97 235.48
  C 437.56 223.63 449.17 214.12 462.94 207.54
  Z"
/>
<path d="
  M 563.9741 291.1684
  A 52.48 47.78 1.8 0 1 510.0192 337.2764
  A 52.48 47.78 1.8 0 1 459.0659 287.8716
  A 52.48 47.78 1.8 0 1 513.0208 241.7636
  A 52.48 47.78 1.8 0 1 563.9741 291.1684
  Z
  M 539.4991 290.0901
  A 27.93 26.75 -1.6 0 0 510.8331 264.1304
  A 27.93 26.75 -1.6 0 0 483.6609 291.6499
  A 27.93 26.75 -1.6 0 0 512.3269 317.6096
  A 27.93 26.75 -1.6 0 0 539.4991 290.0901
  Z"
/>
<ellipse cx="0.00" cy="0.00" transform="translate(511.41,290.77) rotate(-0.4)" rx="7.95" ry="7.53"/>
<path d="
  M 667.74 326.55
  A 1.02 1.01 -8.4 0 0 666.85 325.90
  L 659.50 325.50
  A 0.86 0.85 3.3 0 1 658.69 324.60
  Q 658.89 321.31 661.40 318.75
  Q 668.97 311.01 679.80 314.56
  C 691.24 318.30 688.67 337.46 675.28 334.79
  C 671.59 334.05 668.98 329.74 667.74 326.55
  Z"
/>
<path d="
  M 346.90 313.80
  Q 354.25 317.19 355.26 325.25
  Q 354.81 326.85 354.28 328.44
  C 352.18 334.78 344.65 337.34 339.41 332.88
  Q 335.16 329.26 335.54 324.07
  C 335.99 317.93 340.91 314.21 346.90 313.80
  Z"
/>
<path d="
  M 380.44 350.83
  Q 375.29 354.51 371.81 360.05
  L 371.01 360.06
  L 364.51 354.37
  A 0.52 0.52 0.0 0 0 363.76 354.45
  Q 358.31 361.55 352.90 368.44
  C 349.02 373.40 346.12 379.26 343.11 384.85
  A 0.53 0.52 -62.7 0 0 343.33 385.56
  L 350.72 389.47
  Q 360.15 405.18 346.96 415.23
  Q 340.07 417.70 333.71 416.10
  C 325.62 412.55 321.53 404.45 324.00 396.00
  Q 326.93 386.02 338.93 384.47
  Q 339.54 384.39 339.82 383.83
  C 349.09 365.00 361.50 347.56 378.71 335.08
  A 0.71 0.71 0.0 0 1 379.72 335.26
  L 385.95 344.74
  A 0.50 0.49 -31.0 0 1 385.77 345.45
  Q 382.50 347.21 380.44 350.83
  Z"
/>
<path d="
  M 661.88 351.53
  L 652.98 360.47
  Q 652.19 359.92 651.65 359.83
  L 642.48 350.46
  L 637.90 346.20
  A 1.61 1.60 38.2 0 1 637.65 344.13
  L 643.01 336.02
  A 1.05 1.04 -54.8 0 1 644.49 335.76
  Q 653.64 342.46 661.88 351.53
  Z"
/>
<path d="
  M 309.53 356.46
  L 309.42 356.86
  Q 309.25 357.47 308.79 357.03
  C 305.79 354.12 302.85 352.57 298.56 351.98
  Q 283.80 349.97 274.68 359.58
  Q 270.27 364.22 267.83 372.69
  Q 265.79 379.77 265.36 387.87
  Q 260.50 374.38 267.40 362.39
  C 276.57 346.44 296.09 342.98 309.53 356.46
  Z"
/>
<path d="
  M 755.43 360.31
  Q 755.00 360.20 755.08 360.76
  Q 755.19 361.63 754.59 361.00
  C 745.18 351.19 730.37 348.38 719.37 356.74
  C 717.44 358.21 716.04 360.36 714.64 362.40
  Q 713.89 363.49 712.77 363.36
  L 710.59 361.81
  Q 712.03 359.67 713.53 357.74
  Q 717.97 352.00 724.86 349.63
  C 736.72 345.54 747.89 350.85 755.43 360.31
  Z"
/>
<path d="
  M 302.56 371.06
  Q 309.03 374.26 308.47 381.54
  Q 304.53 388.55 297.26 387.77
  Q 295.17 387.55 293.26 385.51
  C 286.26 378.04 293.74 368.41 302.56 371.06
  Z"
/>
<path d="
  M 715.79 382.51
  Q 714.95 376.32 717.55 373.17
  Q 719.49 370.80 722.00 370.56
  C 729.31 369.84 736.26 376.24 731.99 383.53
  Q 728.60 389.31 722.75 387.84
  Q 718.58 386.79 715.79 382.51
  Z"
/>
<path d="
  M 622.28 374.53
  L 630.13 383.11
  Q 632.24 385.80 636.89 392.35
  Q 649.67 410.40 653.45 430.87
  Q 654.06 434.23 650.83 435.34
  L 649.33 435.85
  Q 646.18 436.93 645.08 433.79
  Q 643.45 429.12 642.12 424.57
  C 637.28 408.00 627.30 395.77 615.61 382.97
  Q 615.21 382.54 615.60 382.10
  L 622.28 374.53
  Z"
/>
<path d="
  M 400.29 374.68
  L 406.57 382.19
  A 1.04 1.02 47.0 0 1 406.53 383.56
  C 397.50 393.07 389.20 403.77 384.26 414.82
  Q 380.72 422.75 378.69 432.25
  Q 377.69 436.90 373.47 435.67
  Q 371.55 435.11 370.09 433.59
  Q 369.71 433.19 369.69 432.65
  Q 369.59 429.32 370.78 424.75
  Q 376.85 401.45 392.45 383.27
  L 400.29 374.68
  Z"
/>
<path d="
  M 494.33 614.11
  Q 501.28 618.33 507.25 619.98
  Q 509.84 620.70 515.28 621.03
  Q 519.99 620.75 526.25 617.25
  Q 564.17 596.02 635.73 558.38
  Q 636.18 558.14 636.01 557.66
  Q 635.43 555.92 634.50 554.23
  Q 597.63 487.02 553.35 403.56
  Q 550.61 398.41 548.83 394.46
  Q 548.50 393.74 549.27 393.54
  Q 550.66 393.19 552.02 392.62
  Q 560.74 388.97 568.93 384.94
  Q 569.59 384.62 569.95 385.26
  Q 604.79 448.37 639.41 512.25
  Q 646.41 525.16 654.19 539.02
  C 659.09 547.74 661.59 556.09 657.90 565.81
  C 655.84 571.26 651.81 576.47 646.72 579.23
  Q 588.56 610.67 530.62 642.28
  C 526.63 644.47 521.73 646.65 517.31 647.21
  Q 507.02 648.53 498.88 644.09
  C 459.09 622.43 419.89 602.48 378.79 580.44
  C 367.60 574.44 361.55 563.41 363.92 550.75
  Q 364.78 546.22 370.66 535.52
  Q 375.96 525.90 380.49 517.54
  Q 408.01 466.73 433.97 418.71
  Q 440.70 406.26 448.00 393.26
  Q 450.45 388.89 452.43 384.55
  A 0.62 0.62 0.0 0 1 453.28 384.26
  Q 463.54 389.59 473.60 393.21
  A 0.58 0.58 0.0 0 1 473.94 393.99
  Q 472.62 397.00 471.12 399.86
  Q 430.65 476.49 389.17 553.72
  Q 388.24 555.45 387.29 557.78
  Q 387.09 558.25 387.54 558.48
  L 494.33 614.11
  Z"
/>
<path d="
  M 684.07 384.49
  C 693.99 385.39 701.03 394.29 699.20 404.25
  Q 697.73 412.23 689.84 415.92
  Q 682.99 417.96 675.56 415.09
  Q 669.62 410.51 668.32 403.75
  Q 666.76 395.71 672.69 388.67
  Q 677.43 384.98 684.07 384.49
  Z"
/>
<path d="
  M 514.91 399.44
  L 515.25 429.28
  Q 515.44 429.50 515.21 430.23
  Q 514.49 430.96 513.54 430.50
  Q 504.32 426.02 494.65 421.28
  L 487.38 416.95
  A 1.30 1.29 -59.6 0 1 486.93 415.20
  L 496.69 398.21
  A 1.05 1.04 -71.9 0 1 497.70 397.69
  L 514.91 399.44
  Z"
/>
<path d="
  M 331.61 418.72
  Q 334.30 418.97 334.03 421.50
  Q 332.67 434.47 332.72 447.96
  A 1.41 1.41 0.0 0 0 334.05 449.37
  Q 340.20 449.72 345.33 453.80
  L 347.88 457.73
  Q 348.92 461.63 348.76 467.00
  Q 348.68 469.52 348.73 471.81
  L 346.01 475.48
  Q 341.90 480.46 334.74 481.34
  Q 324.81 481.45 320.28 473.49
  C 317.25 468.16 317.18 459.67 321.57 454.69
  Q 324.55 451.31 329.39 449.87
  A 1.24 1.23 78.8 0 0 330.27 448.55
  Q 328.75 433.56 331.61 418.72
  Z"
/>
<path d="
  M 494.70 443.03
  Q 502.54 446.89 510.94 451.10
  Q 512.28 451.78 514.35 452.14
  Q 514.87 452.23 514.88 452.75
  L 515.25 476.56
  Q 515.28 476.85 515.06 477.44
  Q 512.86 477.82 510.55 476.64
  Q 502.92 472.79 494.66 468.72
  L 469.42 455.37
  A 1.27 1.27 0.0 0 1 468.91 453.61
  L 479.01 436.05
  A 0.99 0.99 0.0 0 1 480.32 435.67
  L 494.70 443.03
  Z"
/>
<path d="
  M 692.29 449.54
  Q 703.62 452.87 704.70 463.25
  Q 705.57 471.74 700.07 477.06
  Q 695.31 481.65 688.18 481.22
  Q 682.52 480.52 677.96 476.54
  L 674.75 471.75
  Q 672.72 464.54 675.06 457.94
  L 677.74 454.11
  Q 682.64 449.72 687.50 449.79
  Q 690.46 449.83 692.29 449.54
  Z"
/>
<ellipse cx="0.00" cy="0.00" transform="translate(287.74,462.45) rotate(43.7)" rx="8.84" ry="8.59"/>
<circle cx="735.05" cy="462.46" r="8.72"/>
<path d="
  M 494.28 489.95
  Q 502.56 494.27 511.79 498.42
  Q 513.02 498.98 514.07 498.90
  A 0.79 0.78 87.6 0 1 514.91 499.68
  L 515.28 528.20
  Q 515.28 528.52 514.99 529.06
  Q 514.20 529.63 513.32 529.13
  Q 504.84 524.24 494.73 519.44
  L 447.68 493.82
  A 0.82 0.81 29.0 0 1 447.35 492.70
  L 458.89 472.31
  A 0.55 0.53 -61.4 0 1 459.60 472.09
  L 494.28 489.95
  Z"
/>
<path d="
  M 494.75 541.19
  L 514.60 551.01
  Q 515.05 551.24 515.06 551.73
  L 515.22 575.29
  Q 515.32 575.84 514.79 576.60
  Q 514.42 576.68 514.24 577.19
  A 0.30 0.29 -65.8 0 1 513.83 577.35
  L 494.23 567.23
  L 427.68 531.63
  A 1.39 1.38 28.7 0 1 427.12 529.73
  L 437.06 512.02
  A 0.69 0.68 28.1 0 1 437.97 511.75
  L 494.75 541.19
  Z"
/>
<path d="
  M 832.01 627.82
  Q 831.43 629.72 830.54 630.30
  Q 826.63 632.82 819.80 636.33
  Q 814.65 638.98 808.72 641.65
  Q 802.50 644.45 796.79 647.25
  C 767.77 661.45 740.61 675.26 708.89 691.93
  Q 699.97 696.62 692.08 700.76
  Q 666.36 714.28 637.54 729.03
  Q 615.09 740.52 587.02 755.98
  Q 564.21 768.55 532.56 785.43
  A 2.25 2.25 0.0 0 0 531.40 787.07
  Q 530.04 796.02 527.72 804.99
  Q 526.85 808.37 523.61 813.94
  Q 512.21 817.85 501.75 814.73
  Q 497.97 813.59 483.98 805.66
  Q 459.66 791.87 435.50 777.67
  L 460.47 767.82
  Q 461.77 767.31 460.52 766.68
  Q 431.58 751.98 402.20 736.67
  Q 378.23 724.18 360.78 716.75
  Q 341.62 708.60 323.19 701.09
  C 308.88 695.25 294.41 689.91 280.18 684.28
  Q 278.16 683.48 270.99 680.28
  Q 266.41 678.24 261.64 676.61
  Q 232.02 661.07 196.39 641.09
  Q 189.34 637.14 190.38 630.39
  C 191.31 624.36 196.79 620.42 202.47 618.72
  Q 211.23 616.12 218.90 620.32
  Q 264.72 645.40 307.49 667.98
  Q 311.64 670.17 315.63 672.61
  C 319.60 675.05 320.25 681.87 322.90 685.64
  Q 326.59 690.85 333.81 693.91
  C 344.89 698.61 357.15 689.68 366.24 683.76
  A 3.57 3.55 41.8 0 1 369.78 683.57
  Q 374.71 686.07 379.64 688.38
  C 385.77 691.27 394.73 687.49 393.79 679.63
  Q 393.19 674.62 388.28 672.54
  Q 381.28 669.57 373.83 665.70
  C 369.29 663.33 365.42 663.63 361.08 666.30
  Q 354.39 670.41 348.15 674.59
  C 344.64 676.94 339.12 677.58 337.34 672.61
  Q 336.16 669.33 335.13 665.65
  C 334.08 661.96 332.02 660.29 328.46 658.36
  Q 276.70 630.30 223.39 601.83
  A 0.21 0.21 0.0 0 1 223.38 601.46
  Q 284.88 566.04 342.11 534.25
  Q 346.07 532.05 350.30 529.44
  Q 351.61 528.63 350.80 529.94
  C 340.97 545.86 338.00 562.62 347.42 579.69
  C 352.28 588.50 358.20 593.05 367.15 597.53
  Q 372.35 600.14 376.97 602.54
  Q 447.31 639.10 486.41 660.08
  C 491.54 662.83 497.16 665.64 502.98 666.76
  Q 514.99 669.06 526.59 665.53
  C 532.79 663.64 540.94 659.15 546.25 656.27
  Q 593.09 630.84 640.26 605.42
  C 647.52 601.50 655.00 598.01 662.11 593.86
  Q 666.88 591.07 670.22 586.99
  C 681.31 573.46 684.10 555.99 677.09 539.74
  Q 675.00 534.88 672.25 530.29
  Q 671.14 528.41 672.89 529.72
  C 674.14 530.66 675.38 531.65 676.76 532.42
  Q 738.07 566.55 798.78 600.75
  Q 799.40 601.10 798.78 601.44
  Q 745.79 630.61 693.23 659.54
  C 687.71 662.57 687.69 666.65 685.80 671.92
  C 683.15 679.27 676.29 676.77 671.58 673.42
  Q 663.90 667.97 657.84 665.15
  Q 653.81 663.27 648.98 665.83
  Q 641.75 669.67 634.62 672.92
  Q 630.05 675.00 629.70 679.82
  Q 629.12 687.63 636.51 689.39
  C 641.20 690.51 648.09 686.15 652.49 683.95
  A 2.97 2.97 0.0 0 1 655.34 684.05
  Q 662.11 688.08 669.31 692.20
  Q 676.10 696.10 682.71 695.24
  C 689.00 694.43 697.24 690.95 700.52 685.10
  Q 702.58 681.42 704.20 677.12
  C 705.07 674.81 706.95 673.25 709.04 672.11
  Q 750.21 649.65 799.92 622.17
  Q 806.56 618.51 810.89 617.92
  C 818.92 616.83 827.64 620.45 832.01 627.82
  Z
  M 337.5559 571.9568
  A 8.75 8.75 0.0 0 0 325.6850 568.4630
  L 294.2532 585.6002
  A 8.75 8.75 0.0 0 0 290.7594 597.4711
  L 291.1041 598.1032
  A 8.75 8.75 0.0 0 0 302.9750 601.5970
  L 334.4068 584.4598
  A 8.75 8.75 0.0 0 0 337.9006 572.5889
  L 337.5559 571.9568
  Z
  M 731.8694 597.6333
  A 8.82 8.82 0.0 0 0 728.3060 585.6798
  L 696.6914 568.5858
  A 8.82 8.82 0.0 0 0 684.7379 572.1493
  L 684.4906 572.6067
  A 8.82 8.82 0.0 0 0 688.0540 584.5602
  L 719.6686 601.6542
  A 8.82 8.82 0.0 0 0 731.6221 598.0907
  L 731.8694 597.6333
  Z
  M 695.06 616.90
  A 10.45 10.45 0.0 0 0 684.61 606.45
  A 10.45 10.45 0.0 0 0 674.16 616.90
  A 10.45 10.45 0.0 0 0 684.61 627.35
  A 10.45 10.45 0.0 0 0 695.06 616.90
  Z
  M 348.02 616.94
  A 10.36 10.36 0.0 0 0 337.66 606.58
  A 10.36 10.36 0.0 0 0 327.30 616.94
  A 10.36 10.36 0.0 0 0 337.66 627.30
  A 10.36 10.36 0.0 0 0 348.02 616.94
  Z
  M 377.2888 626.3179
  A 10.52 10.23 -40.0 0 0 362.6543 625.2434
  A 10.52 10.23 -40.0 0 0 361.1712 639.8421
  A 10.52 10.23 -40.0 0 0 375.8057 640.9166
  A 10.52 10.23 -40.0 0 0 377.2888 626.3179
  Z
  M 664.46 633.08
  A 10.45 10.45 0.0 0 0 654.01 622.63
  A 10.45 10.45 0.0 0 0 643.56 633.08
  A 10.45 10.45 0.0 0 0 654.01 643.53
  A 10.45 10.45 0.0 0 0 664.46 633.08
  Z
  M 410.35 649.41
  A 10.35 10.35 0.0 0 0 400.00 639.06
  A 10.35 10.35 0.0 0 0 389.65 649.41
  A 10.35 10.35 0.0 0 0 400.00 659.76
  A 10.35 10.35 0.0 0 0 410.35 649.41
  Z
  M 634.21 649.34
  A 10.40 10.40 0.0 0 0 623.81 638.94
  A 10.40 10.40 0.0 0 0 613.41 649.34
  A 10.40 10.40 0.0 0 0 623.81 659.74
  A 10.40 10.40 0.0 0 0 634.21 649.34
  Z
  M 423.8727 673.3394
  A 10.62 10.18 134.0 0 0 438.5729 672.7716
  A 10.62 10.18 134.0 0 0 438.6273 658.0606
  A 10.62 10.18 134.0 0 0 423.9271 658.6284
  A 10.62 10.18 134.0 0 0 423.8727 673.3394
  Z
  M 603.61 665.69
  A 10.36 10.36 0.0 0 0 593.25 655.33
  A 10.36 10.36 0.0 0 0 582.89 665.69
  A 10.36 10.36 0.0 0 0 593.25 676.05
  A 10.36 10.36 0.0 0 0 603.61 665.69
  Z
  M 473.02 681.75
  A 10.33 10.33 0.0 0 0 462.69 671.42
  A 10.33 10.33 0.0 0 0 452.36 681.75
  A 10.33 10.33 0.0 0 0 462.69 692.08
  A 10.33 10.33 0.0 0 0 473.02 681.75
  Z
  M 571.82 681.92
  A 10.38 10.38 0.0 0 0 561.44 671.54
  A 10.38 10.38 0.0 0 0 551.06 681.92
  A 10.38 10.38 0.0 0 0 561.44 692.30
  A 10.38 10.38 0.0 0 0 571.82 681.92
  Z
  M 504.85 714.88
  Q 511.42 718.61 517.83 715.19
  Q 526.78 710.40 535.87 705.41
  Q 540.41 702.92 540.71 698.17
  C 541.10 691.92 534.38 686.13 528.31 689.01
  Q 521.56 692.22 514.57 696.34
  A 4.95 4.93 42.9 0 1 509.85 696.51
  Q 503.65 693.45 497.61 690.08
  Q 491.64 686.74 486.74 690.03
  C 482.97 692.55 482.30 698.36 484.28 702.04
  Q 485.62 704.54 489.02 706.30
  Q 497.10 710.47 504.85 714.88
  Z
  M 488.62 742.60
  Q 496.16 746.78 503.22 750.44
  C 512.21 755.09 519.68 751.84 528.09 747.13
  Q 549.49 735.14 572.22 722.53
  Q 583.29 716.39 594.51 710.00
  C 598.95 707.47 604.40 704.95 604.17 698.89
  C 603.98 693.64 599.74 689.79 594.49 690.07
  C 592.28 690.19 589.87 691.55 587.98 692.67
  Q 576.49 699.55 567.03 704.81
  Q 542.91 718.25 519.46 731.33
  Q 512.35 735.30 505.22 731.17
  Q 485.58 719.82 448.37 699.49
  Q 440.62 695.26 434.02 691.42
  C 428.27 688.07 420.89 690.09 419.62 697.14
  C 418.74 702.07 420.85 704.97 424.75 707.14
  Q 457.76 725.46 488.62 742.60
  Z
  M 442.62 753.59
  C 463.46 764.89 484.10 776.48 505.05 787.95
  Q 512.85 792.21 521.43 787.57
  Q 584.89 753.24 635.23 724.60
  Q 640.27 721.74 643.29 719.31
  C 647.24 716.14 647.60 709.92 644.04 706.33
  C 638.40 700.64 630.56 705.88 624.96 709.19
  Q 608.38 718.98 587.20 730.67
  Q 553.63 749.20 523.23 766.16
  C 520.81 767.51 514.77 770.74 512.10 769.89
  Q 508.43 768.71 504.96 766.81
  Q 459.00 741.62 413.81 716.86
  Q 408.47 713.93 402.41 710.37
  Q 396.16 706.69 390.82 704.52
  C 384.92 702.12 377.41 705.05 377.79 712.18
  C 378.07 717.58 380.94 719.33 385.00 721.64
  Q 413.39 737.74 442.62 753.59
  Z"
/>
<path d="
  M 494.52 587.80
  Q 503.22 592.57 512.01 597.02
  Q 513.96 598.00 514.32 599.02
  Q 514.83 600.46 514.27 602.11
  A 0.71 0.70 22.8 0 1 513.28 602.51
  L 494.34 593.07
  Q 492.01 591.26 490.51 590.44
  Q 454.21 570.59 417.16 550.93
  Q 416.04 550.34 415.68 549.11
  Q 415.59 548.80 415.64 548.48
  Q 415.81 547.29 416.88 547.84
  L 494.52 587.80
  Z"
/>
</g>
<g fill="#012540">
<path d="
  M 564.97 160.67
  C 528.88 144.83 485.87 146.73 450.80 164.20
  Q 442.94 168.12 431.48 175.10
  C 422.40 180.64 412.91 166.62 420.57 159.99
  Q 422.87 157.99 425.91 156.00
  C 464.28 130.88 512.16 124.24 556.26 136.63
  Q 579.30 143.11 601.07 158.16
  Q 606.57 161.96 605.13 168.53
  C 604.19 172.82 599.09 177.14 594.45 176.23
  Q 591.88 175.73 589.61 174.25
  Q 576.43 165.70 564.97 160.67
  Z"
/>
<path d="
  M 437.03 281.09
  Q 434.13 276.91 431.01 272.94
  Q 418.72 257.32 406.58 242.26
  C 404.69 239.92 401.94 236.34 403.99 233.33
  Q 413.02 220.05 425.51 208.70
  C 446.15 189.95 474.33 179.16 501.78 177.06
  Q 541.89 173.98 576.58 193.28
  C 593.81 202.87 607.86 216.70 618.90 233.25
  C 620.91 236.25 617.84 239.50 616.19 241.64
  Q 601.59 260.62 587.14 278.93
  C 585.99 280.39 585.67 282.25 585.80 284.02
  Q 586.87 297.61 582.23 309.61
  C 571.93 336.29 547.62 353.67 519.40 356.39
  C 495.68 358.68 472.65 351.06 456.16 333.74
  C 445.47 322.51 437.82 308.03 437.29 292.71
  Q 437.12 287.75 437.51 282.86
  A 2.78 2.77 -60.3 0 0 437.03 281.09
  Z
  M 595.12 235.73
  C 563.22 195.92 507.98 186.01 462.94 207.54
  C 449.17 214.12 437.56 223.63 427.97 235.48
  A 1.13 1.13 0.0 0 0 427.96 236.89
  Q 436.57 247.97 446.42 259.07
  A 0.33 0.33 0.0 0 0 446.94 259.04
  Q 450.60 253.78 454.90 248.37
  C 472.20 226.65 501.59 218.85 528.57 224.25
  C 548.53 228.25 566.10 242.11 576.59 259.57
  A 0.22 0.22 0.0 0 0 576.95 259.60
  Q 586.25 248.53 595.13 236.52
  A 0.65 0.65 0.0 0 0 595.12 235.73
  Z
  M 563.9741 291.1684
  A 52.48 47.78 1.8 0 0 513.0208 241.7636
  A 52.48 47.78 1.8 0 0 459.0659 287.8716
  A 52.48 47.78 1.8 0 0 510.0192 337.2764
  A 52.48 47.78 1.8 0 0 563.9741 291.1684
  Z"
/>
<circle cx="363.44" cy="231.48" r="11.77"/>
<ellipse cx="0.00" cy="0.00" transform="translate(659.44,231.52) rotate(121.4)" rx="11.87" ry="11.62"/>
<ellipse cx="0.00" cy="0.00" transform="translate(696.41,243.20) rotate(91.9)" rx="11.84" ry="11.56"/>
<ellipse cx="0.00" cy="0.00" transform="translate(326.95,243.24) rotate(115.2)" rx="11.86" ry="11.50"/>
<ellipse cx="0.00" cy="0.00" transform="translate(212.21,248.83) rotate(121.3)" rx="12.16" ry="11.83"/>
<ellipse cx="0.00" cy="0.00" transform="translate(811.33,248.82) rotate(117.1)" rx="12.17" ry="11.92"/>
<ellipse cx="0.00" cy="0.00" transform="translate(292.25,262.05) rotate(103.1)" rx="11.89" ry="11.62"/>
<ellipse cx="0.00" cy="0.00" transform="translate(731.35,262.11) rotate(121.7)" rx="11.90" ry="11.64"/>
<path d="
  M 539.4991 290.0901
  A 27.93 26.75 -1.6 0 1 512.3269 317.6096
  A 27.93 26.75 -1.6 0 1 483.6609 291.6499
  A 27.93 26.75 -1.6 0 1 510.8331 264.1304
  A 27.93 26.75 -1.6 0 1 539.4991 290.0901
  Z
  M 519.3598 290.7145
  A 7.95 7.53 -0.4 0 0 511.3574 283.2402
  A 7.95 7.53 -0.4 0 0 503.4602 290.8255
  A 7.95 7.53 -0.4 0 0 511.4626 298.2998
  A 7.95 7.53 -0.4 0 0 519.3598 290.7145
  Z"
/>
<path d="
  M 432.94 362.82
  A 0.18 0.18 0.0 0 0 433.23 362.67
  Q 433.17 356.54 433.56 350.02
  C 433.98 343.15 441.36 339.80 447.44 342.11
  C 455.27 345.07 453.81 353.60 454.02 360.11
  C 454.07 361.70 455.54 362.94 456.80 363.70
  Q 462.15 366.96 469.30 369.82
  Q 485.17 376.16 501.33 377.87
  Q 536.48 381.57 567.79 363.63
  Q 568.45 363.25 568.47 362.48
  Q 568.65 356.77 568.86 351.36
  C 569.37 338.47 588.92 337.34 589.38 350.92
  Q 589.55 356.05 589.47 362.48
  A 0.45 0.44 -17.8 0 0 590.18 362.84
  C 606.92 350.46 621.57 332.75 629.53 313.81
  C 632.13 307.62 634.08 301.12 636.04 294.70
  C 638.55 286.48 642.04 279.57 648.64 274.31
  C 658.11 266.77 672.33 266.09 682.80 271.92
  Q 707.81 285.86 737.36 302.43
  Q 753.51 311.49 766.41 319.35
  Q 774.58 324.31 781.54 332.21
  C 791.58 343.59 794.07 356.98 794.05 371.81
  Q 793.92 465.42 794.14 559.98
  Q 794.15 562.48 794.27 565.21
  A 1.29 1.29 0.0 0 0 794.94 566.29
  Q 820.99 580.67 848.13 595.38
  Q 860.48 602.07 863.81 605.61
  Q 871.79 614.08 873.62 626.00
  C 876.27 643.23 874.29 661.42 862.07 674.11
  Q 858.52 677.80 850.72 682.17
  C 798.58 711.40 745.66 742.37 696.49 770.53
  Q 656.25 793.58 612.93 818.43
  Q 580.98 836.76 546.05 857.08
  Q 541.95 859.46 537.57 861.68
  C 522.22 869.44 501.35 869.75 486.42 861.26
  Q 472.00 853.06 458.35 845.21
  C 363.74 790.80 271.75 737.74 175.18 683.36
  Q 164.60 677.40 161.37 674.08
  Q 152.63 665.11 150.02 652.29
  C 148.74 645.98 148.66 639.25 148.93 632.78
  C 149.35 622.80 152.99 612.60 160.03 605.58
  Q 163.31 602.32 172.33 597.34
  Q 199.21 582.50 224.51 568.17
  C 225.92 567.37 227.55 566.86 228.93 566.03
  Q 229.43 565.73 229.45 565.14
  Q 229.60 560.67 229.61 556.34
  Q 229.81 468.58 229.59 374.92
  Q 229.56 361.58 230.74 355.57
  C 233.94 339.41 244.60 326.61 259.07 318.42
  Q 297.82 296.50 338.22 273.21
  C 343.80 269.99 350.05 267.78 356.46 268.07
  C 371.96 268.75 382.16 279.05 386.35 293.39
  C 392.64 314.88 401.82 333.46 417.41 349.17
  Q 424.58 356.39 432.94 362.82
  Z
  M 667.74 326.55
  C 668.98 329.74 671.59 334.05 675.28 334.79
  C 688.67 337.46 691.24 318.30 679.80 314.56
  Q 668.97 311.01 661.40 318.75
  Q 658.89 321.31 658.69 324.60
  A 0.86 0.85 3.3 0 0 659.50 325.50
  L 666.85 325.90
  A 1.02 1.01 -8.4 0 1 667.74 326.55
  Z
  M 346.90 313.80
  C 340.91 314.21 335.99 317.93 335.54 324.07
  Q 335.16 329.26 339.41 332.88
  C 344.65 337.34 352.18 334.78 354.28 328.44
  Q 354.81 326.85 355.26 325.25
  Q 359.63 326.12 363.68 325.41
  A 0.69 0.68 73.9 0 0 364.19 324.48
  Q 359.49 312.55 346.90 313.80
  Z
  M 333.71 416.10
  L 334.86 417.09
  Q 335.28 417.45 334.81 417.73
  Q 333.92 418.26 333.02 418.13
  Q 331.76 417.95 331.61 418.72
  Q 328.75 433.56 330.27 448.55
  A 1.24 1.23 78.8 0 1 329.39 449.87
  Q 324.55 451.31 321.57 454.69
  C 317.18 459.67 317.25 468.16 320.28 473.49
  Q 324.81 481.45 334.74 481.34
  Q 335.61 481.57 335.81 482.16
  Q 335.89 482.40 335.65 483.30
  Q 335.47 483.99 335.58 484.70
  Q 336.86 493.07 338.78 501.24
  A 0.97 0.97 0.0 0 0 340.16 501.89
  L 349.94 497.02
  Q 350.90 496.55 350.57 495.53
  Q 347.32 485.69 346.01 475.48
  L 348.73 471.81
  Q 357.90 469.43 367.50 468.61
  Q 368.04 468.57 368.09 468.02
  L 369.34 455.64
  Q 369.44 454.68 368.49 454.82
  L 347.88 457.73
  L 345.33 453.80
  Q 344.73 451.04 344.62 448.50
  C 344.27 440.64 344.38 433.14 345.50 425.15
  Q 346.19 420.25 346.96 415.23
  Q 360.15 405.18 350.72 389.47
  Q 356.49 379.43 358.15 376.65
  Q 363.44 367.82 371.01 360.06
  L 371.81 360.05
  L 392.45 383.27
  Q 376.85 401.45 370.78 424.75
  Q 369.59 429.32 369.69 432.65
  Q 369.71 433.19 370.09 433.59
  Q 371.55 435.11 373.47 435.67
  Q 377.69 436.90 378.69 432.25
  Q 380.72 422.75 384.26 414.82
  C 389.20 403.77 397.50 393.07 406.53 383.56
  A 1.04 1.02 47.0 0 0 406.57 382.19
  L 400.29 374.68
  Q 389.74 363.47 380.44 350.83
  Q 382.50 347.21 385.77 345.45
  A 0.50 0.49 -31.0 0 0 385.95 344.74
  L 379.72 335.26
  A 0.71 0.71 0.0 0 0 378.71 335.08
  C 361.50 347.56 349.09 365.00 339.82 383.83
  Q 339.54 384.39 338.93 384.47
  Q 326.93 386.02 324.00 396.00
  C 321.53 404.45 325.62 412.55 333.71 416.10
  Z
  M 642.48 350.46
  L 622.28 374.53
  L 615.60 382.10
  Q 615.21 382.54 615.61 382.97
  C 627.30 395.77 637.28 408.00 642.12 424.57
  Q 643.45 429.12 645.08 433.79
  Q 646.18 436.93 649.33 435.85
  L 650.83 435.34
  Q 654.06 434.23 653.45 430.87
  Q 649.67 410.40 636.89 392.35
  Q 632.24 385.80 630.13 383.11
  L 651.65 359.83
  Q 652.19 359.92 652.98 360.47
  Q 657.09 365.90 661.45 371.55
  Q 665.26 376.49 670.33 385.97
  Q 670.74 386.72 671.43 387.37
  Q 672.11 388.02 672.69 388.67
  Q 666.76 395.71 668.32 403.75
  Q 669.62 410.51 675.56 415.09
  Q 678.94 431.59 678.41 447.50
  Q 678.31 450.70 677.74 454.11
  L 675.06 457.94
  L 654.22 454.79
  Q 653.73 454.71 653.78 455.20
  L 655.26 467.99
  Q 655.32 468.46 655.79 468.50
  Q 665.24 469.18 674.75 471.75
  L 677.96 476.54
  L 673.00 495.31
  A 1.21 1.21 0.0 0 0 673.60 496.69
  L 682.54 501.42
  A 1.27 1.27 0.0 0 0 684.33 500.73
  Q 687.76 491.23 688.18 481.22
  Q 695.31 481.65 700.07 477.06
  Q 705.57 471.74 704.70 463.25
  Q 703.62 452.87 692.29 449.54
  Q 693.48 432.55 689.84 415.92
  Q 697.73 412.23 699.20 404.25
  C 701.03 394.29 693.99 385.39 684.07 384.49
  Q 675.80 365.99 661.88 351.53
  Q 653.64 342.46 644.49 335.76
  A 1.05 1.04 -54.8 0 0 643.01 336.02
  L 637.65 344.13
  A 1.61 1.60 38.2 0 0 637.90 346.20
  L 642.48 350.46
  Z
  M 265.36 387.87
  Q 268.02 398.30 278.40 404.17
  C 287.51 409.32 297.33 408.38 306.55 404.00
  A 0.79 0.78 77.6 0 0 307.00 403.29
  L 307.02 392.74
  A 0.51 0.50 -9.3 0 0 306.34 392.26
  Q 305.98 392.39 305.68 392.63
  Q 305.22 393.01 304.64 393.15
  C 296.40 395.25 289.15 393.87 284.55 386.13
  C 281.86 381.59 282.39 375.03 285.56 371.08
  Q 292.41 362.54 303.83 366.31
  Q 306.29 371.94 302.56 371.06
  C 293.74 368.41 286.26 378.04 293.26 385.51
  Q 295.17 387.55 297.26 387.77
  Q 304.53 388.55 308.47 381.54
  Q 313.51 378.50 314.36 370.50
  Q 315.12 363.42 310.94 358.22
  L 309.53 356.46
  C 296.09 342.98 276.57 346.44 267.40 362.39
  Q 260.50 374.38 265.36 387.87
  Z
  M 710.59 361.81
  Q 705.24 374.78 715.79 382.51
  Q 718.58 386.79 722.75 387.84
  Q 728.60 389.31 731.99 383.53
  C 736.26 376.24 729.31 369.84 722.00 370.56
  Q 719.49 370.80 717.55 373.17
  Q 717.17 371.75 718.20 370.21
  Q 718.94 369.10 719.12 368.33
  Q 719.35 367.34 719.57 366.22
  C 727.40 362.93 736.44 366.34 739.70 374.23
  C 742.31 380.56 740.16 386.51 735.20 390.88
  Q 731.87 393.82 728.09 394.12
  Q 721.54 394.62 716.92 392.29
  Q 716.24 391.94 716.22 392.71
  L 715.96 402.95
  A 1.14 1.14 0.0 0 0 716.61 404.01
  Q 735.04 412.79 750.76 400.54
  Q 754.28 397.81 755.98 394.75
  Q 765.81 377.10 755.43 360.31
  C 747.89 350.85 736.72 345.54 724.86 349.63
  Q 717.97 352.00 713.53 357.74
  Q 712.03 359.67 710.59 361.81
  Z
  M 515.28 621.03
  L 514.97 601.72
  A 1.25 1.25 0.0 0 1 515.50 600.68
  Q 517.33 599.38 519.12 598.38
  Q 553.41 579.15 588.96 559.90
  Q 597.36 555.35 605.86 550.47
  Q 606.52 550.09 606.59 549.35
  L 606.61 549.05
  A 0.41 0.41 0.0 0 0 606.02 548.65
  C 578.49 562.63 551.77 577.59 524.70 592.23
  C 521.57 593.92 518.35 595.11 515.66 597.44
  Q 515.05 597.97 515.04 597.17
  L 514.79 576.60
  Q 515.32 575.84 515.22 575.29
  L 515.46 575.45
  Q 515.64 575.57 515.82 575.47
  L 595.65 531.44
  A 0.46 0.45 -30.2 0 0 595.82 530.82
  L 585.53 512.90
  A 0.88 0.88 0.0 0 0 584.35 512.57
  L 515.75 550.38
  A 0.40 0.40 0.0 0 1 515.16 550.03
  L 514.99 529.06
  Q 515.28 528.52 515.28 528.20
  L 574.99 495.21
  A 1.86 1.85 60.3 0 0 575.69 492.65
  L 564.14 472.89
  A 1.26 1.26 0.0 0 0 562.45 472.42
  L 515.98 497.56
  A 0.63 0.63 0.0 0 1 515.05 497.01
  L 515.06 477.44
  Q 515.28 476.85 515.25 476.56
  L 553.04 455.60
  A 1.31 1.31 0.0 0 0 553.54 453.79
  L 544.20 437.97
  Q 543.33 436.48 541.80 437.29
  Q 529.54 443.79 517.06 450.61
  Q 516.39 450.98 515.59 451.04
  A 0.30 0.29 88.2 0 1 515.28 450.74
  L 515.21 430.23
  Q 515.44 429.50 515.25 429.28
  Q 515.53 429.43 515.71 429.31
  Q 517.29 428.29 519.42 427.30
  Q 525.22 424.60 536.25 417.71
  A 0.78 0.77 60.1 0 0 536.52 416.69
  L 526.73 398.72
  Q 526.46 398.22 525.90 398.28
  L 514.91 399.44
  L 497.70 397.69
  A 1.05 1.04 -71.9 0 0 496.69 398.21
  L 486.93 415.20
  A 1.30 1.29 -59.6 0 0 487.38 416.95
  L 494.65 421.28
  Q 494.08 430.06 494.28 438.25
  Q 494.33 440.32 494.70 443.03
  L 480.32 435.67
  A 0.99 0.99 0.0 0 0 479.01 436.05
  L 468.91 453.61
  A 1.27 1.27 0.0 0 0 469.42 455.37
  L 494.66 468.72
  L 494.28 489.95
  L 459.60 472.09
  A 0.55 0.53 -61.4 0 0 458.89 472.31
  L 447.35 492.70
  A 0.82 0.81 29.0 0 0 447.68 493.82
  L 494.73 519.44
  Q 494.11 525.60 494.12 535.50
  Q 494.13 538.90 494.75 541.19
  L 437.97 511.75
  A 0.69 0.68 28.1 0 0 437.06 512.02
  L 427.12 529.73
  A 1.39 1.38 28.7 0 0 427.68 531.63
  L 494.23 567.23
  L 494.52 587.80
  L 416.88 547.84
  Q 415.81 547.29 415.64 548.48
  Q 415.59 548.80 415.68 549.11
  Q 416.04 550.34 417.16 550.93
  Q 454.21 570.59 490.51 590.44
  Q 492.01 591.26 494.34 593.07
  L 494.33 614.11
  L 387.54 558.48
  Q 387.09 558.25 387.29 557.78
  Q 388.24 555.45 389.17 553.72
  Q 430.65 476.49 471.12 399.86
  Q 472.62 397.00 473.94 393.99
  A 0.58 0.58 0.0 0 0 473.60 393.21
  Q 463.54 389.59 453.28 384.26
  A 0.62 0.62 0.0 0 0 452.43 384.55
  Q 450.45 388.89 448.00 393.26
  Q 440.70 406.26 433.97 418.71
  Q 408.01 466.73 380.49 517.54
  Q 375.96 525.90 370.66 535.52
  Q 364.78 546.22 363.92 550.75
  C 361.55 563.41 367.60 574.44 378.79 580.44
  C 419.89 602.48 459.09 622.43 498.88 644.09
  Q 507.02 648.53 517.31 647.21
  C 521.73 646.65 526.63 644.47 530.62 642.28
  Q 588.56 610.67 646.72 579.23
  C 651.81 576.47 655.84 571.26 657.90 565.81
  C 661.59 556.09 659.09 547.74 654.19 539.02
  Q 646.41 525.16 639.41 512.25
  Q 604.79 448.37 569.95 385.26
  Q 569.59 384.62 568.93 384.94
  Q 560.74 388.97 552.02 392.62
  Q 550.66 393.19 549.27 393.54
  Q 548.50 393.74 548.83 394.46
  Q 550.61 398.41 553.35 403.56
  Q 597.63 487.02 634.50 554.23
  Q 635.43 555.92 636.01 557.66
  Q 636.18 558.14 635.73 558.38
  Q 564.17 596.02 526.25 617.25
  Q 519.99 620.75 515.28 621.03
  Z
  M 294.1310 468.5574
  A 8.84 8.59 43.7 0 0 293.6747 456.2397
  A 8.84 8.59 43.7 0 0 281.3490 456.3426
  A 8.84 8.59 43.7 0 0 281.8053 468.6603
  A 8.84 8.59 43.7 0 0 294.1310 468.5574
  Z
  M 743.77 462.46
  A 8.72 8.72 0.0 0 0 735.05 453.74
  A 8.72 8.72 0.0 0 0 726.33 462.46
  A 8.72 8.72 0.0 0 0 735.05 471.18
  A 8.72 8.72 0.0 0 0 743.77 462.46
  Z
  M 262.83 528.10
  Q 279.89 518.51 298.53 508.65
  Q 300.14 507.80 298.86 506.58
  Q 298.65 506.37 297.50 506.37
  Q 279.31 506.41 259.76 506.24
  Q 257.23 506.22 255.36 507.80
  C 252.49 510.24 253.53 522.76 253.91 525.48
  C 254.63 530.62 259.59 529.92 262.83 528.10
  Z
  M 725.05 506.25
  Q 724.24 506.25 723.50 506.59
  A 0.80 0.79 51.4 0 0 723.35 507.95
  Q 725.97 509.90 728.40 511.11
  Q 744.36 519.08 759.91 527.90
  C 763.29 529.82 769.15 530.64 769.56 525.09
  Q 769.98 519.50 769.42 512.73
  C 769.04 508.16 765.96 506.14 761.57 506.17
  Q 742.57 506.31 725.05 506.25
  Z
  M 261.64 676.61
  C 262.35 677.41 263.13 678.26 264.07 678.82
  Q 313.59 708.19 336.68 721.09
  Q 386.45 748.88 435.50 777.67
  Q 459.66 791.87 483.98 805.66
  Q 497.97 813.59 501.75 814.73
  Q 512.21 817.85 523.61 813.94
  Q 534.58 809.51 544.76 803.36
  Q 555.65 796.78 555.76 796.72
  Q 569.65 788.75 582.03 781.75
  C 597.08 773.24 612.01 764.34 626.91 755.78
  C 680.00 725.28 733.16 694.63 785.95 663.46
  Q 809.25 649.71 827.00 640.01
  Q 834.81 635.74 832.01 627.82
  C 827.64 620.45 818.92 616.83 810.89 617.92
  Q 806.56 618.51 799.92 622.17
  Q 750.21 649.65 709.04 672.11
  C 706.95 673.25 705.07 674.81 704.20 677.12
  Q 702.58 681.42 700.52 685.10
  C 697.24 690.95 689.00 694.43 682.71 695.24
  Q 676.10 696.10 669.31 692.20
  Q 662.11 688.08 655.34 684.05
  A 2.97 2.97 0.0 0 0 652.49 683.95
  C 648.09 686.15 641.20 690.51 636.51 689.39
  Q 629.12 687.63 629.70 679.82
  Q 630.05 675.00 634.62 672.92
  Q 641.75 669.67 648.98 665.83
  Q 653.81 663.27 657.84 665.15
  Q 663.90 667.97 671.58 673.42
  C 676.29 676.77 683.15 679.27 685.80 671.92
  C 687.69 666.65 687.71 662.57 693.23 659.54
  Q 745.79 630.61 798.78 601.44
  Q 799.40 601.10 798.78 600.75
  Q 738.07 566.55 676.76 532.42
  C 675.38 531.65 674.14 530.66 672.89 529.72
  Q 671.14 528.41 672.25 530.29
  Q 675.00 534.88 677.09 539.74
  C 684.10 555.99 681.31 573.46 670.22 586.99
  Q 666.88 591.07 662.11 593.86
  C 655.00 598.01 647.52 601.50 640.26 605.42
  Q 593.09 630.84 546.25 656.27
  C 540.94 659.15 532.79 663.64 526.59 665.53
  Q 514.99 669.06 502.98 666.76
  C 497.16 665.64 491.54 662.83 486.41 660.08
  Q 447.31 639.10 376.97 602.54
  Q 372.35 600.14 367.15 597.53
  C 358.20 593.05 352.28 588.50 347.42 579.69
  C 338.00 562.62 340.97 545.86 350.80 529.94
  Q 351.61 528.63 350.30 529.44
  Q 346.07 532.05 342.11 534.25
  Q 284.88 566.04 223.38 601.46
  A 0.21 0.21 0.0 0 0 223.39 601.83
  Q 276.70 630.30 328.46 658.36
  C 332.02 660.29 334.08 661.96 335.13 665.65
  Q 336.16 669.33 337.34 672.61
  C 339.12 677.58 344.64 676.94 348.15 674.59
  Q 354.39 670.41 361.08 666.30
  C 365.42 663.63 369.29 663.33 373.83 665.70
  Q 381.28 669.57 388.28 672.54
  Q 393.19 674.62 393.79 679.63
  C 394.73 687.49 385.77 691.27 379.64 688.38
  Q 374.71 686.07 369.78 683.57
  A 3.57 3.55 41.8 0 0 366.24 683.76
  C 357.15 689.68 344.89 698.61 333.81 693.91
  Q 326.59 690.85 322.90 685.64
  C 320.25 681.87 319.60 675.05 315.63 672.61
  Q 311.64 670.17 307.49 667.98
  Q 264.72 645.40 218.90 620.32
  Q 211.23 616.12 202.47 618.72
  C 196.79 620.42 191.31 624.36 190.38 630.39
  Q 189.34 637.14 196.39 641.09
  Q 232.02 661.07 261.64 676.61
  Z
  M 836.0129 659.2437
  A 4.31 4.31 0.0 0 0 830.1118 657.7175
  L 803.2117 673.5629
  A 4.31 4.31 0.0 0 0 801.6856 679.4640
  L 801.7871 679.6363
  A 4.31 4.31 0.0 0 0 807.6882 681.1625
  L 834.5883 665.3171
  A 4.31 4.31 0.0 0 0 836.1144 659.4160
  L 836.0129 659.2437
  Z
  M 265.1142 704.3076
  A 3.67 3.67 0.0 0 0 263.7446 699.3014
  L 245.2601 688.7580
  A 3.67 3.67 0.0 0 0 240.2539 690.1276
  L 240.0458 690.4924
  A 3.67 3.67 0.0 0 0 241.4154 695.4986
  L 259.8999 706.0420
  A 3.67 3.67 0.0 0 0 264.9061 704.6724
  L 265.1142 704.3076
  Z
  M 338.9476 750.1800
  A 6.17 6.17 0.0 0 0 336.6011 741.7757
  L 292.6745 717.0244
  A 6.17 6.17 0.0 0 0 284.2702 719.3709
  L 284.1524 719.5800
  A 6.17 6.17 0.0 0 0 286.4989 727.9843
  L 330.4255 752.7356
  A 6.17 6.17 0.0 0 0 338.8298 750.3891
  L 338.9476 750.1800
  Z
  M 739.3527 719.9576
  A 6.19 6.19 0.0 0 0 730.9050 717.6624
  L 687.2737 742.6502
  A 6.19 6.19 0.0 0 0 684.9785 751.0980
  L 685.1873 751.4624
  A 6.19 6.19 0.0 0 0 693.6350 753.7576
  L 737.2663 728.7698
  A 6.19 6.19 0.0 0 0 739.5615 720.3220
  L 739.3527 719.9576
  Z"
/>
<ellipse cx="0.00" cy="0.00" transform="translate(766.15,279.91) rotate(114.1)" rx="12.01" ry="11.55"/>
<ellipse cx="0.00" cy="0.00" transform="translate(257.87,279.82) rotate(110.9)" rx="11.86" ry="11.54"/>
<ellipse cx="0.00" cy="0.00" transform="translate(223.84,299.18) rotate(92.0)" rx="11.65" ry="11.49"/>
<ellipse cx="0.00" cy="0.00" transform="translate(799.94,299.20) rotate(113.7)" rx="11.72" ry="11.46"/>
<circle cx="203.98" cy="330.86" r="11.49"/>
<ellipse cx="0.00" cy="0.00" transform="translate(819.57,330.82) rotate(-37.5)" rx="11.66" ry="11.40"/>
<circle cx="197.70" cy="372.45" r="11.61"/>
<circle cx="825.77" cy="372.48" r="11.58"/>
<ellipse cx="0.00" cy="0.00" transform="translate(197.65,414.33) rotate(88.0)" rx="11.71" ry="11.49"/>
<circle cx="825.85" cy="414.28" r="11.62"/>
<ellipse cx="0.00" cy="0.00" transform="translate(197.75,456.05) rotate(116.8)" rx="11.71" ry="11.43"/>
<circle cx="825.78" cy="456.09" r="11.57"/>
<ellipse cx="0.00" cy="0.00" transform="translate(197.57,498.52) rotate(99.9)" rx="11.68" ry="11.42"/>
<ellipse cx="0.00" cy="0.00" transform="translate(825.95,498.60) rotate(102.4)" rx="11.66" ry="11.50"/>
<circle cx="197.71" cy="540.50" r="11.45"/>
<circle cx="825.77" cy="540.47" r="11.47"/>
<rect x="-26.65" y="-9.11" transform="translate(314.33,585.03) rotate(-28.6)" width="53.30" height="18.22" rx="8.75"/>
<rect x="-26.79" y="-9.08" transform="translate(708.18,585.12) rotate(28.4)" width="53.58" height="18.16" rx="8.82"/>
<circle cx="684.61" cy="616.90" r="10.45"/>
<circle cx="337.66" cy="616.94" r="10.36"/>
<ellipse cx="0.00" cy="0.00" transform="translate(369.23,633.08) rotate(-40.0)" rx="10.52" ry="10.23"/>
<circle cx="654.01" cy="633.08" r="10.45"/>
<circle cx="400.00" cy="649.41" r="10.35"/>
<circle cx="623.81" cy="649.34" r="10.40"/>
<ellipse cx="0.00" cy="0.00" transform="translate(431.25,665.70) rotate(134.0)" rx="10.62" ry="10.18"/>
<circle cx="593.25" cy="665.69" r="10.36"/>
<circle cx="462.69" cy="681.75" r="10.33"/>
<circle cx="561.44" cy="681.92" r="10.38"/>
<path d="
  M 504.85 714.88
  Q 497.10 710.47 489.02 706.30
  Q 485.62 704.54 484.28 702.04
  C 482.30 698.36 482.97 692.55 486.74 690.03
  Q 491.64 686.74 497.61 690.08
  Q 503.65 693.45 509.85 696.51
  A 4.95 4.93 42.9 0 0 514.57 696.34
  Q 521.56 692.22 528.31 689.01
  C 534.38 686.13 541.10 691.92 540.71 698.17
  Q 540.41 702.92 535.87 705.41
  Q 526.78 710.40 517.83 715.19
  Q 511.42 718.61 504.85 714.88
  Z"
/>
<path d="
  M 488.62 742.60
  Q 457.76 725.46 424.75 707.14
  C 420.85 704.97 418.74 702.07 419.62 697.14
  C 420.89 690.09 428.27 688.07 434.02 691.42
  Q 440.62 695.26 448.37 699.49
  Q 485.58 719.82 505.22 731.17
  Q 512.35 735.30 519.46 731.33
  Q 542.91 718.25 567.03 704.81
  Q 576.49 699.55 587.98 692.67
  C 589.87 691.55 592.28 690.19 594.49 690.07
  C 599.74 689.79 603.98 693.64 604.17 698.89
  C 604.40 704.95 598.95 707.47 594.51 710.00
  Q 583.29 716.39 572.22 722.53
  Q 549.49 735.14 528.09 747.13
  C 519.68 751.84 512.21 755.09 503.22 750.44
  Q 496.16 746.78 488.62 742.60
  Z"
/>
<path d="
  M 442.62 753.59
  Q 413.39 737.74 385.00 721.64
  C 380.94 719.33 378.07 717.58 377.79 712.18
  C 377.41 705.05 384.92 702.12 390.82 704.52
  Q 396.16 706.69 402.41 710.37
  Q 408.47 713.93 413.81 716.86
  Q 459.00 741.62 504.96 766.81
  Q 508.43 768.71 512.10 769.89
  C 514.77 770.74 520.81 767.51 523.23 766.16
  Q 553.63 749.20 587.20 730.67
  Q 608.38 718.98 624.96 709.19
  C 630.56 705.88 638.40 700.64 644.04 706.33
  C 647.60 709.92 647.24 716.14 643.29 719.31
  Q 640.27 721.74 635.23 724.60
  Q 584.89 753.24 521.43 787.57
  Q 512.85 792.21 505.05 787.95
  C 484.10 776.48 463.46 764.89 442.62 753.59
  Z"
/>
</g>
<g fill="#6b9cbd">
<path d="
  M 355.26 325.25
  Q 354.25 317.19 346.90 313.80
  Q 359.49 312.55 364.19 324.48
  A 0.69 0.68 73.9 0 1 363.68 325.41
  Q 359.63 326.12 355.26 325.25
  Z"
/>
<path d="
  M 642.48 350.46
  L 651.65 359.83
  L 630.13 383.11
  L 622.28 374.53
  L 642.48 350.46
  Z"
/>
<path d="
  M 380.44 350.83
  Q 389.74 363.47 400.29 374.68
  L 392.45 383.27
  L 371.81 360.05
  Q 375.29 354.51 380.44 350.83
  Z"
/>
<path d="
  M 661.88 351.53
  Q 675.80 365.99 684.07 384.49
  Q 677.43 384.98 672.69 388.67
  Q 672.11 388.02 671.43 387.37
  Q 670.74 386.72 670.33 385.97
  Q 665.26 376.49 661.45 371.55
  Q 657.09 365.90 652.98 360.47
  L 661.88 351.53
  Z"
/>
<path d="
  M 309.53 356.46
  L 310.94 358.22
  Q 309.76 361.47 308.13 364.15
  Q 306.49 366.83 303.83 366.31
  Q 292.41 362.54 285.56 371.08
  C 282.39 375.03 281.86 381.59 284.55 386.13
  C 289.15 393.87 296.40 395.25 304.64 393.15
  Q 305.22 393.01 305.68 392.63
  Q 305.98 392.39 306.34 392.26
  A 0.51 0.50 -9.3 0 1 307.02 392.74
  L 307.00 403.29
  A 0.79 0.78 77.6 0 1 306.55 404.00
  C 297.33 408.38 287.51 409.32 278.40 404.17
  Q 268.02 398.30 265.36 387.87
  Q 265.79 379.77 267.83 372.69
  Q 270.27 364.22 274.68 359.58
  Q 283.80 349.97 298.56 351.98
  C 302.85 352.57 305.79 354.12 308.79 357.03
  Q 309.25 357.47 309.42 356.86
  L 309.53 356.46
  Z"
/>
<path d="
  M 755.43 360.31
  Q 765.81 377.10 755.98 394.75
  Q 754.28 397.81 750.76 400.54
  Q 735.04 412.79 716.61 404.01
  A 1.14 1.14 0.0 0 1 715.96 402.95
  L 716.22 392.71
  Q 716.24 391.94 716.92 392.29
  Q 721.54 394.62 728.09 394.12
  Q 731.87 393.82 735.20 390.88
  C 740.16 386.51 742.31 380.56 739.70 374.23
  C 736.44 366.34 727.40 362.93 719.57 366.22
  Q 713.96 366.47 712.77 363.36
  Q 713.89 363.49 714.64 362.40
  C 716.04 360.36 717.44 358.21 719.37 356.74
  C 730.37 348.38 745.18 351.19 754.59 361.00
  Q 755.19 361.63 755.08 360.76
  Q 755.00 360.20 755.43 360.31
  Z"
/>
<path d="
  M 371.01 360.06
  Q 363.44 367.82 358.15 376.65
  Q 356.49 379.43 350.72 389.47
  L 343.33 385.56
  A 0.53 0.52 -62.7 0 1 343.11 384.85
  C 346.12 379.26 349.02 373.40 352.90 368.44
  Q 358.31 361.55 363.76 354.45
  A 0.52 0.52 0.0 0 1 364.51 354.37
  L 371.01 360.06
  Z"
/>
<path d="
  M 515.25 429.28
  L 514.91 399.44
  L 525.90 398.28
  Q 526.46 398.22 526.73 398.72
  L 536.52 416.69
  A 0.78 0.77 60.1 0 1 536.25 417.71
  Q 525.22 424.60 519.42 427.30
  Q 517.29 428.29 515.71 429.31
  Q 515.53 429.43 515.25 429.28
  Z"
/>
<path d="
  M 346.96 415.23
  Q 346.19 420.25 345.50 425.15
  C 344.38 433.14 344.27 440.64 344.62 448.50
  Q 344.73 451.04 345.33 453.80
  Q 340.20 449.72 334.05 449.37
  A 1.41 1.41 0.0 0 1 332.72 447.96
  Q 332.67 434.47 334.03 421.50
  Q 334.30 418.97 331.61 418.72
  Q 331.76 417.95 333.02 418.13
  Q 333.92 418.26 334.81 417.73
  Q 335.28 417.45 334.86 417.09
  L 333.71 416.10
  Q 340.07 417.70 346.96 415.23
  Z"
/>
<path d="
  M 675.56 415.09
  Q 682.99 417.96 689.84 415.92
  Q 693.48 432.55 692.29 449.54
  Q 690.46 449.83 687.50 449.79
  Q 682.64 449.72 677.74 454.11
  Q 678.31 450.70 678.41 447.50
  Q 678.94 431.59 675.56 415.09
  Z"
/>
<path d="
  M 494.65 421.28
  Q 504.32 426.02 513.54 430.50
  Q 514.49 430.96 515.21 430.23
  L 515.28 450.74
  A 0.30 0.29 88.2 0 0 515.59 451.04
  Q 516.39 450.98 517.06 450.61
  Q 529.54 443.79 541.80 437.29
  Q 543.33 436.48 544.20 437.97
  L 553.54 453.79
  A 1.31 1.31 0.0 0 1 553.04 455.60
  L 515.25 476.56
  L 514.88 452.75
  Q 514.87 452.23 514.35 452.14
  Q 512.28 451.78 510.94 451.10
  Q 502.54 446.89 494.70 443.03
  Q 494.33 440.32 494.28 438.25
  Q 494.08 430.06 494.65 421.28
  Z"
/>
<path d="
  M 348.73 471.81
  Q 348.68 469.52 348.76 467.00
  Q 348.92 461.63 347.88 457.73
  L 368.49 454.82
  Q 369.44 454.68 369.34 455.64
  L 368.09 468.02
  Q 368.04 468.57 367.50 468.61
  Q 357.90 469.43 348.73 471.81
  Z"
/>
<path d="
  M 675.06 457.94
  Q 672.72 464.54 674.75 471.75
  Q 665.24 469.18 655.79 468.50
  Q 655.32 468.46 655.26 467.99
  L 653.78 455.20
  Q 653.73 454.71 654.22 454.79
  L 675.06 457.94
  Z"
/>
<path d="
  M 494.66 468.72
  Q 502.92 472.79 510.55 476.64
  Q 512.86 477.82 515.06 477.44
  L 515.05 497.01
  A 0.63 0.63 0.0 0 0 515.98 497.56
  L 562.45 472.42
  A 1.26 1.26 0.0 0 1 564.14 472.89
  L 575.69 492.65
  A 1.86 1.85 60.3 0 1 574.99 495.21
  L 515.28 528.20
  L 514.91 499.68
  A 0.79 0.78 87.6 0 0 514.07 498.90
  Q 513.02 498.98 511.79 498.42
  Q 502.56 494.27 494.28 489.95
  L 494.66 468.72
  Z"
/>
<path d="
  M 262.83 528.10
  C 259.59 529.92 254.63 530.62 253.91 525.48
  C 253.53 522.76 252.49 510.24 255.36 507.80
  Q 257.23 506.22 259.76 506.24
  Q 279.31 506.41 297.50 506.37
  Q 298.65 506.37 298.86 506.58
  Q 300.14 507.80 298.53 508.65
  Q 279.89 518.51 262.83 528.10
  Z"
/>
<path d="
  M 725.05 506.25
  Q 742.57 506.31 761.57 506.17
  C 765.96 506.14 769.04 508.16 769.42 512.73
  Q 769.98 519.50 769.56 525.09
  C 769.15 530.64 763.29 529.82 759.91 527.90
  Q 744.36 519.08 728.40 511.11
  Q 725.97 509.90 723.35 507.95
  A 0.80 0.79 51.4 0 1 723.50 506.59
  Q 724.24 506.25 725.05 506.25
  Z"
/>
<path d="
  M 515.22 575.29
  L 515.06 551.73
  Q 515.05 551.24 514.60 551.01
  L 494.75 541.19
  Q 494.13 538.90 494.12 535.50
  Q 494.11 525.60 494.73 519.44
  Q 504.84 524.24 513.32 529.13
  Q 514.20 529.63 514.99 529.06
  L 515.16 550.03
  A 0.40 0.40 0.0 0 0 515.75 550.38
  L 584.35 512.57
  A 0.88 0.88 0.0 0 1 585.53 512.90
  L 595.82 530.82
  A 0.46 0.45 -30.2 0 1 595.65 531.44
  L 515.82 575.47
  Q 515.64 575.57 515.46 575.45
  L 515.22 575.29
  Z"
/>
<path d="
  M 515.28 621.03
  Q 509.84 620.70 507.25 619.98
  Q 501.28 618.33 494.33 614.11
  L 494.34 593.07
  L 513.28 602.51
  A 0.71 0.70 22.8 0 0 514.27 602.11
  Q 514.83 600.46 514.32 599.02
  Q 513.96 598.00 512.01 597.02
  Q 503.22 592.57 494.52 587.80
  L 494.23 567.23
  L 513.83 577.35
  A 0.30 0.29 -65.8 0 0 514.24 577.19
  Q 514.42 576.68 514.79 576.60
  L 515.04 597.17
  Q 515.05 597.97 515.66 597.44
  C 518.35 595.11 521.57 593.92 524.70 592.23
  C 551.77 577.59 578.49 562.63 606.02 548.65
  A 0.41 0.41 0.0 0 1 606.61 549.05
  L 606.59 549.35
  Q 606.52 550.09 605.86 550.47
  Q 597.36 555.35 588.96 559.90
  Q 553.41 579.15 519.12 598.38
  Q 517.33 599.38 515.50 600.68
  A 1.25 1.25 0.0 0 0 514.97 601.72
  L 515.28 621.03
  Z"
/>
<path d="
  M 832.01 627.82
  Q 834.81 635.74 827.00 640.01
  Q 809.25 649.71 785.95 663.46
  C 733.16 694.63 680.00 725.28 626.91 755.78
  C 612.01 764.34 597.08 773.24 582.03 781.75
  Q 569.65 788.75 555.76 796.72
  Q 555.65 796.78 544.76 803.36
  Q 534.58 809.51 523.61 813.94
  Q 526.85 808.37 527.72 804.99
  Q 530.04 796.02 531.40 787.07
  A 2.25 2.25 0.0 0 1 532.56 785.43
  Q 564.21 768.55 587.02 755.98
  Q 615.09 740.52 637.54 729.03
  Q 666.36 714.28 692.08 700.76
  Q 699.97 696.62 708.89 691.93
  C 740.61 675.26 767.77 661.45 796.79 647.25
  Q 802.50 644.45 808.72 641.65
  Q 814.65 638.98 819.80 636.33
  Q 826.63 632.82 830.54 630.30
  Q 831.43 629.72 832.01 627.82
  Z"
/>
<rect x="-19.92" y="-4.41" transform="translate(818.90,669.44) rotate(-30.5)" width="39.84" height="8.82" rx="4.31"/>
<path d="
  M 261.64 676.61
  Q 266.41 678.24 270.99 680.28
  Q 278.16 683.48 280.18 684.28
  C 294.41 689.91 308.88 695.25 323.19 701.09
  Q 341.62 708.60 360.78 716.75
  Q 378.23 724.18 402.20 736.67
  Q 431.58 751.98 460.52 766.68
  Q 461.77 767.31 460.47 767.82
  L 435.50 777.67
  Q 386.45 748.88 336.68 721.09
  Q 313.59 708.19 264.07 678.82
  C 263.13 678.26 262.35 677.41 261.64 676.61
  Z"
/>
</g>
<g fill="#3f7299">
<path d="
  M 310.94 358.22
  Q 315.12 363.42 314.36 370.50
  Q 313.51 378.50 308.47 381.54
  Q 309.03 374.26 302.56 371.06
  Q 306.29 371.94 303.83 366.31
  Q 306.49 366.83 308.13 364.15
  Q 309.76 361.47 310.94 358.22
  Z"
/>
<path d="
  M 710.59 361.81
  L 712.77 363.36
  Q 713.96 366.47 719.57 366.22
  Q 719.35 367.34 719.12 368.33
  Q 718.94 369.10 718.20 370.21
  Q 717.17 371.75 717.55 373.17
  Q 714.95 376.32 715.79 382.51
  Q 705.24 374.78 710.59 361.81
  Z"
/>
<path d="
  M 346.01 475.48
  Q 347.32 485.69 350.57 495.53
  Q 350.90 496.55 349.94 497.02
  L 340.16 501.89
  A 0.97 0.97 0.0 0 1 338.78 501.24
  Q 336.86 493.07 335.58 484.70
  Q 335.47 483.99 335.65 483.30
  Q 335.89 482.40 335.81 482.16
  Q 335.61 481.57 334.74 481.34
  Q 341.90 480.46 346.01 475.48
  Z"
/>
<path d="
  M 677.96 476.54
  Q 682.52 480.52 688.18 481.22
  Q 687.76 491.23 684.33 500.73
  A 1.27 1.27 0.0 0 1 682.54 501.42
  L 673.60 496.69
  A 1.21 1.21 0.0 0 1 673.00 495.31
  L 677.96 476.54
  Z"
/>
<rect x="-14.31" y="-3.88" transform="translate(252.58,697.40) rotate(29.7)" width="28.62" height="7.76" rx="3.67"/>
<rect x="-31.38" y="-6.29" transform="translate(311.55,734.88) rotate(29.4)" width="62.76" height="12.58" rx="6.17"/>
<rect x="-31.33" y="-6.40" transform="translate(712.27,735.71) rotate(-29.8)" width="62.66" height="12.80" rx="6.19"/>
</g>
</svg>
