<?xml version="1.0" encoding="UTF-8" standalone="no"?>
<svg
   version="1.1"
   viewBox="0.00 0.00 1024.00 1024.00"
   id="svg234"
   sodipodi:docname="logo.svg"
   inkscape:version="1.3.2 (091e20ef0f, 2023-11-25, custom)"
   xmlns:inkscape="http://www.inkscape.org/namespaces/inkscape"
   xmlns:sodipodi="http://sodipodi.sourceforge.net/DTD/sodipodi-0.dtd"
   xmlns="http://www.w3.org/2000/svg"
   xmlns:svg="http://www.w3.org/2000/svg">
  <defs
     id="defs234" />
  <sodipodi:namedview
     id="namedview234"
     pagecolor="#505050"
     bordercolor="#ffffff"
     borderopacity="1"
     inkscape:showpageshadow="0"
     inkscape:pageopacity="0"
     inkscape:pagecheckerboard="1"
     inkscape:deskcolor="#d1d1d1"
     inkscape:zoom="1.8662109"
     inkscape:cx="511.73208"
     inkscape:cy="511.73208"
     inkscape:window-width="3840"
     inkscape:window-height="2108"
     inkscape:window-x="1920"
     inkscape:window-y="24"
     inkscape:window-maximized="1"
     inkscape:current-layer="svg234" />
  <g
     inkscape:groupmode="layer"
     id="layer1"
     inkscape:label="background"
     style="display:none;fill:#000000;fill-opacity:1">
    <rect
       style="opacity:0.8;fill:#000000;fill-opacity:1;stroke-width:3"
       id="rect235"
       width="1021.6008"
       height="1024.1989"
       x="1.6401101"
       y="0.97790766" />
  </g>
  <g
     stroke-width="2"
     fill="none"
     stroke-linecap="butt"
     id="g157"
     style="display:inline;mix-blend-mode:normal">
    <path
       stroke="#748a93"
       vector-effect="non-scaling-stroke"
       d="m 564.97,160.67 q 11.46,5.03 24.64,13.58 2.27,1.48 4.84,1.98 c 4.64,0.91 9.74,-3.41 10.68,-7.7 q 1.44,-6.57 -4.06,-10.37 -21.77,-15.05 -44.81,-21.53 C 512.16,124.24 464.28,130.88 425.91,156 q -3.04,1.99 -5.34,3.99 c -7.66,6.63 1.83,20.65 10.91,15.11 q 11.46,-6.98 19.32,-10.9 c 35.07,-17.47 78.08,-19.37 114.17,-3.53"
       id="path1" />
    <path
       stroke="#748a93"
       vector-effect="non-scaling-stroke"
       d="m 437.03,281.09 a 2.78,2.77 -60.3 0 1 0.48,1.77 q -0.39,4.89 -0.22,9.85 c 0.53,15.32 8.18,29.8 18.87,41.03 16.49,17.32 39.52,24.94 63.24,22.65 28.22,-2.72 52.53,-20.1 62.83,-46.78 q 4.64,-12 3.57,-25.59 c -0.13,-1.77 0.19,-3.63 1.34,-5.09 q 14.45,-18.31 29.05,-37.29 c 1.65,-2.14 4.72,-5.39 2.71,-8.39 -11.04,-16.55 -25.09,-30.38 -42.32,-39.97 q -34.69,-19.3 -74.8,-16.22 c -27.45,2.1 -55.63,12.89 -76.27,31.64 q -12.49,11.35 -21.52,24.63 c -2.05,3.01 0.7,6.59 2.59,8.93 q 12.14,15.06 24.43,30.68 3.12,3.97 6.02,8.15"
       id="path2" />
    <path
       stroke="#748a93"
       vector-effect="non-scaling-stroke"
       d="m 375.21,231.48 a 11.77,11.77 0 0 0 -11.77,-11.77 11.77,11.77 0 0 0 -11.77,11.77 11.77,11.77 0 0 0 11.77,11.77 11.77,11.77 0 0 0 11.77,-11.77"
       id="path3" />
    <path
       stroke="#748a93"
       vector-effect="non-scaling-stroke"
       d="m 653.2556,241.6516 a 11.87,11.62 121.4 0 0 16.1027,-4.0775 11.87,11.62 121.4 0 0 -3.7339,-16.1857 11.87,11.62 121.4 0 0 -16.1027,4.0775 11.87,11.62 121.4 0 0 3.7339,16.1857"
       id="path4" />
    <path
       stroke="#748a93"
       vector-effect="non-scaling-stroke"
       d="m 696.0174,255.0335 a 11.84,11.56 91.9 0 0 11.9462,-11.4502 11.84,11.56 91.9 0 0 -11.161,-12.2168 11.84,11.56 91.9 0 0 -11.9462,11.4502 11.84,11.56 91.9 0 0 11.161,12.2168"
       id="path5" />
    <path
       stroke="#748a93"
       vector-effect="non-scaling-stroke"
       d="m 321.9003,253.9712 a 11.86,11.5 115.2 0 0 15.4552,-5.8347 11.86,11.5 115.2 0 0 -5.3558,-15.6277 11.86,11.5 115.2 0 0 -15.4552,5.8347 11.86,11.5 115.2 0 0 5.3558,15.6277"
       id="path6" />
    <path
       stroke="#748a93"
       vector-effect="non-scaling-stroke"
       d="m 205.8926,259.2202 a 12.16,11.83 121.3 0 0 16.4256,-4.2443 12.16,11.83 121.3 0 0 -3.7908,-16.5361 12.16,11.83 121.3 0 0 -16.4256,4.2443 12.16,11.83 121.3 0 0 3.7908,16.5361"
       id="path7" />
    <path
       stroke="#748a93"
       vector-effect="non-scaling-stroke"
       d="m 805.786,259.6539 a 12.17,11.92 117.1 0 0 16.1553,-5.4038 12.17,11.92 117.1 0 0 -5.0673,-16.264 12.17,11.92 117.1 0 0 -16.1553,5.4038 12.17,11.92 117.1 0 0 5.0673,16.264"
       id="path8" />
    <path
       stroke="#748a93"
       vector-effect="non-scaling-stroke"
       d="m 289.5551,273.6306 a 11.89,11.62 103.1 0 0 14.0125,-8.9469 11.89,11.62 103.1 0 0 -8.6227,-14.2143 11.89,11.62 103.1 0 0 -14.0125,8.9469 11.89,11.62 103.1 0 0 8.6227,14.2143"
       id="path9" />
    <path
       stroke="#748a93"
       vector-effect="non-scaling-stroke"
       d="m 725.0969,272.2347 a 11.9,11.64 121.7 0 0 16.1565,-4.0082 11.9,11.64 121.7 0 0 -3.6503,-16.2412 11.9,11.64 121.7 0 0 -16.1565,4.0082 11.9,11.64 121.7 0 0 3.6503,16.2412"
       id="path10" />
    <path
       stroke="#748a93"
       vector-effect="non-scaling-stroke"
       d="m 432.94,362.82 q -8.36,-6.43 -15.53,-13.65 c -15.59,-15.71 -24.77,-34.29 -31.06,-55.78 -4.19,-14.34 -14.39,-24.64 -29.89,-25.32 -6.41,-0.29 -12.66,1.92 -18.24,5.14 q -40.4,23.29 -79.15,45.21 c -14.47,8.19 -25.13,20.99 -28.33,37.15 q -1.18,6.01 -1.15,19.35 0.22,93.66 0.02,181.42 -0.01,4.33 -0.16,8.8 -0.02,0.59 -0.52,0.89 c -1.38,0.83 -3.01,1.34 -4.42,2.14 q -25.3,14.33 -52.18,29.17 -9.02,4.98 -12.3,8.24 c -7.04,7.02 -10.68,17.22 -11.1,27.2 -0.27,6.47 -0.19,13.2 1.09,19.51 q 2.61,12.82 11.35,21.79 3.23,3.32 13.81,9.28 c 96.57,54.38 188.56,107.44 283.17,161.85 q 13.65,7.85 28.07,16.05 c 14.93,8.49 35.8,8.18 51.15,0.42 q 4.38,-2.22 8.48,-4.6 34.93,-20.32 66.88,-38.65 43.32,-24.85 83.56,-47.9 c 49.17,-28.16 102.09,-59.13 154.23,-88.36 q 7.8,-4.37 11.35,-8.06 c 12.22,-12.69 14.2,-30.88 11.55,-48.11 q -1.83,-11.92 -9.81,-20.39 -3.33,-3.54 -15.68,-10.23 -27.14,-14.71 -53.19,-29.09 a 1.29,1.29 0 0 1 -0.67,-1.08 q -0.12,-2.73 -0.13,-5.23 -0.22,-94.56 -0.09,-188.17 c 0.02,-14.83 -2.47,-28.22 -12.51,-39.6 q -6.96,-7.9 -15.13,-12.86 -12.9,-7.86 -29.05,-16.92 -29.55,-16.57 -54.56,-30.51 c -10.47,-5.83 -24.69,-5.15 -34.16,2.39 -6.6,5.26 -10.09,12.17 -12.6,20.39 -1.96,6.42 -3.91,12.92 -6.51,19.11 -7.96,18.94 -22.61,36.65 -39.35,49.03 a 0.45,0.44 -17.8 0 1 -0.71,-0.36 q 0.08,-6.43 -0.09,-11.56 c -0.46,-13.58 -20.01,-12.45 -20.52,0.44 q -0.21,5.41 -0.39,11.12 -0.02,0.77 -0.68,1.15 -31.31,17.94 -66.46,14.24 -16.16,-1.71 -32.03,-8.05 -7.15,-2.86 -12.5,-6.12 c -1.26,-0.76 -2.73,-2 -2.78,-3.59 -0.21,-6.51 1.25,-15.04 -6.58,-18 -6.08,-2.31 -13.46,1.04 -13.88,7.91 q -0.39,6.52 -0.33,12.65 a 0.18,0.18 0 0 1 -0.29,0.15"
       id="path11" />
    <path
       stroke="#748a93"
       vector-effect="non-scaling-stroke"
       d="m 761.246,290.8731 a 12.01,11.55 114.1 0 0 15.4472,-6.2469 12.01,11.55 114.1 0 0 -5.6392,-15.6793 12.01,11.55 114.1 0 0 -15.4472,6.2469 12.01,11.55 114.1 0 0 5.6392,15.6793"
       id="path12" />
    <path
       stroke="#748a93"
       vector-effect="non-scaling-stroke"
       d="m 253.6391,290.8997 a 11.86,11.54 110.9 0 0 15.0116,-6.9629 11.86,11.54 110.9 0 0 -6.5498,-15.1965 11.86,11.54 110.9 0 0 -15.0116,6.9629 11.86,11.54 110.9 0 0 6.5498,15.1965"
       id="path13" />
    <path
       stroke="#748a93"
       vector-effect="non-scaling-stroke"
       d="M 223.4334,310.8229 A 11.65,11.49 92 0 0 235.323,299.581 11.65,11.49 92 0 0 224.2466,287.5371 11.65,11.49 92 0 0 212.357,298.779 11.65,11.49 92 0 0 223.4334,310.8229"
       id="path14" />
    <path
       stroke="#748a93"
       vector-effect="non-scaling-stroke"
       d="m 795.2292,309.9316 a 11.72,11.46 113.7 0 0 15.2043,-6.1253 11.72,11.46 113.7 0 0 -5.7827,-15.3379 11.72,11.46 113.7 0 0 -15.2043,6.1253 11.72,11.46 113.7 0 0 5.7827,15.3379"
       id="path15" />
    <path
       stroke="#748a93"
       vector-effect="non-scaling-stroke"
       d="m 215.47,330.86 a 11.49,11.49 0 0 0 -11.49,-11.49 11.49,11.49 0 0 0 -11.49,11.49 11.49,11.49 0 0 0 11.49,11.49 11.49,11.49 0 0 0 11.49,-11.49"
       id="path16" />
    <path
       stroke="#748a93"
       vector-effect="non-scaling-stroke"
       d="m 828.8205,323.7218 a 11.66,11.4 -37.5 0 0 -16.1904,-1.946 11.66,11.4 -37.5 0 0 -2.3106,16.1424 11.66,11.4 -37.5 0 0 16.1904,1.946 11.66,11.4 -37.5 0 0 2.3106,-16.1424"
       id="path17" />
    <path
       stroke="#748a93"
       vector-effect="non-scaling-stroke"
       d="m 209.31,372.45 a 11.61,11.61 0 0 0 -11.61,-11.61 11.61,11.61 0 0 0 -11.61,11.61 11.61,11.61 0 0 0 11.61,11.61 11.61,11.61 0 0 0 11.61,-11.61"
       id="path18" />
    <path
       stroke="#748a93"
       vector-effect="non-scaling-stroke"
       d="m 837.35,372.48 a 11.58,11.58 0 0 0 -11.58,-11.58 11.58,11.58 0 0 0 -11.58,11.58 11.58,11.58 0 0 0 11.58,11.58 11.58,11.58 0 0 0 11.58,-11.58"
       id="path19" />
    <path
       stroke="#748a93"
       vector-effect="non-scaling-stroke"
       d="M 198.0587,426.0329 A 11.71,11.49 88 0 0 209.133,413.929 11.71,11.49 88 0 0 197.2413,402.6271 11.71,11.49 88 0 0 186.167,414.731 11.71,11.49 88 0 0 198.0587,426.0329"
       id="path20" />
    <path
       stroke="#748a93"
       vector-effect="non-scaling-stroke"
       d="m 837.47,414.28 a 11.62,11.62 0 0 0 -11.62,-11.62 11.62,11.62 0 0 0 -11.62,11.62 11.62,11.62 0 0 0 11.62,11.62 11.62,11.62 0 0 0 11.62,-11.62"
       id="path21" />
    <path
       stroke="#748a93"
       vector-effect="non-scaling-stroke"
       d="m 192.4702,466.5022 a 11.71,11.43 116.8 0 0 15.4821,-5.2987 11.71,11.43 116.8 0 0 -4.9225,-15.6057 11.71,11.43 116.8 0 0 -15.4821,5.2987 11.71,11.43 116.8 0 0 4.9225,15.6057"
       id="path22" />
    <path
       stroke="#748a93"
       vector-effect="non-scaling-stroke"
       d="m 837.35,456.09 a 11.57,11.57 0 0 0 -11.57,-11.57 11.57,11.57 0 0 0 -11.57,11.57 11.57,11.57 0 0 0 11.57,11.57 11.57,11.57 0 0 0 11.57,-11.57"
       id="path23" />
    <path
       stroke="#748a93"
       vector-effect="non-scaling-stroke"
       d="m 195.5619,510.0261 a 11.68,11.42 99.9 0 0 13.258,-9.5427 11.68,11.42 99.9 0 0 -9.2418,-13.4695 11.68,11.42 99.9 0 0 -13.258,9.5427 11.68,11.42 99.9 0 0 9.2418,13.4695"
       id="path24" />
    <path
       stroke="#748a93"
       vector-effect="non-scaling-stroke"
       d="m 823.4462,509.988 a 11.66,11.5 102.4 0 0 13.7355,-8.9185 11.66,11.5 102.4 0 0 -8.7279,-13.8575 11.66,11.5 102.4 0 0 -13.7355,8.9185 11.66,11.5 102.4 0 0 8.7279,13.8575"
       id="path25" />
    <path
       stroke="#748a93"
       vector-effect="non-scaling-stroke"
       d="m 209.16,540.5 a 11.45,11.45 0 0 0 -11.45,-11.45 11.45,11.45 0 0 0 -11.45,11.45 11.45,11.45 0 0 0 11.45,11.45 11.45,11.45 0 0 0 11.45,-11.45"
       id="path26" />
    <path
       stroke="#748a93"
       vector-effect="non-scaling-stroke"
       d="M 837.24,540.47 A 11.47,11.47 0 0 0 825.77,529 a 11.47,11.47 0 0 0 -11.47,11.47 11.47,11.47 0 0 0 11.47,11.47 11.47,11.47 0 0 0 11.47,-11.47"
       id="path27" />
    <path
       stroke="#748a93"
       vector-effect="non-scaling-stroke"
       d="m 595.12,235.73 c -31.9,-39.81 -87.14,-49.72 -132.18,-28.19 -13.77,6.58 -25.38,16.09 -34.97,27.94 a 1.13,1.13 0 0 0 -0.01,1.41 q 8.61,11.08 18.46,22.18 a 0.33,0.33 0 0 0 0.52,-0.03 q 3.66,-5.26 7.96,-10.67 c 17.3,-21.72 46.69,-29.52 73.67,-24.12 19.96,4 37.53,17.86 48.02,35.32 a 0.22,0.22 0 0 0 0.36,0.03 q 9.3,-11.07 18.18,-23.08 a 0.65,0.65 0 0 0 -0.01,-0.79"
       id="path28" />
    <path
       stroke="#748a93"
       vector-effect="non-scaling-stroke"
       d="m 563.9741,291.1684 a 52.48,47.78 1.8 0 0 -50.9533,-49.4048 52.48,47.78 1.8 0 0 -53.9549,46.108 52.48,47.78 1.8 0 0 50.9533,49.4048 52.48,47.78 1.8 0 0 53.9549,-46.108"
       id="path29" />
    <path
       stroke="#748a93"
       vector-effect="non-scaling-stroke"
       d="m 539.4991,290.0901 a 27.93,26.75 -1.6 0 0 -28.666,-25.9597 27.93,26.75 -1.6 0 0 -27.1722,27.5195 27.93,26.75 -1.6 0 0 28.666,25.9597 27.93,26.75 -1.6 0 0 27.1722,-27.5195"
       id="path30" />
    <path
       stroke="#748a93"
       vector-effect="non-scaling-stroke"
       d="m 519.3598,290.7145 a 7.95,7.53 -0.4 0 0 -8.0024,-7.4743 7.95,7.53 -0.4 0 0 -7.8972,7.5853 7.95,7.53 -0.4 0 0 8.0024,7.4743 7.95,7.53 -0.4 0 0 7.8972,-7.5853"
       id="path31" />
    <path
       stroke="#748a93"
       vector-effect="non-scaling-stroke"
       d="m 667.74,326.55 c 1.24,3.19 3.85,7.5 7.54,8.24 13.39,2.67 15.96,-16.49 4.52,-20.23 q -10.83,-3.55 -18.4,4.19 -2.51,2.56 -2.71,5.85 a 0.86,0.85 3.3 0 0 0.81,0.9 l 7.35,0.4 a 1.02,1.01 -8.4 0 1 0.89,0.65"
       id="path32" />
    <path
       stroke="#748a93"
       vector-effect="non-scaling-stroke"
       d="m 346.9,313.8 c -5.99,0.41 -10.91,4.13 -11.36,10.27 q -0.38,5.19 3.87,8.81 c 5.24,4.46 12.77,1.9 14.87,-4.44 q 0.53,-1.59 0.98,-3.19"
       id="path33" />
    <path
       stroke="#36617f"
       vector-effect="non-scaling-stroke"
       d="m 355.26,325.25 q 4.37,0.87 8.42,0.16 a 0.69,0.68 73.9 0 0 0.51,-0.93 q -4.7,-11.93 -17.29,-10.68"
       id="path34" />
    <path
       stroke="#a9c5d2"
       vector-effect="non-scaling-stroke"
       d="m 355.26,325.25 q -1.01,-8.06 -8.36,-11.45"
       id="path35" />
    <path
       stroke="#36617f"
       vector-effect="non-scaling-stroke"
       d="m 333.71,416.1 1.15,0.99 q 0.42,0.36 -0.05,0.64 -0.89,0.53 -1.79,0.4 -1.26,-0.18 -1.41,0.59"
       id="path36" />
    <path
       stroke="#748a93"
       vector-effect="non-scaling-stroke"
       d="m 331.61,418.72 q -2.86,14.84 -1.34,29.83 a 1.24,1.23 78.8 0 1 -0.88,1.32 q -4.84,1.44 -7.82,4.82 c -4.39,4.98 -4.32,13.47 -1.29,18.8 q 4.53,7.96 14.46,7.85"
       id="path37" />
    <path
       stroke="#204c6d"
       vector-effect="non-scaling-stroke"
       d="m 334.74,481.34 q 0.87,0.23 1.07,0.82 0.08,0.24 -0.16,1.14 -0.18,0.69 -0.07,1.4 1.28,8.37 3.2,16.54 a 0.97,0.97 0 0 0 1.38,0.65 l 9.78,-4.87 q 0.96,-0.47 0.63,-1.49 -3.25,-9.84 -4.56,-20.05"
       id="path38" />
    <path
       stroke="#748a93"
       vector-effect="non-scaling-stroke"
       d="m 346.01,475.48 2.72,-3.67"
       id="path39" />
    <path
       stroke="#36617f"
       vector-effect="non-scaling-stroke"
       d="m 348.73,471.81 q 9.17,-2.38 18.77,-3.2 0.54,-0.04 0.59,-0.59 l 1.25,-12.38 q 0.1,-0.96 -0.85,-0.82 l -20.61,2.91"
       id="path40" />
    <path
       stroke="#748a93"
       vector-effect="non-scaling-stroke"
       d="m 347.88,457.73 -2.55,-3.93"
       id="path41" />
    <path
       stroke="#36617f"
       vector-effect="non-scaling-stroke"
       d="m 345.33,453.8 q -0.6,-2.76 -0.71,-5.3 c -0.35,-7.86 -0.24,-15.36 0.88,-23.35 q 0.69,-4.9 1.46,-9.92"
       id="path42" />
    <path
       stroke="#748a93"
       vector-effect="non-scaling-stroke"
       d="m 346.96,415.23 q 13.19,-10.05 3.76,-25.76"
       id="path43" />
    <path
       stroke="#36617f"
       vector-effect="non-scaling-stroke"
       d="m 350.72,389.47 q 5.77,-10.04 7.43,-12.82 5.29,-8.83 12.86,-16.59"
       id="path44" />
    <path
       stroke="#748a93"
       vector-effect="non-scaling-stroke"
       d="m 371.01,360.06 0.8,-0.01"
       id="path45" />
    <path
       stroke="#36617f"
       vector-effect="non-scaling-stroke"
       d="m 371.81,360.05 20.64,23.22"
       id="path46" />
    <path
       stroke="#748a93"
       vector-effect="non-scaling-stroke"
       d="m 392.45,383.27 q -15.6,18.18 -21.67,41.48 -1.19,4.57 -1.09,7.9 0.02,0.54 0.4,0.94 1.46,1.52 3.38,2.08 4.22,1.23 5.22,-3.42 2.03,-9.5 5.57,-17.43 c 4.94,-11.05 13.24,-21.75 22.27,-31.26 a 1.04,1.02 47 0 0 0.04,-1.37 l -6.28,-7.51"
       id="path47" />
    <path
       stroke="#36617f"
       vector-effect="non-scaling-stroke"
       d="M 400.29,374.68 Q 389.74,363.47 380.44,350.83"
       id="path48" />
    <path
       stroke="#748a93"
       vector-effect="non-scaling-stroke"
       d="m 380.44,350.83 q 2.06,-3.62 5.33,-5.38 a 0.5,0.49 -31 0 0 0.18,-0.71 l -6.23,-9.48 a 0.71,0.71 0 0 0 -1.01,-0.18 C 361.5,347.56 349.09,365 339.82,383.83 q -0.28,0.56 -0.89,0.64 -12,1.55 -14.93,11.53 c -2.47,8.45 1.62,16.55 9.71,20.1"
       id="path49" />
    <path
       stroke="#a9c5d2"
       vector-effect="non-scaling-stroke"
       d="m 380.44,350.83 q -5.15,3.68 -8.63,9.22"
       id="path50" />
    <path
       stroke="#a9c5d2"
       vector-effect="non-scaling-stroke"
       d="m 371.01,360.06 -6.5,-5.69 a 0.52,0.52 0 0 0 -0.75,0.08 q -5.45,7.1 -10.86,13.99 c -3.88,4.96 -6.78,10.82 -9.79,16.41 a 0.53,0.52 -62.7 0 0 0.22,0.71 l 7.39,3.91"
       id="path51" />
    <path
       stroke="#a9c5d2"
       vector-effect="non-scaling-stroke"
       d="m 346.96,415.23 q -6.89,2.47 -13.25,0.87"
       id="path52" />
    <path
       stroke="#a9c5d2"
       vector-effect="non-scaling-stroke"
       d="m 400.29,374.68 -7.84,8.59"
       id="path53" />
    <path
       stroke="#a9c5d2"
       vector-effect="non-scaling-stroke"
       d="m 345.33,453.8 q -5.13,-4.08 -11.28,-4.43 a 1.41,1.41 0 0 1 -1.33,-1.41 q -0.05,-13.49 1.31,-26.46 0.27,-2.53 -2.42,-2.78"
       id="path54" />
    <path
       stroke="#a9c5d2"
       vector-effect="non-scaling-stroke"
       d="m 347.88,457.73 q 1.04,3.9 0.88,9.27 -0.08,2.52 -0.03,4.81"
       id="path55" />
    <path
       stroke="#93b0c0"
       vector-effect="non-scaling-stroke"
       d="m 346.01,475.48 q -4.11,4.98 -11.27,5.86"
       id="path56" />
    <path
       stroke="#36617f"
       vector-effect="non-scaling-stroke"
       d="m 642.48,350.46 -20.2,24.07"
       id="path57" />
    <path
       stroke="#748a93"
       vector-effect="non-scaling-stroke"
       d="m 622.28,374.53 -6.68,7.57 q -0.39,0.44 0.01,0.87 c 11.69,12.8 21.67,25.03 26.51,41.6 q 1.33,4.55 2.96,9.22 1.1,3.14 4.25,2.06 l 1.5,-0.51 q 3.23,-1.11 2.62,-4.47 -3.78,-20.47 -16.56,-38.52 -4.65,-6.55 -6.76,-9.24"
       id="path58" />
    <path
       stroke="#36617f"
       vector-effect="non-scaling-stroke"
       d="m 630.13,383.11 21.52,-23.28"
       id="path59" />
    <path
       stroke="#748a93"
       vector-effect="non-scaling-stroke"
       d="m 651.65,359.83 q 0.54,0.09 1.33,0.64"
       id="path60" />
    <path
       stroke="#36617f"
       vector-effect="non-scaling-stroke"
       d="m 652.98,360.47 q 4.11,5.43 8.47,11.08 3.81,4.94 8.88,14.42 0.41,0.75 1.1,1.4 0.68,0.65 1.26,1.3"
       id="path61" />
    <path
       stroke="#748a93"
       vector-effect="non-scaling-stroke"
       d="m 672.69,388.67 q -5.93,7.04 -4.37,15.08 1.3,6.76 7.24,11.34"
       id="path62" />
    <path
       stroke="#36617f"
       vector-effect="non-scaling-stroke"
       d="m 675.56,415.09 q 3.38,16.5 2.85,32.41 -0.1,3.2 -0.67,6.61"
       id="path63" />
    <path
       stroke="#748a93"
       vector-effect="non-scaling-stroke"
       d="m 677.74,454.11 -2.68,3.83"
       id="path64" />
    <path
       stroke="#36617f"
       vector-effect="non-scaling-stroke"
       d="m 675.06,457.94 -20.84,-3.15 q -0.49,-0.08 -0.44,0.41 l 1.48,12.79 q 0.06,0.47 0.53,0.51 9.45,0.68 18.96,3.25"
       id="path65" />
    <path
       stroke="#748a93"
       vector-effect="non-scaling-stroke"
       d="m 674.75,471.75 3.21,4.79"
       id="path66" />
    <path
       stroke="#204c6d"
       vector-effect="non-scaling-stroke"
       d="M 677.96,476.54 673,495.31 a 1.21,1.21 0 0 0 0.6,1.38 l 8.94,4.73 a 1.27,1.27 0 0 0 1.79,-0.69 q 3.43,-9.5 3.85,-19.51"
       id="path67" />
    <path
       stroke="#748a93"
       vector-effect="non-scaling-stroke"
       d="m 688.18,481.22 q 7.13,0.43 11.89,-4.16 5.5,-5.32 4.63,-13.81 -1.08,-10.38 -12.41,-13.71"
       id="path68" />
    <path
       stroke="#36617f"
       vector-effect="non-scaling-stroke"
       d="m 692.29,449.54 q 1.19,-16.99 -2.45,-33.62"
       id="path69" />
    <path
       stroke="#748a93"
       vector-effect="non-scaling-stroke"
       d="m 689.84,415.92 q 7.89,-3.69 9.36,-11.67 c 1.83,-9.96 -5.21,-18.86 -15.13,-19.76"
       id="path70" />
    <path
       stroke="#36617f"
       vector-effect="non-scaling-stroke"
       d="m 684.07,384.49 q -8.27,-18.5 -22.19,-32.96"
       id="path71" />
    <path
       stroke="#748a93"
       vector-effect="non-scaling-stroke"
       d="m 661.88,351.53 q -8.24,-9.07 -17.39,-15.77 a 1.05,1.04 -54.8 0 0 -1.48,0.26 l -5.36,8.11 a 1.61,1.6 38.2 0 0 0.25,2.07 l 4.58,4.26"
       id="path72" />
    <path
       stroke="#a9c5d2"
       vector-effect="non-scaling-stroke"
       d="m 661.88,351.53 -8.9,8.94"
       id="path73" />
    <path
       stroke="#a9c5d2"
       vector-effect="non-scaling-stroke"
       d="m 651.65,359.83 -9.17,-9.37"
       id="path74" />
    <path
       stroke="#a9c5d2"
       vector-effect="non-scaling-stroke"
       d="m 684.07,384.49 q -6.64,0.49 -11.38,4.18"
       id="path75" />
    <path
       stroke="#a9c5d2"
       vector-effect="non-scaling-stroke"
       d="m 630.13,383.11 -7.85,-8.58"
       id="path76" />
    <path
       stroke="#a9c5d2"
       vector-effect="non-scaling-stroke"
       d="m 689.84,415.92 q -6.85,2.04 -14.28,-0.83"
       id="path77" />
    <path
       stroke="#a9c5d2"
       vector-effect="non-scaling-stroke"
       d="m 692.29,449.54 q -1.83,0.29 -4.79,0.25 -4.86,-0.07 -9.76,4.32"
       id="path78" />
    <path
       stroke="#93b0c0"
       vector-effect="non-scaling-stroke"
       d="m 688.18,481.22 q -5.66,-0.7 -10.22,-4.68"
       id="path79" />
    <path
       stroke="#a9c5d2"
       vector-effect="non-scaling-stroke"
       d="m 674.75,471.75 q -2.03,-7.21 0.31,-13.81"
       id="path80" />
    <path
       stroke="#36617f"
       vector-effect="non-scaling-stroke"
       d="m 265.36,387.87 q 2.66,10.43 13.04,16.3 c 9.11,5.15 18.93,4.21 28.15,-0.17 a 0.79,0.78 77.6 0 0 0.45,-0.71 l 0.02,-10.55 a 0.51,0.5 -9.3 0 0 -0.68,-0.48 q -0.36,0.13 -0.66,0.37 -0.46,0.38 -1.04,0.52 c -8.24,2.1 -15.49,0.72 -20.09,-7.02 -2.69,-4.54 -2.16,-11.1 1.01,-15.05 q 6.85,-8.54 18.27,-4.77"
       id="path81" />
    <path
       stroke="#204c6d"
       vector-effect="non-scaling-stroke"
       d="m 303.83,366.31 q 2.46,5.63 -1.27,4.75"
       id="path82" />
    <path
       stroke="#748a93"
       vector-effect="non-scaling-stroke"
       d="m 302.56,371.06 c -8.82,-2.65 -16.3,6.98 -9.3,14.45 q 1.91,2.04 4,2.26 7.27,0.78 11.21,-6.23"
       id="path83" />
    <path
       stroke="#204c6d"
       vector-effect="non-scaling-stroke"
       d="m 308.47,381.54 q 5.04,-3.04 5.89,-11.04 0.76,-7.08 -3.42,-12.28"
       id="path84" />
    <path
       stroke="#36617f"
       vector-effect="non-scaling-stroke"
       d="m 310.94,358.22 -1.41,-1.76"
       id="path85" />
    <path
       stroke="#748a93"
       vector-effect="non-scaling-stroke"
       d="m 309.53,356.46 c -13.44,-13.48 -32.96,-10.02 -42.13,5.93 q -6.9,11.99 -2.04,25.48"
       id="path86" />
    <path
       stroke="#a9c5d2"
       vector-effect="non-scaling-stroke"
       d="m 309.53,356.46 -0.11,0.4 q -0.17,0.61 -0.63,0.17 c -3,-2.91 -5.94,-4.46 -10.23,-5.05 q -14.76,-2.01 -23.88,7.6 -4.41,4.64 -6.85,13.11 -2.04,7.08 -2.47,15.18"
       id="path87" />
    <path
       stroke="#5587ab"
       vector-effect="non-scaling-stroke"
       d="m 310.94,358.22 q -1.18,3.25 -2.81,5.93 -1.64,2.68 -4.3,2.16"
       id="path88" />
    <path
       stroke="#93b0c0"
       vector-effect="non-scaling-stroke"
       d="m 308.47,381.54 q 0.56,-7.28 -5.91,-10.48"
       id="path89" />
    <path
       stroke="#204c6d"
       vector-effect="non-scaling-stroke"
       d="m 710.59,361.81 q -5.35,12.97 5.2,20.7"
       id="path90" />
    <path
       stroke="#748a93"
       vector-effect="non-scaling-stroke"
       d="m 715.79,382.51 q 2.79,4.28 6.96,5.33 5.85,1.47 9.24,-4.31 c 4.27,-7.29 -2.68,-13.69 -9.99,-12.97 q -2.51,0.24 -4.45,2.61"
       id="path91" />
    <path
       stroke="#204c6d"
       vector-effect="non-scaling-stroke"
       d="m 717.55,373.17 q -0.38,-1.42 0.65,-2.96 0.74,-1.11 0.92,-1.88 0.23,-0.99 0.45,-2.11"
       id="path92" />
    <path
       stroke="#36617f"
       vector-effect="non-scaling-stroke"
       d="m 719.57,366.22 c 7.83,-3.29 16.87,0.12 20.13,8.01 2.61,6.33 0.46,12.28 -4.5,16.65 q -3.33,2.94 -7.11,3.24 -6.55,0.5 -11.17,-1.83 -0.68,-0.35 -0.7,0.42 l -0.26,10.24 a 1.14,1.14 0 0 0 0.65,1.06 q 18.43,8.78 34.15,-3.47 3.52,-2.73 5.22,-5.79 9.83,-17.65 -0.55,-34.44"
       id="path93" />
    <path
       stroke="#748a93"
       vector-effect="non-scaling-stroke"
       d="m 755.43,360.31 c -7.54,-9.46 -18.71,-14.77 -30.57,-10.68 q -6.89,2.37 -11.33,8.11 -1.5,1.93 -2.94,4.07"
       id="path94" />
    <path
       stroke="#a9c5d2"
       vector-effect="non-scaling-stroke"
       d="m 755.43,360.31 q -0.43,-0.11 -0.35,0.45 0.11,0.87 -0.49,0.24 c -9.41,-9.81 -24.22,-12.62 -35.22,-4.26 -1.93,1.47 -3.33,3.62 -4.73,5.66 q -0.75,1.09 -1.87,0.96"
       id="path95" />
    <path
       stroke="#93b0c0"
       vector-effect="non-scaling-stroke"
       d="m 712.77,363.36 -2.18,-1.55"
       id="path96" />
    <path
       stroke="#5587ab"
       vector-effect="non-scaling-stroke"
       d="m 719.57,366.22 q -5.61,0.25 -6.8,-2.86"
       id="path97" />
    <path
       stroke="#93b0c0"
       vector-effect="non-scaling-stroke"
       d="m 717.55,373.17 q -2.6,3.15 -1.76,9.34"
       id="path98" />
    <path
       stroke="#36617f"
       vector-effect="non-scaling-stroke"
       d="m 515.28,621.03 -0.31,-19.31 a 1.25,1.25 0 0 1 0.53,-1.04 q 1.83,-1.3 3.62,-2.3 34.29,-19.23 69.84,-38.48 8.4,-4.55 16.9,-9.43 0.66,-0.38 0.73,-1.12 l 0.02,-0.3 a 0.41,0.41 0 0 0 -0.59,-0.4 c -27.53,13.98 -54.25,28.94 -81.32,43.58 -3.13,1.69 -6.35,2.88 -9.04,5.21 q -0.61,0.53 -0.62,-0.27 l -0.25,-20.57"
       id="path99" />
    <path
       stroke="#748a93"
       vector-effect="non-scaling-stroke"
       d="m 514.79,576.6 q 0.53,-0.76 0.43,-1.31"
       id="path100" />
    <path
       stroke="#36617f"
       vector-effect="non-scaling-stroke"
       d="m 515.22,575.29 0.24,0.16 q 0.18,0.12 0.36,0.02 l 79.83,-44.03 a 0.46,0.45 -30.2 0 0 0.17,-0.62 L 585.53,512.9 a 0.88,0.88 0 0 0 -1.18,-0.33 l -68.6,37.81 a 0.4,0.4 0 0 1 -0.59,-0.35 l -0.17,-20.97"
       id="path101" />
    <path
       stroke="#748a93"
       vector-effect="non-scaling-stroke"
       d="m 514.99,529.06 q 0.29,-0.54 0.29,-0.86"
       id="path102" />
    <path
       stroke="#36617f"
       vector-effect="non-scaling-stroke"
       d="m 515.28,528.2 59.71,-32.99 a 1.86,1.85 60.3 0 0 0.7,-2.56 l -11.55,-19.76 a 1.26,1.26 0 0 0 -1.69,-0.47 l -46.47,25.14 a 0.63,0.63 0 0 1 -0.93,-0.55 l 0.01,-19.57"
       id="path103" />
    <path
       stroke="#748a93"
       vector-effect="non-scaling-stroke"
       d="m 515.06,477.44 q 0.22,-0.59 0.19,-0.88"
       id="path104" />
    <path
       stroke="#36617f"
       vector-effect="non-scaling-stroke"
       d="m 515.25,476.56 37.79,-20.96 a 1.31,1.31 0 0 0 0.5,-1.81 l -9.34,-15.82 q -0.87,-1.49 -2.4,-0.68 -12.26,6.5 -24.74,13.32 -0.67,0.37 -1.47,0.43 a 0.3,0.29 88.2 0 1 -0.31,-0.3 l -0.07,-20.51"
       id="path105" />
    <path
       stroke="#748a93"
       vector-effect="non-scaling-stroke"
       d="m 515.21,430.23 q 0.23,-0.73 0.04,-0.95"
       id="path106" />
    <path
       stroke="#36617f"
       vector-effect="non-scaling-stroke"
       d="m 515.25,429.28 q 0.28,0.15 0.46,0.03 1.58,-1.02 3.71,-2.01 5.8,-2.7 16.83,-9.59 a 0.78,0.77 60.1 0 0 0.27,-1.02 l -9.79,-17.97 q -0.27,-0.5 -0.83,-0.44 l -10.99,1.16"
       id="path107" />
    <path
       stroke="#748a93"
       vector-effect="non-scaling-stroke"
       d="m 514.91,399.44 -17.21,-1.75 a 1.05,1.04 -71.9 0 0 -1.01,0.52 l -9.76,16.99 a 1.3,1.29 -59.6 0 0 0.45,1.75 l 7.27,4.33"
       id="path108" />
    <path
       stroke="#36617f"
       vector-effect="non-scaling-stroke"
       d="m 494.65,421.28 q -0.57,8.78 -0.37,16.97 0.05,2.07 0.42,4.78"
       id="path109" />
    <path
       stroke="#748a93"
       vector-effect="non-scaling-stroke"
       d="m 494.7,443.03 -14.38,-7.36 a 0.99,0.99 0 0 0 -1.31,0.38 l -10.1,17.56 a 1.27,1.27 0 0 0 0.51,1.76 l 25.24,13.35"
       id="path110" />
    <path
       stroke="#36617f"
       vector-effect="non-scaling-stroke"
       d="m 494.66,468.72 -0.38,21.23"
       id="path111" />
    <path
       stroke="#748a93"
       vector-effect="non-scaling-stroke"
       d="M 494.28,489.95 459.6,472.09 a 0.55,0.53 -61.4 0 0 -0.71,0.22 l -11.54,20.39 a 0.82,0.81 29 0 0 0.33,1.12 l 47.05,25.62"
       id="path112" />
    <path
       stroke="#36617f"
       vector-effect="non-scaling-stroke"
       d="m 494.73,519.44 q -0.62,6.16 -0.61,16.06 0.01,3.4 0.63,5.69"
       id="path113" />
    <path
       stroke="#748a93"
       vector-effect="non-scaling-stroke"
       d="m 494.75,541.19 -56.78,-29.44 a 0.69,0.68 28.1 0 0 -0.91,0.27 l -9.94,17.71 a 1.39,1.38 28.7 0 0 0.56,1.9 l 66.55,35.6"
       id="path114" />
    <path
       stroke="#36617f"
       vector-effect="non-scaling-stroke"
       d="m 494.23,567.23 0.29,20.57"
       id="path115" />
    <path
       stroke="#748a93"
       vector-effect="non-scaling-stroke"
       d="m 494.52,587.8 -77.64,-39.96 q -1.07,-0.55 -1.24,0.64 -0.05,0.32 0.04,0.63 0.36,1.23 1.48,1.82 37.05,19.66 73.35,39.51 1.5,0.82 3.83,2.63"
       id="path116" />
    <path
       stroke="#36617f"
       vector-effect="non-scaling-stroke"
       d="m 494.34,593.07 -0.01,21.04"
       id="path117" />
    <path
       stroke="#748a93"
       vector-effect="non-scaling-stroke"
       d="M 494.33,614.11 387.54,558.48 q -0.45,-0.23 -0.25,-0.7 0.95,-2.33 1.88,-4.06 41.48,-77.23 81.95,-153.86 1.5,-2.86 2.82,-5.87 a 0.58,0.58 0 0 0 -0.34,-0.78 q -10.06,-3.62 -20.32,-8.95 a 0.62,0.62 0 0 0 -0.85,0.29 q -1.98,4.34 -4.43,8.71 -7.3,13 -14.03,25.45 -25.96,48.02 -53.48,98.83 -4.53,8.36 -9.83,17.98 -5.88,10.7 -6.74,15.23 c -2.37,12.66 3.68,23.69 14.87,29.69 41.1,22.04 80.3,41.99 120.09,63.65 q 8.14,4.44 18.43,3.12 c 4.42,-0.56 9.32,-2.74 13.31,-4.93 q 57.94,-31.61 116.1,-63.05 c 5.09,-2.76 9.12,-7.97 11.18,-13.42 3.69,-9.72 1.19,-18.07 -3.71,-26.79 q -7.78,-13.86 -14.78,-26.77 -34.62,-63.88 -69.46,-126.99 -0.36,-0.64 -1.02,-0.32 -8.19,4.03 -16.91,7.68 -1.36,0.57 -2.75,0.92 -0.77,0.2 -0.44,0.92 1.78,3.95 4.52,9.1 44.28,83.46 81.15,150.67 0.93,1.69 1.51,3.43 0.17,0.48 -0.28,0.72 -71.56,37.64 -109.48,58.87 -6.26,3.5 -10.97,3.78"
       id="path118" />
    <path
       stroke="#a9c5d2"
       vector-effect="non-scaling-stroke"
       d="m 494.33,614.11 q 6.95,4.22 12.92,5.87 2.59,0.72 8.03,1.05"
       id="path119" />
    <path
       stroke="#a9c5d2"
       vector-effect="non-scaling-stroke"
       d="m 494.75,541.19 19.85,9.82 q 0.45,0.23 0.46,0.72 l 0.16,23.56"
       id="path120" />
    <path
       stroke="#a9c5d2"
       vector-effect="non-scaling-stroke"
       d="m 514.79,576.6 q -0.37,0.08 -0.55,0.59 a 0.3,0.29 -65.8 0 1 -0.41,0.16 l -19.6,-10.12"
       id="path121" />
    <path
       stroke="#a9c5d2"
       vector-effect="non-scaling-stroke"
       d="m 494.52,587.8 q 8.7,4.77 17.49,9.22 1.95,0.98 2.31,2 0.51,1.44 -0.05,3.09 a 0.71,0.7 22.8 0 1 -0.99,0.4 l -18.94,-9.44"
       id="path122" />
    <path
       stroke="#a9c5d2"
       vector-effect="non-scaling-stroke"
       d="m 514.99,529.06 q -0.79,0.57 -1.67,0.07 -8.48,-4.89 -18.59,-9.69"
       id="path123" />
    <path
       stroke="#a9c5d2"
       vector-effect="non-scaling-stroke"
       d="m 515.28,528.2 -0.37,-28.52 a 0.79,0.78 87.6 0 0 -0.84,-0.78 q -1.05,0.08 -2.28,-0.48 -9.23,-4.15 -17.51,-8.47"
       id="path124" />
    <path
       stroke="#a9c5d2"
       vector-effect="non-scaling-stroke"
       d="m 515.06,477.44 q -2.2,0.38 -4.51,-0.8 -7.63,-3.85 -15.89,-7.92"
       id="path125" />
    <path
       stroke="#a9c5d2"
       vector-effect="non-scaling-stroke"
       d="m 515.25,476.56 -0.37,-23.81 q -0.01,-0.52 -0.53,-0.61 -2.07,-0.36 -3.41,-1.04 -8.4,-4.21 -16.24,-8.07"
       id="path126" />
    <path
       stroke="#a9c5d2"
       vector-effect="non-scaling-stroke"
       d="m 514.91,399.44 0.34,29.84"
       id="path127" />
    <path
       stroke="#a9c5d2"
       vector-effect="non-scaling-stroke"
       d="m 515.21,430.23 q -0.72,0.73 -1.67,0.27 -9.22,-4.48 -18.89,-9.22"
       id="path128" />
    <path
       stroke="#748a93"
       vector-effect="non-scaling-stroke"
       d="m 294.131,468.5574 a 8.84,8.59 43.7 0 0 -0.4563,-12.3177 8.84,8.59 43.7 0 0 -12.3257,0.1029 8.84,8.59 43.7 0 0 0.4563,12.3177 8.84,8.59 43.7 0 0 12.3257,-0.1029"
       id="path129" />
    <path
       stroke="#748a93"
       vector-effect="non-scaling-stroke"
       d="m 743.77,462.46 a 8.72,8.72 0 0 0 -8.72,-8.72 8.72,8.72 0 0 0 -8.72,8.72 8.72,8.72 0 0 0 8.72,8.72 8.72,8.72 0 0 0 8.72,-8.72"
       id="path130" />
    <path
       stroke="#36617f"
       vector-effect="non-scaling-stroke"
       d="m 262.83,528.1 q 17.06,-9.59 35.7,-19.45 1.61,-0.85 0.33,-2.07 -0.21,-0.21 -1.36,-0.21 -18.19,0.04 -37.74,-0.13 -2.53,-0.02 -4.4,1.56 c -2.87,2.44 -1.83,14.96 -1.45,17.68 0.72,5.14 5.68,4.44 8.92,2.62"
       id="path131" />
    <path
       stroke="#36617f"
       vector-effect="non-scaling-stroke"
       d="m 725.05,506.25 q -0.81,0 -1.55,0.34 a 0.8,0.79 51.4 0 0 -0.15,1.36 q 2.62,1.95 5.05,3.16 15.96,7.97 31.51,16.79 c 3.38,1.92 9.24,2.74 9.65,-2.81 q 0.42,-5.59 -0.14,-12.36 c -0.38,-4.57 -3.46,-6.59 -7.85,-6.56 q -19,0.14 -36.52,0.08"
       id="path132" />
    <path
       stroke="#36617f"
       vector-effect="non-scaling-stroke"
       d="m 261.64,676.61 c 0.71,0.8 1.49,1.65 2.43,2.21 q 49.52,29.37 72.61,42.27 49.77,27.79 98.82,56.58"
       id="path133" />
    <path
       stroke="#748a93"
       vector-effect="non-scaling-stroke"
       d="m 435.5,777.67 q 24.16,14.2 48.48,27.99 13.99,7.93 17.77,9.07 10.46,3.12 21.86,-0.79"
       id="path134" />
    <path
       stroke="#36617f"
       vector-effect="non-scaling-stroke"
       d="m 523.61,813.94 q 10.97,-4.43 21.15,-10.58 10.89,-6.58 11,-6.64 13.89,-7.97 26.27,-14.97 c 15.05,-8.51 29.98,-17.41 44.88,-25.97 53.09,-30.5 106.25,-61.15 159.04,-92.32 q 23.3,-13.75 41.05,-23.45 7.81,-4.27 5.01,-12.19"
       id="path135" />
    <path
       stroke="#748a93"
       vector-effect="non-scaling-stroke"
       d="m 832.01,627.82 c -4.37,-7.37 -13.09,-10.99 -21.12,-9.9 q -4.33,0.59 -10.97,4.25 -49.71,27.48 -90.88,49.94 c -2.09,1.14 -3.97,2.7 -4.84,5.01 q -1.62,4.3 -3.68,7.98 c -3.28,5.85 -11.52,9.33 -17.81,10.14 q -6.61,0.86 -13.4,-3.04 -7.2,-4.12 -13.97,-8.15 a 2.97,2.97 0 0 0 -2.85,-0.1 c -4.4,2.2 -11.29,6.56 -15.98,5.44 q -7.39,-1.76 -6.81,-9.57 0.35,-4.82 4.92,-6.9 7.13,-3.25 14.36,-7.09 4.83,-2.56 8.86,-0.68 6.06,2.82 13.74,8.27 c 4.71,3.35 11.57,5.85 14.22,-1.5 1.89,-5.27 1.91,-9.35 7.43,-12.38 q 52.56,-28.93 105.55,-58.1 0.62,-0.34 0,-0.69 -60.71,-34.2 -122.02,-68.33 c -1.38,-0.77 -2.62,-1.76 -3.87,-2.7 q -1.75,-1.31 -0.64,0.57 2.75,4.59 4.84,9.45 c 7.01,16.25 4.22,33.72 -6.87,47.25 q -3.34,4.08 -8.11,6.87 c -7.11,4.15 -14.59,7.64 -21.85,11.56 q -47.17,25.42 -94.01,50.85 c -5.31,2.88 -13.46,7.37 -19.66,9.26 q -11.6,3.53 -23.61,1.23 c -5.82,-1.12 -11.44,-3.93 -16.57,-6.68 q -39.1,-20.98 -109.44,-57.54 -4.62,-2.4 -9.82,-5.01 c -8.95,-4.48 -14.87,-9.03 -19.73,-17.84 -9.42,-17.07 -6.45,-33.83 3.38,-49.75 q 0.81,-1.31 -0.5,-0.5 -4.23,2.61 -8.19,4.81 -57.23,31.79 -118.73,67.21 a 0.21,0.21 0 0 0 0.01,0.37 q 53.31,28.47 105.07,56.53 c 3.56,1.93 5.62,3.6 6.67,7.29 q 1.03,3.68 2.21,6.96 c 1.78,4.97 7.3,4.33 10.81,1.98 q 6.24,-4.18 12.93,-8.29 c 4.34,-2.67 8.21,-2.97 12.75,-0.6 q 7.45,3.87 14.45,6.84 4.91,2.08 5.51,7.09 c 0.94,7.86 -8.02,11.64 -14.15,8.75 q -4.93,-2.31 -9.86,-4.81 a 3.57,3.55 41.8 0 0 -3.54,0.19 c -9.09,5.92 -21.35,14.85 -32.43,10.15 q -7.22,-3.06 -10.91,-8.27 c -2.65,-3.77 -3.3,-10.59 -7.27,-13.03 q -3.99,-2.44 -8.14,-4.63 -42.77,-22.58 -88.59,-47.66 -7.67,-4.2 -16.43,-1.6 c -5.68,1.7 -11.16,5.64 -12.09,11.67 q -1.04,6.75 6.01,10.7 35.63,19.98 65.25,35.52"
       id="path136" />
    <path
       stroke="#a9c5d2"
       vector-effect="non-scaling-stroke"
       d="m 832.01,627.82 q -0.58,1.9 -1.47,2.48 -3.91,2.52 -10.74,6.03 -5.15,2.65 -11.08,5.32 -6.22,2.8 -11.93,5.6 c -29.02,14.2 -56.18,28.01 -87.9,44.68 q -8.92,4.69 -16.81,8.83 -25.72,13.52 -54.54,28.27 -22.45,11.49 -50.52,26.95 -22.81,12.57 -54.46,29.45 a 2.25,2.25 0 0 0 -1.16,1.64 q -1.36,8.95 -3.68,17.92 -0.87,3.38 -4.11,8.95"
       id="path137" />
    <path
       stroke="#a9c5d2"
       vector-effect="non-scaling-stroke"
       d="m 435.5,777.67 24.97,-9.85 q 1.3,-0.51 0.05,-1.14 -28.94,-14.7 -58.32,-30.01 -23.97,-12.49 -41.42,-19.92 -19.16,-8.15 -37.59,-15.66 c -14.31,-5.84 -28.78,-11.18 -43.01,-16.81 q -2.02,-0.8 -9.19,-4 -4.58,-2.04 -9.35,-3.67"
       id="path138" />
    <path
       stroke="#36617f"
       vector-effect="non-scaling-stroke"
       d="m 836.0129,659.2437 a 4.31,4.31 0 0 0 -5.9011,-1.5262 l -26.9001,15.8454 a 4.31,4.31 0 0 0 -1.5261,5.9011 l 0.1015,0.1723 a 4.31,4.31 0 0 0 5.9011,1.5262 l 26.9001,-15.8454 a 4.31,4.31 0 0 0 1.5261,-5.9011 l -0.1015,-0.1723"
       id="path139" />
    <path
       stroke="#204c6d"
       vector-effect="non-scaling-stroke"
       d="m 265.1142,704.3076 a 3.67,3.67 0 0 0 -1.3696,-5.0062 L 245.2601,688.758 a 3.67,3.67 0 0 0 -5.0062,1.3696 l -0.2081,0.3648 a 3.67,3.67 0 0 0 1.3696,5.0062 l 18.4845,10.5434 a 3.67,3.67 0 0 0 5.0062,-1.3696 l 0.2081,-0.3648"
       id="path140" />
    <path
       stroke="#204c6d"
       vector-effect="non-scaling-stroke"
       d="m 338.9476,750.18 a 6.17,6.17 0 0 0 -2.3465,-8.4043 l -43.9266,-24.7513 a 6.17,6.17 0 0 0 -8.4043,2.3465 l -0.1178,0.2091 a 6.17,6.17 0 0 0 2.3465,8.4043 l 43.9266,24.7513 a 6.17,6.17 0 0 0 8.4043,-2.3465 l 0.1178,-0.2091"
       id="path141" />
    <path
       stroke="#204c6d"
       vector-effect="non-scaling-stroke"
       d="m 739.3527,719.9576 a 6.19,6.19 0 0 0 -8.4477,-2.2952 l -43.6313,24.9878 a 6.19,6.19 0 0 0 -2.2952,8.4478 l 0.2088,0.3644 a 6.19,6.19 0 0 0 8.4477,2.2952 l 43.6313,-24.9878 a 6.19,6.19 0 0 0 2.2952,-8.4478 l -0.2088,-0.3644"
       id="path142" />
    <path
       stroke="#748a93"
       vector-effect="non-scaling-stroke"
       d="M 337.5559,571.9568 A 8.75,8.75 0 0 0 325.685,568.463 l -31.4318,17.1372 a 8.75,8.75 0 0 0 -3.4938,11.8709 l 0.3447,0.6321 a 8.75,8.75 0 0 0 11.8709,3.4938 l 31.4318,-17.1372 a 8.75,8.75 0 0 0 3.4938,-11.8709 l -0.3447,-0.6321"
       id="path143" />
    <path
       stroke="#748a93"
       vector-effect="non-scaling-stroke"
       d="m 731.8694,597.6333 a 8.82,8.82 0 0 0 -3.5634,-11.9535 l -31.6146,-17.094 a 8.82,8.82 0 0 0 -11.9535,3.5635 l -0.2473,0.4574 a 8.82,8.82 0 0 0 3.5634,11.9535 l 31.6146,17.094 a 8.82,8.82 0 0 0 11.9535,-3.5635 l 0.2473,-0.4574"
       id="path144" />
    <path
       stroke="#748a93"
       vector-effect="non-scaling-stroke"
       d="m 695.06,616.9 a 10.45,10.45 0 0 0 -10.45,-10.45 10.45,10.45 0 0 0 -10.45,10.45 10.45,10.45 0 0 0 10.45,10.45 10.45,10.45 0 0 0 10.45,-10.45"
       id="path145" />
    <path
       stroke="#748a93"
       vector-effect="non-scaling-stroke"
       d="m 348.02,616.94 a 10.36,10.36 0 0 0 -10.36,-10.36 10.36,10.36 0 0 0 -10.36,10.36 10.36,10.36 0 0 0 10.36,10.36 10.36,10.36 0 0 0 10.36,-10.36"
       id="path146" />
    <path
       stroke="#748a93"
       vector-effect="non-scaling-stroke"
       d="m 377.2888,626.3179 a 10.52,10.23 -40 0 0 -14.6345,-1.0745 10.52,10.23 -40 0 0 -1.4831,14.5987 10.52,10.23 -40 0 0 14.6345,1.0745 10.52,10.23 -40 0 0 1.4831,-14.5987"
       id="path147" />
    <path
       stroke="#748a93"
       vector-effect="non-scaling-stroke"
       d="m 664.46,633.08 a 10.45,10.45 0 0 0 -10.45,-10.45 10.45,10.45 0 0 0 -10.45,10.45 10.45,10.45 0 0 0 10.45,10.45 10.45,10.45 0 0 0 10.45,-10.45"
       id="path148" />
    <path
       stroke="#748a93"
       vector-effect="non-scaling-stroke"
       d="M 410.35,649.41 A 10.35,10.35 0 0 0 400,639.06 10.35,10.35 0 0 0 389.65,649.41 10.35,10.35 0 0 0 400,659.76 10.35,10.35 0 0 0 410.35,649.41"
       id="path149" />
    <path
       stroke="#748a93"
       vector-effect="non-scaling-stroke"
       d="m 634.21,649.34 a 10.4,10.4 0 0 0 -10.4,-10.4 10.4,10.4 0 0 0 -10.4,10.4 10.4,10.4 0 0 0 10.4,10.4 10.4,10.4 0 0 0 10.4,-10.4"
       id="path150" />
    <path
       stroke="#748a93"
       vector-effect="non-scaling-stroke"
       d="m 423.8727,673.3394 a 10.62,10.18 134 0 0 14.7002,-0.5678 10.62,10.18 134 0 0 0.0544,-14.711 10.62,10.18 134 0 0 -14.7002,0.5678 10.62,10.18 134 0 0 -0.0544,14.711"
       id="path151" />
    <path
       stroke="#748a93"
       vector-effect="non-scaling-stroke"
       d="m 603.61,665.69 a 10.36,10.36 0 0 0 -10.36,-10.36 10.36,10.36 0 0 0 -10.36,10.36 10.36,10.36 0 0 0 10.36,10.36 10.36,10.36 0 0 0 10.36,-10.36"
       id="path152" />
    <path
       stroke="#748a93"
       vector-effect="non-scaling-stroke"
       d="m 473.02,681.75 a 10.33,10.33 0 0 0 -10.33,-10.33 10.33,10.33 0 0 0 -10.33,10.33 10.33,10.33 0 0 0 10.33,10.33 10.33,10.33 0 0 0 10.33,-10.33"
       id="path153" />
    <path
       stroke="#748a93"
       vector-effect="non-scaling-stroke"
       d="m 571.82,681.92 a 10.38,10.38 0 0 0 -10.38,-10.38 10.38,10.38 0 0 0 -10.38,10.38 10.38,10.38 0 0 0 10.38,10.38 10.38,10.38 0 0 0 10.38,-10.38"
       id="path154" />
    <path
       stroke="#748a93"
       vector-effect="non-scaling-stroke"
       d="m 504.85,714.88 q 6.57,3.73 12.98,0.31 8.95,-4.79 18.04,-9.78 4.54,-2.49 4.84,-7.24 c 0.39,-6.25 -6.33,-12.04 -12.4,-9.16 q -6.75,3.21 -13.74,7.33 a 4.95,4.93 42.9 0 1 -4.72,0.17 q -6.2,-3.06 -12.24,-6.43 -5.97,-3.34 -10.87,-0.05 c -3.77,2.52 -4.44,8.33 -2.46,12.01 q 1.34,2.5 4.74,4.26 8.08,4.17 15.83,8.58"
       id="path155" />
    <path
       stroke="#748a93"
       vector-effect="non-scaling-stroke"
       d="m 488.62,742.6 q 7.54,4.18 14.6,7.84 c 8.99,4.65 16.46,1.4 24.87,-3.31 q 21.4,-11.99 44.13,-24.6 11.07,-6.14 22.29,-12.53 c 4.44,-2.53 9.89,-5.05 9.66,-11.11 -0.19,-5.25 -4.43,-9.1 -9.68,-8.82 -2.21,0.12 -4.62,1.48 -6.51,2.6 q -11.49,6.88 -20.95,12.14 -24.12,13.44 -47.57,26.52 -7.11,3.97 -14.24,-0.16 -19.64,-11.35 -56.85,-31.68 -7.75,-4.23 -14.35,-8.07 c -5.75,-3.35 -13.13,-1.33 -14.4,5.72 -0.88,4.93 1.23,7.83 5.13,10 q 33.01,18.32 63.87,35.46"
       id="path156" />
    <path
       stroke="#748a93"
       vector-effect="non-scaling-stroke"
       d="m 442.62,753.59 c 20.84,11.3 41.48,22.89 62.43,34.36 q 7.8,4.26 16.38,-0.38 63.46,-34.33 113.8,-62.97 5.04,-2.86 8.06,-5.29 c 3.95,-3.17 4.31,-9.39 0.75,-12.98 -5.64,-5.69 -13.48,-0.45 -19.08,2.86 q -16.58,9.79 -37.76,21.48 -33.57,18.53 -63.97,35.49 c -2.42,1.35 -8.46,4.58 -11.13,3.73 q -3.67,-1.18 -7.14,-3.08 -45.96,-25.19 -91.15,-49.95 -5.34,-2.93 -11.4,-6.49 -6.25,-3.68 -11.59,-5.85 c -5.9,-2.4 -13.41,0.53 -13.03,7.66 0.28,5.4 3.15,7.15 7.21,9.46 q 28.39,16.1 57.62,31.95"
       id="path157" />
  </g>
  <g
     fill="#012540"
     id="g208"
     style="display:inline;mix-blend-mode:normal">
    <path
       d="m 564.97,160.67 c -36.09,-15.84 -79.1,-13.94 -114.17,3.53 q -7.86,3.92 -19.32,10.9 c -9.08,5.54 -18.57,-8.48 -10.91,-15.11 q 2.3,-2 5.34,-3.99 c 38.37,-25.12 86.25,-31.76 130.35,-19.37 q 23.04,6.48 44.81,21.53 5.5,3.8 4.06,10.37 c -0.94,4.29 -6.04,8.61 -10.68,7.7 q -2.57,-0.5 -4.84,-1.98 -13.18,-8.55 -24.64,-13.58 z"
       id="path181" />
    <path
       d="m 437.03,281.09 q -2.9,-4.18 -6.02,-8.15 -12.29,-15.62 -24.43,-30.68 c -1.89,-2.34 -4.64,-5.92 -2.59,-8.93 q 9.03,-13.28 21.52,-24.63 c 20.64,-18.75 48.82,-29.54 76.27,-31.64 q 40.11,-3.08 74.8,16.22 c 17.23,9.59 31.28,23.42 42.32,39.97 2.01,3 -1.06,6.25 -2.71,8.39 q -14.6,18.98 -29.05,37.29 c -1.15,1.46 -1.47,3.32 -1.34,5.09 q 1.07,13.59 -3.57,25.59 c -10.3,26.68 -34.61,44.06 -62.83,46.78 -23.72,2.29 -46.75,-5.33 -63.24,-22.65 -10.69,-11.23 -18.34,-25.71 -18.87,-41.03 q -0.17,-4.96 0.22,-9.85 a 2.78,2.77 -60.3 0 0 -0.48,-1.77 z m 158.09,-45.36 c -31.9,-39.81 -87.14,-49.72 -132.18,-28.19 -13.77,6.58 -25.38,16.09 -34.97,27.94 a 1.13,1.13 0 0 0 -0.01,1.41 q 8.61,11.08 18.46,22.18 a 0.33,0.33 0 0 0 0.52,-0.03 q 3.66,-5.26 7.96,-10.67 c 17.3,-21.72 46.69,-29.52 73.67,-24.12 19.96,4 37.53,17.86 48.02,35.32 a 0.22,0.22 0 0 0 0.36,0.03 q 9.3,-11.07 18.18,-23.08 a 0.65,0.65 0 0 0 -0.01,-0.79 z m -31.1459,55.4384 a 52.48,47.78 1.8 0 0 -50.9533,-49.4048 52.48,47.78 1.8 0 0 -53.9549,46.108 52.48,47.78 1.8 0 0 50.9533,49.4048 52.48,47.78 1.8 0 0 53.9549,-46.108 z"
       id="path182" />
    <circle
       cx="363.44"
       cy="231.48"
       r="11.77"
       id="circle182" />
    <ellipse
       cx="0"
       cy="0"
       transform="rotate(121.4,264.75852,300.79023)"
       rx="11.87"
       ry="11.62"
       id="ellipse182" />
    <ellipse
       cx="0"
       cy="0"
       transform="rotate(91.9,230.572,458.44539)"
       rx="11.84"
       ry="11.56"
       id="ellipse183" />
    <ellipse
       cx="0"
       cy="0"
       transform="rotate(115.2,86.292601,225.36439)"
       rx="11.86"
       ry="11.5"
       id="ellipse184" />
    <ellipse
       cx="0"
       cy="0"
       transform="rotate(121.3,36.143724,184.08016)"
       rx="12.16"
       ry="11.83"
       id="ellipse185" />
    <ellipse
       cx="0"
       cy="0"
       transform="rotate(117.1,329.57571,372.51514)"
       rx="12.17"
       ry="11.92"
       id="ellipse186" />
    <ellipse
       cx="0"
       cy="0"
       transform="rotate(103.1,42.089566,247.05002)"
       rx="11.89"
       ry="11.62"
       id="ellipse187" />
    <ellipse
       cx="0"
       cy="0"
       transform="rotate(121.7,292.58085,335.00527)"
       rx="11.9"
       ry="11.64"
       id="ellipse188" />
    <path
       d="m 539.4991,290.0901 a 27.93,26.75 -1.6 0 1 -27.1722,27.5195 27.93,26.75 -1.6 0 1 -28.666,-25.9597 27.93,26.75 -1.6 0 1 27.1722,-27.5195 27.93,26.75 -1.6 0 1 28.666,25.9597 z m -20.1393,0.6244 a 7.95,7.53 -0.4 0 0 -8.0024,-7.4743 7.95,7.53 -0.4 0 0 -7.8972,7.5853 7.95,7.53 -0.4 0 0 8.0024,7.4743 7.95,7.53 -0.4 0 0 7.8972,-7.5853 z"
       id="path188" />
    <path
       d="m 432.94,362.82 a 0.18,0.18 0 0 0 0.29,-0.15 q -0.06,-6.13 0.33,-12.65 c 0.42,-6.87 7.8,-10.22 13.88,-7.91 7.83,2.96 6.37,11.49 6.58,18 0.05,1.59 1.52,2.83 2.78,3.59 q 5.35,3.26 12.5,6.12 15.87,6.34 32.03,8.05 35.15,3.7 66.46,-14.24 0.66,-0.38 0.68,-1.15 0.18,-5.71 0.39,-11.12 c 0.51,-12.89 20.06,-14.02 20.52,-0.44 q 0.17,5.13 0.09,11.56 a 0.45,0.44 -17.8 0 0 0.71,0.36 c 16.74,-12.38 31.39,-30.09 39.35,-49.03 2.6,-6.19 4.55,-12.69 6.51,-19.11 2.51,-8.22 6,-15.13 12.6,-20.39 9.47,-7.54 23.69,-8.22 34.16,-2.39 q 25.01,13.94 54.56,30.51 16.15,9.06 29.05,16.92 8.17,4.96 15.13,12.86 c 10.04,11.38 12.53,24.77 12.51,39.6 q -0.13,93.61 0.09,188.17 0.01,2.5 0.13,5.23 a 1.29,1.29 0 0 0 0.67,1.08 q 26.05,14.38 53.19,29.09 12.35,6.69 15.68,10.23 7.98,8.47 9.81,20.39 c 2.65,17.23 0.67,35.42 -11.55,48.11 q -3.55,3.69 -11.35,8.06 c -52.14,29.23 -105.06,60.2 -154.23,88.36 q -40.24,23.05 -83.56,47.9 -31.95,18.33 -66.88,38.65 -4.1,2.38 -8.48,4.6 c -15.35,7.76 -36.22,8.07 -51.15,-0.42 Q 472,853.06 458.35,845.21 C 363.74,790.8 271.75,737.74 175.18,683.36 q -10.58,-5.96 -13.81,-9.28 -8.74,-8.97 -11.35,-21.79 c -1.28,-6.31 -1.36,-13.04 -1.09,-19.51 0.42,-9.98 4.06,-20.18 11.1,-27.2 q 3.28,-3.26 12.3,-8.24 26.88,-14.84 52.18,-29.17 c 1.41,-0.8 3.04,-1.31 4.42,-2.14 q 0.5,-0.3 0.52,-0.89 0.15,-4.47 0.16,-8.8 0.2,-87.76 -0.02,-181.42 -0.03,-13.34 1.15,-19.35 c 3.2,-16.16 13.86,-28.96 28.33,-37.15 q 38.75,-21.92 79.15,-45.21 c 5.58,-3.22 11.83,-5.43 18.24,-5.14 15.5,0.68 25.7,10.98 29.89,25.32 6.29,21.49 15.47,40.07 31.06,55.78 q 7.17,7.22 15.53,13.65 z m 234.8,-36.27 c 1.24,3.19 3.85,7.5 7.54,8.24 13.39,2.67 15.96,-16.49 4.52,-20.23 q -10.83,-3.55 -18.4,4.19 -2.51,2.56 -2.71,5.85 a 0.86,0.85 3.3 0 0 0.81,0.9 l 7.35,0.4 a 1.02,1.01 -8.4 0 1 0.89,0.65 z M 346.9,313.8 c -5.99,0.41 -10.91,4.13 -11.36,10.27 q -0.38,5.19 3.87,8.81 c 5.24,4.46 12.77,1.9 14.87,-4.44 q 0.53,-1.59 0.98,-3.19 4.37,0.87 8.42,0.16 a 0.69,0.68 73.9 0 0 0.51,-0.93 q -4.7,-11.93 -17.29,-10.68 z m -13.19,102.3 1.15,0.99 q 0.42,0.36 -0.05,0.64 -0.89,0.53 -1.79,0.4 -1.26,-0.18 -1.41,0.59 -2.86,14.84 -1.34,29.83 a 1.24,1.23 78.8 0 1 -0.88,1.32 q -4.84,1.44 -7.82,4.82 c -4.39,4.98 -4.32,13.47 -1.29,18.8 q 4.53,7.96 14.46,7.85 0.87,0.23 1.07,0.82 0.08,0.24 -0.16,1.14 -0.18,0.69 -0.07,1.4 1.28,8.37 3.2,16.54 a 0.97,0.97 0 0 0 1.38,0.65 l 9.78,-4.87 q 0.96,-0.47 0.63,-1.49 -3.25,-9.84 -4.56,-20.05 l 2.72,-3.67 q 9.17,-2.38 18.77,-3.2 0.54,-0.04 0.59,-0.59 l 1.25,-12.38 q 0.1,-0.96 -0.85,-0.82 l -20.61,2.91 -2.55,-3.93 q -0.6,-2.76 -0.71,-5.3 c -0.35,-7.86 -0.24,-15.36 0.88,-23.35 q 0.69,-4.9 1.46,-9.92 13.19,-10.05 3.76,-25.76 5.77,-10.04 7.43,-12.82 5.29,-8.83 12.86,-16.59 l 0.8,-0.01 20.64,23.22 q -15.6,18.18 -21.67,41.48 -1.19,4.57 -1.09,7.9 0.02,0.54 0.4,0.94 1.46,1.52 3.38,2.08 4.22,1.23 5.22,-3.42 2.03,-9.5 5.57,-17.43 c 4.94,-11.05 13.24,-21.75 22.27,-31.26 a 1.04,1.02 47 0 0 0.04,-1.37 l -6.28,-7.51 q -10.55,-11.21 -19.85,-23.85 2.06,-3.62 5.33,-5.38 a 0.5,0.49 -31 0 0 0.18,-0.71 l -6.23,-9.48 a 0.71,0.71 0 0 0 -1.01,-0.18 C 361.5,347.56 349.09,365 339.82,383.83 q -0.28,0.56 -0.89,0.64 -12,1.55 -14.93,11.53 c -2.47,8.45 1.62,16.55 9.71,20.1 z m 308.77,-65.64 -20.2,24.07 -6.68,7.57 q -0.39,0.44 0.01,0.87 c 11.69,12.8 21.67,25.03 26.51,41.6 q 1.33,4.55 2.96,9.22 1.1,3.14 4.25,2.06 l 1.5,-0.51 q 3.23,-1.11 2.62,-4.47 -3.78,-20.47 -16.56,-38.52 -4.65,-6.55 -6.76,-9.24 l 21.52,-23.28 q 0.54,0.09 1.33,0.64 4.11,5.43 8.47,11.08 3.81,4.94 8.88,14.42 0.41,0.75 1.1,1.4 0.68,0.65 1.26,1.3 -5.93,7.04 -4.37,15.08 1.3,6.76 7.24,11.34 3.38,16.5 2.85,32.41 -0.1,3.2 -0.67,6.61 l -2.68,3.83 -20.84,-3.15 q -0.49,-0.08 -0.44,0.41 l 1.48,12.79 q 0.06,0.47 0.53,0.51 9.45,0.68 18.96,3.25 l 3.21,4.79 -4.96,18.77 a 1.21,1.21 0 0 0 0.6,1.38 l 8.94,4.73 a 1.27,1.27 0 0 0 1.79,-0.69 q 3.43,-9.5 3.85,-19.51 7.13,0.43 11.89,-4.16 5.5,-5.32 4.63,-13.81 -1.08,-10.38 -12.41,-13.71 1.19,-16.99 -2.45,-33.62 7.89,-3.69 9.36,-11.67 c 1.83,-9.96 -5.21,-18.86 -15.13,-19.76 q -8.27,-18.5 -22.19,-32.96 -8.24,-9.07 -17.39,-15.77 a 1.05,1.04 -54.8 0 0 -1.48,0.26 l -5.36,8.11 a 1.61,1.6 38.2 0 0 0.25,2.07 z m -377.12,37.41 q 2.66,10.43 13.04,16.3 c 9.11,5.15 18.93,4.21 28.15,-0.17 a 0.79,0.78 77.6 0 0 0.45,-0.71 l 0.02,-10.55 a 0.51,0.5 -9.3 0 0 -0.68,-0.48 q -0.36,0.13 -0.66,0.37 -0.46,0.38 -1.04,0.52 c -8.24,2.1 -15.49,0.72 -20.09,-7.02 -2.69,-4.54 -2.16,-11.1 1.01,-15.05 q 6.85,-8.54 18.27,-4.77 2.46,5.63 -1.27,4.75 c -8.82,-2.65 -16.3,6.98 -9.3,14.45 q 1.91,2.04 4,2.26 7.27,0.78 11.21,-6.23 5.04,-3.04 5.89,-11.04 0.76,-7.08 -3.42,-12.28 l -1.41,-1.76 c -13.44,-13.48 -32.96,-10.02 -42.13,5.93 q -6.9,11.99 -2.04,25.48 z m 445.23,-26.06 q -5.35,12.97 5.2,20.7 2.79,4.28 6.96,5.33 5.85,1.47 9.24,-4.31 c 4.27,-7.29 -2.68,-13.69 -9.99,-12.97 q -2.51,0.24 -4.45,2.61 -0.38,-1.42 0.65,-2.96 0.74,-1.11 0.92,-1.88 0.23,-0.99 0.45,-2.11 c 7.83,-3.29 16.87,0.12 20.13,8.01 2.61,6.33 0.46,12.28 -4.5,16.65 q -3.33,2.94 -7.11,3.24 -6.55,0.5 -11.17,-1.83 -0.68,-0.35 -0.7,0.42 l -0.26,10.24 a 1.14,1.14 0 0 0 0.65,1.06 q 18.43,8.78 34.15,-3.47 3.52,-2.73 5.22,-5.79 9.83,-17.65 -0.55,-34.44 c -7.54,-9.46 -18.71,-14.77 -30.57,-10.68 q -6.89,2.37 -11.33,8.11 -1.5,1.93 -2.94,4.07 z m -195.31,259.22 -0.31,-19.31 a 1.25,1.25 0 0 1 0.53,-1.04 q 1.83,-1.3 3.62,-2.3 34.29,-19.23 69.84,-38.48 8.4,-4.55 16.9,-9.43 0.66,-0.38 0.73,-1.12 l 0.02,-0.3 a 0.41,0.41 0 0 0 -0.59,-0.4 c -27.53,13.98 -54.25,28.94 -81.32,43.58 -3.13,1.69 -6.35,2.88 -9.04,5.21 q -0.61,0.53 -0.62,-0.27 l -0.25,-20.57 q 0.53,-0.76 0.43,-1.31 l 0.24,0.16 q 0.18,0.12 0.36,0.02 l 79.83,-44.03 a 0.46,0.45 -30.2 0 0 0.17,-0.62 L 585.53,512.9 a 0.88,0.88 0 0 0 -1.18,-0.33 l -68.6,37.81 a 0.4,0.4 0 0 1 -0.59,-0.35 l -0.17,-20.97 q 0.29,-0.54 0.29,-0.86 l 59.71,-32.99 a 1.86,1.85 60.3 0 0 0.7,-2.56 l -11.55,-19.76 a 1.26,1.26 0 0 0 -1.69,-0.47 l -46.47,25.14 a 0.63,0.63 0 0 1 -0.93,-0.55 l 0.01,-19.57 q 0.22,-0.59 0.19,-0.88 l 37.79,-20.96 a 1.31,1.31 0 0 0 0.5,-1.81 l -9.34,-15.82 q -0.87,-1.49 -2.4,-0.68 -12.26,6.5 -24.74,13.32 -0.67,0.37 -1.47,0.43 a 0.3,0.29 88.2 0 1 -0.31,-0.3 l -0.07,-20.51 q 0.23,-0.73 0.04,-0.95 0.28,0.15 0.46,0.03 1.58,-1.02 3.71,-2.01 5.8,-2.7 16.83,-9.59 a 0.78,0.77 60.1 0 0 0.27,-1.02 l -9.79,-17.97 q -0.27,-0.5 -0.83,-0.44 l -10.99,1.16 -17.21,-1.75 a 1.05,1.04 -71.9 0 0 -1.01,0.52 l -9.76,16.99 a 1.3,1.29 -59.6 0 0 0.45,1.75 l 7.27,4.33 q -0.57,8.78 -0.37,16.97 0.05,2.07 0.42,4.78 l -14.38,-7.36 a 0.99,0.99 0 0 0 -1.31,0.38 l -10.1,17.56 a 1.27,1.27 0 0 0 0.51,1.76 l 25.24,13.35 -0.38,21.23 -34.68,-17.86 a 0.55,0.53 -61.4 0 0 -0.71,0.22 l -11.54,20.39 a 0.82,0.81 29 0 0 0.33,1.12 l 47.05,25.62 q -0.62,6.16 -0.61,16.06 0.01,3.4 0.63,5.69 l -56.78,-29.44 a 0.69,0.68 28.1 0 0 -0.91,0.27 l -9.94,17.71 a 1.39,1.38 28.7 0 0 0.56,1.9 l 66.55,35.6 0.29,20.57 -77.64,-39.96 q -1.07,-0.55 -1.24,0.64 -0.05,0.32 0.04,0.63 0.36,1.23 1.48,1.82 37.05,19.66 73.35,39.51 1.5,0.82 3.83,2.63 l -0.01,21.04 -106.79,-55.63 q -0.45,-0.23 -0.25,-0.7 0.95,-2.33 1.88,-4.06 41.48,-77.23 81.95,-153.86 1.5,-2.86 2.82,-5.87 a 0.58,0.58 0 0 0 -0.34,-0.78 q -10.06,-3.62 -20.32,-8.95 a 0.62,0.62 0 0 0 -0.85,0.29 q -1.98,4.34 -4.43,8.71 -7.3,13 -14.03,25.45 -25.96,48.02 -53.48,98.83 -4.53,8.36 -9.83,17.98 -5.88,10.7 -6.74,15.23 c -2.37,12.66 3.68,23.69 14.87,29.69 41.1,22.04 80.3,41.99 120.09,63.65 q 8.14,4.44 18.43,3.12 c 4.42,-0.56 9.32,-2.74 13.31,-4.93 q 57.94,-31.61 116.1,-63.05 c 5.09,-2.76 9.12,-7.97 11.18,-13.42 3.69,-9.72 1.19,-18.07 -3.71,-26.79 q -7.78,-13.86 -14.78,-26.77 -34.62,-63.88 -69.46,-126.99 -0.36,-0.64 -1.02,-0.32 -8.19,4.03 -16.91,7.68 -1.36,0.57 -2.75,0.92 -0.77,0.2 -0.44,0.92 1.78,3.95 4.52,9.1 44.28,83.46 81.15,150.67 0.93,1.69 1.51,3.43 0.17,0.48 -0.28,0.72 -71.56,37.64 -109.48,58.87 -6.26,3.5 -10.97,3.78 z M 294.131,468.5574 a 8.84,8.59 43.7 0 0 -0.4563,-12.3177 8.84,8.59 43.7 0 0 -12.3257,0.1029 8.84,8.59 43.7 0 0 0.4563,12.3177 8.84,8.59 43.7 0 0 12.3257,-0.1029 z M 743.77,462.46 a 8.72,8.72 0 0 0 -8.72,-8.72 8.72,8.72 0 0 0 -8.72,8.72 8.72,8.72 0 0 0 8.72,8.72 8.72,8.72 0 0 0 8.72,-8.72 z M 262.83,528.1 q 17.06,-9.59 35.7,-19.45 1.61,-0.85 0.33,-2.07 -0.21,-0.21 -1.36,-0.21 -18.19,0.04 -37.74,-0.13 -2.53,-0.02 -4.4,1.56 c -2.87,2.44 -1.83,14.96 -1.45,17.68 0.72,5.14 5.68,4.44 8.92,2.62 z m 462.22,-21.85 q -0.81,0 -1.55,0.34 a 0.8,0.79 51.4 0 0 -0.15,1.36 q 2.62,1.95 5.05,3.16 15.96,7.97 31.51,16.79 c 3.38,1.92 9.24,2.74 9.65,-2.81 q 0.42,-5.59 -0.14,-12.36 c -0.38,-4.57 -3.46,-6.59 -7.85,-6.56 q -19,0.14 -36.52,0.08 z M 261.64,676.61 c 0.71,0.8 1.49,1.65 2.43,2.21 q 49.52,29.37 72.61,42.27 49.77,27.79 98.82,56.58 24.16,14.2 48.48,27.99 13.99,7.93 17.77,9.07 10.46,3.12 21.86,-0.79 10.97,-4.43 21.15,-10.58 10.89,-6.58 11,-6.64 13.89,-7.97 26.27,-14.97 c 15.05,-8.51 29.98,-17.41 44.88,-25.97 53.09,-30.5 106.25,-61.15 159.04,-92.32 q 23.3,-13.75 41.05,-23.45 7.81,-4.27 5.01,-12.19 c -4.37,-7.37 -13.09,-10.99 -21.12,-9.9 q -4.33,0.59 -10.97,4.25 -49.71,27.48 -90.88,49.94 c -2.09,1.14 -3.97,2.7 -4.84,5.01 q -1.62,4.3 -3.68,7.98 c -3.28,5.85 -11.52,9.33 -17.81,10.14 q -6.61,0.86 -13.4,-3.04 -7.2,-4.12 -13.97,-8.15 a 2.97,2.97 0 0 0 -2.85,-0.1 c -4.4,2.2 -11.29,6.56 -15.98,5.44 q -7.39,-1.76 -6.81,-9.57 0.35,-4.82 4.92,-6.9 7.13,-3.25 14.36,-7.09 4.83,-2.56 8.86,-0.68 6.06,2.82 13.74,8.27 c 4.71,3.35 11.57,5.85 14.22,-1.5 1.89,-5.27 1.91,-9.35 7.43,-12.38 q 52.56,-28.93 105.55,-58.1 0.62,-0.34 0,-0.69 -60.71,-34.2 -122.02,-68.33 c -1.38,-0.77 -2.62,-1.76 -3.87,-2.7 q -1.75,-1.31 -0.64,0.57 2.75,4.59 4.84,9.45 c 7.01,16.25 4.22,33.72 -6.87,47.25 q -3.34,4.08 -8.11,6.87 c -7.11,4.15 -14.59,7.64 -21.85,11.56 q -47.17,25.42 -94.01,50.85 c -5.31,2.88 -13.46,7.37 -19.66,9.26 q -11.6,3.53 -23.61,1.23 c -5.82,-1.12 -11.44,-3.93 -16.57,-6.68 q -39.1,-20.98 -109.44,-57.54 -4.62,-2.4 -9.82,-5.01 c -8.95,-4.48 -14.87,-9.03 -19.73,-17.84 -9.42,-17.07 -6.45,-33.83 3.38,-49.75 q 0.81,-1.31 -0.5,-0.5 -4.23,2.61 -8.19,4.81 -57.23,31.79 -118.73,67.21 a 0.21,0.21 0 0 0 0.01,0.37 q 53.31,28.47 105.07,56.53 c 3.56,1.93 5.62,3.6 6.67,7.29 q 1.03,3.68 2.21,6.96 c 1.78,4.97 7.3,4.33 10.81,1.98 q 6.24,-4.18 12.93,-8.29 c 4.34,-2.67 8.21,-2.97 12.75,-0.6 q 7.45,3.87 14.45,6.84 4.91,2.08 5.51,7.09 c 0.94,7.86 -8.02,11.64 -14.15,8.75 q -4.93,-2.31 -9.86,-4.81 a 3.57,3.55 41.8 0 0 -3.54,0.19 c -9.09,5.92 -21.35,14.85 -32.43,10.15 q -7.22,-3.06 -10.91,-8.27 c -2.65,-3.77 -3.3,-10.59 -7.27,-13.03 q -3.99,-2.44 -8.14,-4.63 -42.77,-22.58 -88.59,-47.66 -7.67,-4.2 -16.43,-1.6 c -5.68,1.7 -11.16,5.64 -12.09,11.67 q -1.04,6.75 6.01,10.7 35.63,19.98 65.25,35.52 z m 574.3729,-17.3663 a 4.31,4.31 0 0 0 -5.9011,-1.5262 l -26.9001,15.8454 a 4.31,4.31 0 0 0 -1.5261,5.9011 l 0.1015,0.1723 a 4.31,4.31 0 0 0 5.9011,1.5262 l 26.9001,-15.8454 a 4.31,4.31 0 0 0 1.5261,-5.9011 z m -570.8987,45.0639 a 3.67,3.67 0 0 0 -1.3696,-5.0062 L 245.2601,688.758 a 3.67,3.67 0 0 0 -5.0062,1.3696 l -0.2081,0.3648 a 3.67,3.67 0 0 0 1.3696,5.0062 l 18.4845,10.5434 a 3.67,3.67 0 0 0 5.0062,-1.3696 z m 73.8334,45.8724 a 6.17,6.17 0 0 0 -2.3465,-8.4043 l -43.9266,-24.7513 a 6.17,6.17 0 0 0 -8.4043,2.3465 l -0.1178,0.2091 a 6.17,6.17 0 0 0 2.3465,8.4043 l 43.9266,24.7513 a 6.17,6.17 0 0 0 8.4043,-2.3465 z m 400.4051,-30.2224 a 6.19,6.19 0 0 0 -8.4477,-2.2952 l -43.6313,24.9878 a 6.19,6.19 0 0 0 -2.2952,8.4478 l 0.2088,0.3644 a 6.19,6.19 0 0 0 8.4477,2.2952 l 43.6313,-24.9878 a 6.19,6.19 0 0 0 2.2952,-8.4478 z"
       id="path189" />
    <ellipse
       cx="0"
       cy="0"
       transform="rotate(114.1,292.3607,388.2518)"
       rx="12.01"
       ry="11.55"
       id="ellipse189" />
    <ellipse
       cx="0"
       cy="0"
       transform="rotate(110.9,32.597647,228.69033)"
       rx="11.86"
       ry="11.54"
       id="ellipse190" />
    <ellipse
       cx="0"
       cy="0"
       transform="rotate(92,-32.537384,257.66989)"
       rx="11.65"
       ry="11.49"
       id="ellipse191" />
    <ellipse
       cx="0"
       cy="0"
       transform="rotate(113.7,302.26085,410.83481)"
       rx="11.72"
       ry="11.46"
       id="ellipse192" />
    <circle
       cx="203.98"
       cy="330.85999"
       r="11.49"
       id="circle192" />
    <ellipse
       cx="0"
       cy="0"
       transform="rotate(-37.5,897.06715,-1041.7777)"
       rx="11.66"
       ry="11.4"
       id="ellipse193" />
    <circle
       cx="197.7"
       cy="372.45001"
       r="11.61"
       id="circle193" />
    <circle
       cx="825.77002"
       cy="372.48001"
       r="11.58"
       id="circle194" />
    <ellipse
       cx="0"
       cy="0"
       transform="rotate(88,-115.70064,309.50128)"
       rx="11.71"
       ry="11.49"
       id="ellipse194" />
    <circle
       cx="825.84998"
       cy="414.28"
       r="11.62"
       id="circle195" />
    <ellipse
       cx="0"
       cy="0"
       transform="rotate(116.8,-41.406916,288.85331)"
       rx="11.71"
       ry="11.43"
       id="ellipse195" />
    <circle
       cx="825.78003"
       cy="456.09"
       r="11.57"
       id="circle196" />
    <ellipse
       cx="0"
       cy="0"
       transform="rotate(99.9,-110.73992,332.29747)"
       rx="11.68"
       ry="11.42"
       id="ellipse196" />
    <ellipse
       cx="0"
       cy="0"
       transform="rotate(102.4,212.53265,581.34042)"
       rx="11.66"
       ry="11.5"
       id="ellipse197" />
    <circle
       cx="197.71001"
       cy="540.5"
       r="11.45"
       id="circle197" />
    <circle
       cx="825.77002"
       cy="540.46997"
       r="11.47"
       id="circle198" />
    <rect
       x="-26.65"
       y="-9.1099997"
       transform="rotate(-28.6,1304.7471,-324.06786)"
       width="53.299999"
       height="18.219999"
       rx="8.75"
       id="rect198" />
    <rect
       x="-26.790001"
       y="-9.0799999"
       transform="rotate(28.4,-802.09586,1691.9101)"
       width="53.580002"
       height="18.16"
       rx="8.8199997"
       id="rect199" />
    <circle
       cx="684.60999"
       cy="616.90002"
       r="10.45"
       id="circle199" />
    <circle
       cx="337.66"
       cy="616.94"
       r="10.36"
       id="circle200" />
    <ellipse
       cx="0"
       cy="0"
       transform="rotate(-40,1054.3015,-190.68554)"
       rx="10.52"
       ry="10.23"
       id="ellipse200" />
    <circle
       cx="654.01001"
       cy="633.08002"
       r="10.45"
       id="circle201" />
    <circle
       cx="400"
       cy="649.40997"
       r="10.35"
       id="circle202" />
    <circle
       cx="623.81"
       cy="649.34003"
       r="10.4"
       id="circle203" />
    <ellipse
       cx="0"
       cy="0"
       transform="rotate(134,74.338557,424.37738)"
       rx="10.62"
       ry="10.18"
       id="ellipse203" />
    <circle
       cx="593.25"
       cy="665.69"
       r="10.36"
       id="circle204" />
    <circle
       cx="462.69"
       cy="681.75"
       r="10.33"
       id="circle205" />
    <circle
       cx="561.44"
       cy="681.91998"
       r="10.38"
       id="circle206" />
    <path
       d="m 504.85,714.88 q -7.75,-4.41 -15.83,-8.58 -3.4,-1.76 -4.74,-4.26 c -1.98,-3.68 -1.31,-9.49 2.46,-12.01 q 4.9,-3.29 10.87,0.05 6.04,3.37 12.24,6.43 a 4.95,4.93 42.9 0 0 4.72,-0.17 q 6.99,-4.12 13.74,-7.33 c 6.07,-2.88 12.79,2.91 12.4,9.16 q -0.3,4.75 -4.84,7.24 -9.09,4.99 -18.04,9.78 -6.41,3.42 -12.98,-0.31 z"
       id="path206" />
    <path
       d="m 488.62,742.6 q -30.86,-17.14 -63.87,-35.46 c -3.9,-2.17 -6.01,-5.07 -5.13,-10 1.27,-7.05 8.65,-9.07 14.4,-5.72 q 6.6,3.84 14.35,8.07 37.21,20.33 56.85,31.68 7.13,4.13 14.24,0.16 23.45,-13.08 47.57,-26.52 9.46,-5.26 20.95,-12.14 c 1.89,-1.12 4.3,-2.48 6.51,-2.6 5.25,-0.28 9.49,3.57 9.68,8.82 0.23,6.06 -5.22,8.58 -9.66,11.11 q -11.22,6.39 -22.29,12.53 -22.73,12.61 -44.13,24.6 c -8.41,4.71 -15.88,7.96 -24.87,3.31 q -7.06,-3.66 -14.6,-7.84 z"
       id="path207" />
    <path
       d="M 442.62,753.59 Q 413.39,737.74 385,721.64 c -4.06,-2.31 -6.93,-4.06 -7.21,-9.46 -0.38,-7.13 7.13,-10.06 13.03,-7.66 q 5.34,2.17 11.59,5.85 6.06,3.56 11.4,6.49 45.19,24.76 91.15,49.95 3.47,1.9 7.14,3.08 c 2.67,0.85 8.71,-2.38 11.13,-3.73 q 30.4,-16.96 63.97,-35.49 21.18,-11.69 37.76,-21.48 c 5.6,-3.31 13.44,-8.55 19.08,-2.86 3.56,3.59 3.2,9.81 -0.75,12.98 q -3.02,2.43 -8.06,5.29 -50.34,28.64 -113.8,62.97 -8.58,4.64 -16.38,0.38 C 484.1,776.48 463.46,764.89 442.62,753.59 Z"
       id="path208" />
  </g>
  <g
     fill="#6b9cbd"
     id="g228"
     style="display:inline;mix-blend-mode:normal">
    <path
       d="m 355.26,325.25 q -1.01,-8.06 -8.36,-11.45 12.59,-1.25 17.29,10.68 a 0.69,0.68 73.9 0 1 -0.51,0.93 q -4.05,0.71 -8.42,-0.16 z"
       id="path209" />
    <path
       d="m 642.48,350.46 9.17,9.37 -21.52,23.28 -7.85,-8.58 z"
       id="path210" />
    <path
       d="m 380.44,350.83 q 9.3,12.64 19.85,23.85 l -7.84,8.59 -20.64,-23.22 q 3.48,-5.54 8.63,-9.22 z"
       id="path211" />
    <path
       d="m 661.88,351.53 q 13.92,14.46 22.19,32.96 -6.64,0.49 -11.38,4.18 -0.58,-0.65 -1.26,-1.3 -0.69,-0.65 -1.1,-1.4 -5.07,-9.48 -8.88,-14.42 -4.36,-5.65 -8.47,-11.08 z"
       id="path212" />
    <path
       d="m 309.53,356.46 1.41,1.76 q -1.18,3.25 -2.81,5.93 -1.64,2.68 -4.3,2.16 -11.42,-3.77 -18.27,4.77 c -3.17,3.95 -3.7,10.51 -1.01,15.05 4.6,7.74 11.85,9.12 20.09,7.02 q 0.58,-0.14 1.04,-0.52 0.3,-0.24 0.66,-0.37 a 0.51,0.5 -9.3 0 1 0.68,0.48 L 307,403.29 a 0.79,0.78 77.6 0 1 -0.45,0.71 c -9.22,4.38 -19.04,5.32 -28.15,0.17 q -10.38,-5.87 -13.04,-16.3 0.43,-8.1 2.47,-15.18 2.44,-8.47 6.85,-13.11 9.12,-9.61 23.88,-7.6 c 4.29,0.59 7.23,2.14 10.23,5.05 q 0.46,0.44 0.63,-0.17 z"
       id="path213" />
    <path
       d="m 755.43,360.31 q 10.38,16.79 0.55,34.44 -1.7,3.06 -5.22,5.79 -15.72,12.25 -34.15,3.47 a 1.14,1.14 0 0 1 -0.65,-1.06 l 0.26,-10.24 q 0.02,-0.77 0.7,-0.42 4.62,2.33 11.17,1.83 3.78,-0.3 7.11,-3.24 c 4.96,-4.37 7.11,-10.32 4.5,-16.65 -3.26,-7.89 -12.3,-11.3 -20.13,-8.01 q -5.61,0.25 -6.8,-2.86 1.12,0.13 1.87,-0.96 c 1.4,-2.04 2.8,-4.19 4.73,-5.66 11,-8.36 25.81,-5.55 35.22,4.26 q 0.6,0.63 0.49,-0.24 -0.08,-0.56 0.35,-0.45 z"
       id="path214" />
    <path
       d="m 371.01,360.06 q -7.57,7.76 -12.86,16.59 -1.66,2.78 -7.43,12.82 l -7.39,-3.91 a 0.53,0.52 -62.7 0 1 -0.22,-0.71 c 3.01,-5.59 5.91,-11.45 9.79,-16.41 q 5.41,-6.89 10.86,-13.99 a 0.52,0.52 0 0 1 0.75,-0.08 z"
       id="path215" />
    <path
       d="m 515.25,429.28 -0.34,-29.84 10.99,-1.16 q 0.56,-0.06 0.83,0.44 l 9.79,17.97 a 0.78,0.77 60.1 0 1 -0.27,1.02 q -11.03,6.89 -16.83,9.59 -2.13,0.99 -3.71,2.01 -0.18,0.12 -0.46,-0.03 z"
       id="path216" />
    <path
       d="m 346.96,415.23 q -0.77,5.02 -1.46,9.92 c -1.12,7.99 -1.23,15.49 -0.88,23.35 q 0.11,2.54 0.71,5.3 -5.13,-4.08 -11.28,-4.43 a 1.41,1.41 0 0 1 -1.33,-1.41 q -0.05,-13.49 1.31,-26.46 0.27,-2.53 -2.42,-2.78 0.15,-0.77 1.41,-0.59 0.9,0.13 1.79,-0.4 0.47,-0.28 0.05,-0.64 l -1.15,-0.99 q 6.36,1.6 13.25,-0.87 z"
       id="path217" />
    <path
       d="m 675.56,415.09 q 7.43,2.87 14.28,0.83 3.64,16.63 2.45,33.62 -1.83,0.29 -4.79,0.25 -4.86,-0.07 -9.76,4.32 0.57,-3.41 0.67,-6.61 0.53,-15.91 -2.85,-32.41 z"
       id="path218" />
    <path
       d="m 494.65,421.28 q 9.67,4.74 18.89,9.22 0.95,0.46 1.67,-0.27 l 0.07,20.51 a 0.3,0.29 88.2 0 0 0.31,0.3 q 0.8,-0.06 1.47,-0.43 12.48,-6.82 24.74,-13.32 1.53,-0.81 2.4,0.68 l 9.34,15.82 a 1.31,1.31 0 0 1 -0.5,1.81 l -37.79,20.96 -0.37,-23.81 q -0.01,-0.52 -0.53,-0.61 -2.07,-0.36 -3.41,-1.04 -8.4,-4.21 -16.24,-8.07 -0.37,-2.71 -0.42,-4.78 -0.2,-8.19 0.37,-16.97 z"
       id="path219" />
    <path
       d="m 348.73,471.81 q -0.05,-2.29 0.03,-4.81 0.16,-5.37 -0.88,-9.27 l 20.61,-2.91 q 0.95,-0.14 0.85,0.82 l -1.25,12.38 q -0.05,0.55 -0.59,0.59 -9.6,0.82 -18.77,3.2 z"
       id="path220" />
    <path
       d="m 675.06,457.94 q -2.34,6.6 -0.31,13.81 -9.51,-2.57 -18.96,-3.25 -0.47,-0.04 -0.53,-0.51 l -1.48,-12.79 q -0.05,-0.49 0.44,-0.41 z"
       id="path221" />
    <path
       d="m 494.66,468.72 q 8.26,4.07 15.89,7.92 2.31,1.18 4.51,0.8 l -0.01,19.57 a 0.63,0.63 0 0 0 0.93,0.55 l 46.47,-25.14 a 1.26,1.26 0 0 1 1.69,0.47 l 11.55,19.76 a 1.86,1.85 60.3 0 1 -0.7,2.56 l -59.71,32.99 -0.37,-28.52 a 0.79,0.78 87.6 0 0 -0.84,-0.78 q -1.05,0.08 -2.28,-0.48 -9.23,-4.15 -17.51,-8.47 z"
       id="path222" />
    <path
       d="m 262.83,528.1 c -3.24,1.82 -8.2,2.52 -8.92,-2.62 -0.38,-2.72 -1.42,-15.24 1.45,-17.68 q 1.87,-1.58 4.4,-1.56 19.55,0.17 37.74,0.13 1.15,0 1.36,0.21 1.28,1.22 -0.33,2.07 -18.64,9.86 -35.7,19.45 z"
       id="path223" />
    <path
       d="m 725.05,506.25 q 17.52,0.06 36.52,-0.08 c 4.39,-0.03 7.47,1.99 7.85,6.56 q 0.56,6.77 0.14,12.36 c -0.41,5.55 -6.27,4.73 -9.65,2.81 q -15.55,-8.82 -31.51,-16.79 -2.43,-1.21 -5.05,-3.16 a 0.8,0.79 51.4 0 1 0.15,-1.36 q 0.74,-0.34 1.55,-0.34 z"
       id="path224" />
    <path
       d="m 515.22,575.29 -0.16,-23.56 q -0.01,-0.49 -0.46,-0.72 l -19.85,-9.82 q -0.62,-2.29 -0.63,-5.69 -0.01,-9.9 0.61,-16.06 10.11,4.8 18.59,9.69 0.88,0.5 1.67,-0.07 l 0.17,20.97 a 0.4,0.4 0 0 0 0.59,0.35 l 68.6,-37.81 a 0.88,0.88 0 0 1 1.18,0.33 l 10.29,17.92 a 0.46,0.45 -30.2 0 1 -0.17,0.62 l -79.83,44.03 q -0.18,0.1 -0.36,-0.02 z"
       id="path225" />
    <path
       d="m 515.28,621.03 q -5.44,-0.33 -8.03,-1.05 -5.97,-1.65 -12.92,-5.87 l 0.01,-21.04 18.94,9.44 a 0.71,0.7 22.8 0 0 0.99,-0.4 q 0.56,-1.65 0.05,-3.09 -0.36,-1.02 -2.31,-2 -8.79,-4.45 -17.49,-9.22 l -0.29,-20.57 19.6,10.12 a 0.3,0.29 -65.8 0 0 0.41,-0.16 q 0.18,-0.51 0.55,-0.59 l 0.25,20.57 q 0.01,0.8 0.62,0.27 c 2.69,-2.33 5.91,-3.52 9.04,-5.21 27.07,-14.64 53.79,-29.6 81.32,-43.58 a 0.41,0.41 0 0 1 0.59,0.4 l -0.02,0.3 q -0.07,0.74 -0.73,1.12 -8.5,4.88 -16.9,9.43 -35.55,19.25 -69.84,38.48 -1.79,1 -3.62,2.3 a 1.25,1.25 0 0 0 -0.53,1.04 z"
       id="path226" />
    <path
       d="m 832.01,627.82 q 2.8,7.92 -5.01,12.19 -17.75,9.7 -41.05,23.45 c -52.79,31.17 -105.95,61.82 -159.04,92.32 -14.9,8.56 -29.83,17.46 -44.88,25.97 q -12.38,7 -26.27,14.97 -0.11,0.06 -11,6.64 -10.18,6.15 -21.15,10.58 3.24,-5.57 4.11,-8.95 2.32,-8.97 3.68,-17.92 a 2.25,2.25 0 0 1 1.16,-1.64 q 31.65,-16.88 54.46,-29.45 28.07,-15.46 50.52,-26.95 28.82,-14.75 54.54,-28.27 7.89,-4.14 16.81,-8.83 c 31.72,-16.67 58.88,-30.48 87.9,-44.68 q 5.71,-2.8 11.93,-5.6 5.93,-2.67 11.08,-5.32 6.83,-3.51 10.74,-6.03 0.89,-0.58 1.47,-2.48 z"
       id="path227" />
    <rect
       x="-19.92"
       y="-4.4099998"
       transform="rotate(-30.5,1637.1887,-1167.1252)"
       width="39.84"
       height="8.8199997"
       rx="4.3099999"
       id="rect227" />
    <path
       d="m 261.64,676.61 q 4.77,1.63 9.35,3.67 7.17,3.2 9.19,4 c 14.23,5.63 28.7,10.97 43.01,16.81 q 18.43,7.51 37.59,15.66 17.45,7.43 41.42,19.92 29.38,15.31 58.32,30.01 1.25,0.63 -0.05,1.14 l -24.97,9.85 q -49.05,-28.79 -98.82,-56.58 -23.09,-12.9 -72.61,-42.27 c -0.94,-0.56 -1.72,-1.41 -2.43,-2.21 z"
       id="path228" />
  </g>
  <g
     fill="#3f7299"
     id="g234"
     style="display:inline;mix-blend-mode:normal">
    <path
       d="m 310.94,358.22 q 4.18,5.2 3.42,12.28 -0.85,8 -5.89,11.04 0.56,-7.28 -5.91,-10.48 3.73,0.88 1.27,-4.75 2.66,0.52 4.3,-2.16 1.63,-2.68 2.81,-5.93 z"
       id="path229" />
    <path
       d="m 710.59,361.81 2.18,1.55 q 1.19,3.11 6.8,2.86 -0.22,1.12 -0.45,2.11 -0.18,0.77 -0.92,1.88 -1.03,1.54 -0.65,2.96 -2.6,3.15 -1.76,9.34 -10.55,-7.73 -5.2,-20.7 z"
       id="path230" />
    <path
       d="m 346.01,475.48 q 1.31,10.21 4.56,20.05 0.33,1.02 -0.63,1.49 l -9.78,4.87 a 0.97,0.97 0 0 1 -1.38,-0.65 q -1.92,-8.17 -3.2,-16.54 -0.11,-0.71 0.07,-1.4 0.24,-0.9 0.16,-1.14 -0.2,-0.59 -1.07,-0.82 7.16,-0.88 11.27,-5.86 z"
       id="path231" />
    <path
       d="m 677.96,476.54 q 4.56,3.98 10.22,4.68 -0.42,10.01 -3.85,19.51 a 1.27,1.27 0 0 1 -1.79,0.69 l -8.94,-4.73 a 1.21,1.21 0 0 1 -0.6,-1.38 z"
       id="path232" />
    <rect
       x="-14.31"
       y="-3.8800001"
       transform="rotate(29.7,-1188.8385,825.00507)"
       width="28.620001"
       height="7.7600002"
       rx="3.6700001"
       id="rect232" />
    <rect
       x="-31.379999"
       y="-6.29"
       transform="rotate(29.4,-1244.823,961.21898)"
       width="62.759998"
       height="12.58"
       rx="6.1700001"
       id="rect233" />
    <rect
       x="-31.33"
       y="-6.4000001"
       transform="rotate(-29.8,1738.6357,-970.59873)"
       width="62.66"
       height="12.8"
       rx="6.1900001"
       id="rect234" />
  </g>
</svg>
