<?xml version="1.0" encoding="iso-8859-1"?>
<!-- Uploaded to: SVG Repo, www.svgrepo.com, Generator: SVG Repo Mixer Tools -->
<svg fill="#000000" height="800px" width="800px" version="1.1" id="Layer_1" xmlns="http://www.w3.org/2000/svg" xmlns:xlink="http://www.w3.org/1999/xlink" 
	 viewBox="0 0 512.002 512.002" xml:space="preserve">
<g>
	<g>
		<g>
			<path d="M477.526,307.492h-70.191v-46.526c0-6.454-5.232-11.686-11.686-11.686H267.686v-44.772h61.937
				c6.454,0,11.686-5.232,11.686-11.686c0-6.454-5.232-11.686-11.686-11.686h-23.957v-23.372h32.211
				c14.458,0,26.221-11.762,26.221-26.221V26.221C364.098,11.762,352.335,0,337.877,0H174.124
				c-14.458,0-26.221,11.762-26.221,26.221v105.322c0.001,14.458,11.763,26.22,26.221,26.22h32.211v23.372h-23.957
				c-6.454,0-11.686,5.232-11.686,11.686c0,6.454,5.232,11.686,11.686,11.686h61.937v44.773H116.352
				c-6.454,0-11.686,5.232-11.686,11.686v46.526H34.475c-14.458,0-26.221,11.762-26.221,26.221v105.322
				c0,14.458,11.762,26.221,26.221,26.221h32.211v23.372H42.729c-6.454,0-11.686,5.232-11.686,11.686s5.232,11.686,11.686,11.686
				h147.246c6.454,0,11.686-5.232,11.686-11.686s-5.232-11.686-11.686-11.686h-23.957v-23.372h32.211
				c14.458,0,26.221-11.762,26.221-26.221V333.715c0-14.458-11.762-26.221-26.221-26.221h-70.191v-34.84h255.927v34.84h-70.191
				c-14.458,0-26.221,11.762-26.221,26.221v105.322c0,14.458,11.762,26.221,26.221,26.221h32.211v23.372h-23.957
				c-6.454,0-11.686,5.232-11.686,11.686s5.232,11.686,11.686,11.686h147.246c6.454,0,11.686-5.232,11.686-11.686
				s-5.232-11.686-11.686-11.686h-23.957v-23.372h32.211c14.458,0,26.221-11.762,26.221-26.221V333.715
				C503.748,319.254,491.985,307.492,477.526,307.492z M142.645,488.628H90.058v-23.372h52.588V488.628z M198.227,330.866v-0.001
				c1.571,0,2.849,1.277,2.849,2.849v62.595h-62.813c-6.454,0-11.686,5.232-11.686,11.686s5.232,11.686,11.686,11.686h62.813v19.356
				c0,1.571-1.277,2.849-2.849,2.849H34.475c-1.571,0-2.849-1.277-2.849-2.849V333.715c0-1.571,1.277-2.849,2.849-2.849H198.227z
				 M174.124,134.392v-0.001c-1.571,0-2.849-1.277-2.849-2.849V26.221c0-1.571,1.277-2.849,2.849-2.849h163.752
				c1.571,0,2.849,1.277,2.849,2.849v63.505h-54.925c-6.454,0-11.686,5.232-11.686,11.686s5.232,11.686,11.686,11.686h54.925v18.444
				c0,1.571-1.277,2.849-2.849,2.849H174.124z M229.707,181.135v-23.372h52.588v23.372H229.707z M421.945,488.628h-52.588v-23.372
				h52.588V488.628z M480.375,396.307h-54.925c-6.454,0-11.686,5.232-11.686,11.686s5.232,11.686,11.686,11.686h54.925v19.356
				c0,1.571-1.278,2.848-2.849,2.848H313.774c-1.571,0-2.849-1.277-2.849-2.849V333.712c0-1.571,1.277-2.849,2.849-2.849h163.752
				c1.571,0,2.849,1.277,2.849,2.849V396.307z"/>
			<path d="M239.445,89.725h-6.623c-6.454,0-11.686,5.232-11.686,11.686c0,6.454,5.232,11.686,11.686,11.686h6.623
				c6.454,0,11.686-5.232,11.686-11.686C251.132,94.957,245.9,89.725,239.445,89.725z"/>
			<path d="M379.095,396.307h-6.622c-6.454,0-11.686,5.232-11.686,11.686s5.232,11.686,11.686,11.686h6.622
				c6.454,0,11.686-5.232,11.686-11.686S385.549,396.307,379.095,396.307z"/>
			<path d="M85.285,419.679h6.623c6.454,0,11.686-5.232,11.686-11.686s-5.232-11.686-11.686-11.686h-6.623
				c-6.454,0-11.686,5.232-11.686,11.686S78.832,419.679,85.285,419.679z"/>
		</g>
	</g>
</g>
</svg>